<?xml version="1.0" encoding="UTF-8"?><svg id="Layer_2" xmlns="http://www.w3.org/2000/svg" xmlns:xlink="http://www.w3.org/1999/xlink" viewBox="0 0 82.64 165.44"><defs><style>.cls-1{opacity:.07;}.cls-2{fill:none;}.cls-3{fill:#dd4c89;}.cls-4{fill:#e8a2be;}.cls-5{fill:#e06fa0;}.cls-6{clip-path:url(#clippath);}</style><clipPath id="clippath"><path class="cls-2" d="M10.39,165.44c-1.7,0-3.42-.42-5.02-1.3-5.03-2.78-6.86-9.1-4.08-14.13,14.72-26.66,34.73-65.55,50.81-96.8l6.25-12.14c4.52-8.77,3.97-14.96,1.96-17.84-1.3-1.85-3.38-2.69-5.85-2.37-4.37.57-10.49,5.1-14.54,16.09-1.98,5.39-7.96,8.15-13.35,6.16-5.39-1.99-8.15-7.96-6.16-13.35C26.66,12.79,38.09,2.03,51.77.25c10.21-1.33,19.77,2.79,25.56,11.04,7.25,10.32,7.07,24.65-.49,39.32l-6.24,12.13c-16.14,31.37-36.23,70.41-51.1,97.34-1.9,3.44-5.45,5.38-9.11,5.38Z"/></clipPath></defs><g id="OBJECTS"><path class="cls-4" d="M10.39,165.44c-1.7,0-3.42-.42-5.02-1.3-5.03-2.78-6.86-9.1-4.08-14.13,14.72-26.66,34.73-65.55,50.81-96.8l6.25-12.14c4.52-8.77,3.97-14.96,1.96-17.84-1.3-1.85-3.38-2.69-5.85-2.37-4.37.57-10.49,5.1-14.54,16.09-1.98,5.39-7.96,8.15-13.35,6.16-5.39-1.99-8.15-7.96-6.16-13.35C26.66,12.79,38.09,2.03,51.77.25c10.21-1.33,19.77,2.79,25.56,11.04,7.25,10.32,7.07,24.65-.49,39.32l-6.24,12.13c-16.14,31.37-36.23,70.41-51.1,97.34-1.9,3.44-5.45,5.38-9.11,5.38Z"/><g class="cls-6"><rect class="cls-3" x="23.58" y="14.22" width="10" height="35.84" transform="translate(-10.95 49.08) rotate(-71.55)"/><rect class="cls-3" x="7.96" y="126.88" width="10" height="41.49" transform="translate(-73.79 27.47) rotate(-30.81)"/><rect class="cls-3" x="21.33" y="107.78" width="10" height="42.1" transform="translate(-64.78 34.01) rotate(-32.3)"/><rect class="cls-3" x="32.71" y="85.41" width="10" height="40.71" transform="translate(-51.68 37.81) rotate(-33.13)"/><rect class="cls-3" x="43.08" y="63.84" width="10" height="41.45" transform="translate(-44.01 53.22) rotate(-41.59)"/><rect class="cls-3" x="53.46" y="46.41" width="10" height="37.29" transform="translate(-28.94 61.66) rotate(-45.83)"/><rect class="cls-3" x="63.83" y="30.84" width="10" height="32.76" transform="translate(-2.08 91.26) rotate(-66.29)"/><rect class="cls-3" x="34.72" y="8.94" width="47.22" height="10" transform="translate(28.3 65.85) rotate(-73.39)"/><rect class="cls-3" x="33.33" y="-.69" width="10" height="36.74" transform="translate(-2.45 28.61) rotate(-39.76)"/><rect class="cls-3" x="47.85" y="23.1" width="44.47" height="10" transform="translate(-5.16 21.85) rotate(-17.1)"/></g><g class="cls-1"><path d="M27.17,122.21c10.52-16.83,19.61-34.39,27.88-52.42,4.52-9.85,9.68-19.88,12.31-30.46,2.22-8.9,2.87-20.51-6.46-25.64-19.21-10.58-28.47,15.42-34.48,29.37.05.02.09.04.14.06,5.39,1.99,11.37-.77,13.35-6.16,4.05-10.99,10.17-15.52,14.54-16.09,2.47-.32,4.55.52,5.85,2.37,2.02,2.87,2.56,9.07-1.96,17.84l-6.25,12.14C36.03,84.46,16.02,123.35,1.3,150.02c-2.21,4-1.5,8.8,1.41,12.01,7.73-13.52,16.21-26.6,24.47-39.81Z"/></g><path class="cls-5" d="M.02,155.43c.14,3.52,2.05,6.89,5.36,8.72,1.59.88,3.32,1.3,5.02,1.3,2.25,0,4.46-.74,6.27-2.1-3.73-5.21-10.22-8.49-16.64-7.91Z"/><path class="cls-5" d="M37.75,40.47c-4.11-5.14-12.17-6.84-17.91-5.86.46,3.75,2.94,7.12,6.72,8.51,3.7,1.37,8.43.5,11.19-2.65Z"/></g></svg>