<?xml version="1.0" encoding="UTF-8"?><svg id="Layer_2" xmlns="http://www.w3.org/2000/svg" viewBox="0 0 58.16 57.69"><defs><style>.cls-1{fill:#fff;}.cls-1,.cls-2,.cls-3{fill-rule:evenodd;}.cls-2{fill:#ebc234;}.cls-3{opacity:.07;}</style></defs><g id="OBJECTS"><path class="cls-2" d="M27.17.02c5.44-.29,11.98,2.51,16.5,6.36,5.79,4.92,11.87,11.36,13.91,18.28,2.29,7.78-2.53,16.63-8.71,22.28-4.77,4.63-7.91,7.38-13.11,9.54-4.83,2.01-11.98,1.55-18.27-1.61-7.99-4.02-11.24-9.39-14.52-14.74-7.23-10.94-.03-23.83,8.57-31.43C15.58,4.9,18.09,1.79,23.65.41c.55-.14,1.12-.25,1.72-.31.58-.07,1.2-.06,1.8-.08ZM10.03,46.12c4.28,5.09,11.2,8.61,17.95,8.98-2.62-8.67-6.71-17.39-.23-25.48-9.57,1.23-13.22,9.12-17.72,16.5ZM2.84,27.78c8.7-2.55,17.41-6.53,25.5-.11-1.02-9.27-8.37-12.94-15.43-17.49C8.38,14.38,3.65,20.85,2.84,27.78ZM55.23,29.91c-8.58,2.58-17.17,6.57-25.27.41,1.1,9.19,8.57,12.78,15.6,17.2,4.64-4.19,9.36-10.84,9.67-17.6ZM30.48,27.87c9.02-1.28,12.45-8.58,16.72-15.58-4.11-4.49-10.53-8.7-17.15-9.43,2.57,8.49,6.53,16.99.43,25.01Z"/><path class="cls-1" d="M10.03,46.12c4.51-7.38,8.15-15.27,17.72-16.5-6.48,8.08-2.39,16.81.23,25.48-6.75-.37-13.67-3.88-17.95-8.98Z"/><path class="cls-1" d="M2.84,27.78c.81-6.94,5.54-13.4,10.07-17.59,7.05,4.54,14.41,8.21,15.43,17.49-8.09-6.43-16.8-2.45-25.5.11Z"/><path class="cls-1" d="M55.23,29.91c-.31,6.77-5.03,13.41-9.67,17.6-7.03-4.42-14.5-8-15.6-17.2,8.1,6.16,16.69,2.17,25.27-.41Z"/><path class="cls-1" d="M30.48,27.87c6.1-8.02,2.14-16.52-.43-25.01,6.62.73,13.04,4.94,17.15,9.43-4.28,7-7.7,14.3-16.72,15.58Z"/><path class="cls-3" d="M57.58,24.66c-2.04-6.92-8.12-13.37-13.91-18.28C39.16,2.53,32.62-.27,27.17.02c-.6.02-1.23.01-1.8.08-.6.07-1.17.18-1.72.31-.31.08-.6.16-.89.25-.37,2.24-.41,4.49.55,6.65,1.19,2.67,3.09,4.87,4.71,7.27,1.5,2.23,2.48,4.69,2.46,7.41-.03,2.53-.63,4.97-1.27,7.4-.74,2.83-1.51,5.69-1.35,8.64.15,2.8.75,5.56,1.81,8.16,1.54,3.76,3.83,7.13,6.6,10.07,4.9-2.13,8-4.84,12.61-9.32,6.19-5.65,11-14.49,8.71-22.28Z"/></g></svg>