<?xml version="1.0" encoding="UTF-8"?><svg id="Layer_2" xmlns="http://www.w3.org/2000/svg" viewBox="0 0 61.4 60.89"><defs><style>.cls-1{fill:#fff;}.cls-1,.cls-2,.cls-3{fill-rule:evenodd;}.cls-2{fill:#8ac9c2;}.cls-3{opacity:.07;}</style></defs><g id="OBJECTS"><path class="cls-2" d="M28.68.02c5.75-.31,12.65,2.65,17.42,6.71,6.11,5.19,12.53,11.99,14.68,19.3,2.42,8.22-2.67,17.55-9.2,23.51-5.03,4.89-8.35,7.79-13.84,10.07-5.1,2.12-12.64,1.64-19.28-1.7-8.43-4.24-11.86-9.92-15.33-15.55-7.64-11.54-.03-25.15,9.05-33.18C16.45,5.17,19.1,1.88,24.96.43c.58-.14,1.19-.26,1.82-.33.61-.07,1.27-.06,1.9-.08ZM10.59,48.68c4.52,5.38,11.82,9.09,18.95,9.47-2.76-9.15-7.08-18.36-.24-26.89-10.11,1.3-13.95,9.62-18.71,17.42ZM3,29.33c9.18-2.7,18.38-6.9,26.92-.11-1.08-9.79-8.84-13.66-16.29-18.46C8.85,15.18,3.86,22.01,3,29.33ZM58.3,31.57c-9.06,2.72-18.12,6.93-26.67.43,1.16,9.7,9.04,13.49,16.47,18.15,4.9-4.42,9.88-11.44,10.21-18.58ZM32.17,29.42c9.52-1.35,13.14-9.05,17.65-16.44-4.33-4.74-11.11-9.18-18.1-9.96,2.72,8.96,6.9,17.93.45,26.4Z"/><path class="cls-1" d="M10.59,48.68c4.76-7.79,8.6-16.11,18.71-17.42-6.84,8.53-2.52,17.74.24,26.89-7.13-.39-14.43-4.1-18.95-9.47Z"/><path class="cls-1" d="M3,29.33c.85-7.32,5.85-14.14,10.63-18.57,7.45,4.8,15.21,8.67,16.29,18.46-8.54-6.78-17.73-2.58-26.92.11Z"/><path class="cls-1" d="M58.3,31.57c-.33,7.14-5.31,14.16-10.21,18.58-7.42-4.67-15.31-8.45-16.47-18.15,8.55,6.5,17.62,2.3,26.67-.43Z"/><path class="cls-1" d="M32.17,29.42c6.44-8.47,2.26-17.44-.45-26.4,6.99.78,13.77,5.22,18.1,9.96-4.51,7.39-8.13,15.09-17.65,16.44Z"/><path class="cls-3" d="M60.78,26.03c-2.15-7.3-8.57-14.11-14.68-19.3C41.33,2.67,34.43-.28,28.68.02c-.64.02-1.29.01-1.9.08-.63.07-1.24.19-1.82.33-.33.08-.64.17-.94.26-.4,2.36-.44,4.74.58,7.02,1.25,2.82,3.26,5.14,4.97,7.68,1.59,2.35,2.62,4.95,2.59,7.83-.03,2.67-.66,5.25-1.34,7.82-.79,2.98-1.59,6.01-1.42,9.12.16,2.95.79,5.87,1.91,8.61,1.63,3.98,4.04,7.53,6.97,10.63,5.17-2.25,8.44-5.11,13.31-9.84,6.53-5.96,11.61-15.3,9.2-23.51Z"/></g></svg>