<?xml version="1.0" encoding="UTF-8"?><svg id="Layer_2" xmlns="http://www.w3.org/2000/svg" viewBox="0 0 64.63 64.1"><defs><style>.cls-1{fill:#fff;}.cls-1,.cls-2,.cls-3{fill-rule:evenodd;}.cls-2{fill:#dd4c89;}.cls-3{opacity:.07;}</style></defs><g id="OBJECTS"><path class="cls-2" d="M30.19.02c6.05-.32,13.31,2.79,18.33,7.06,6.43,5.46,13.19,12.63,15.45,20.32,2.54,8.65-2.81,18.48-9.68,24.75-5.3,5.15-8.79,8.2-14.57,10.6-5.37,2.23-13.31,1.72-20.3-1.79-8.87-4.46-12.49-10.44-16.14-16.37-8.04-12.15-.03-26.48,9.52-34.92C17.31,5.45,20.1,1.98,26.28.46c.61-.15,1.25-.27,1.91-.35.64-.07,1.33-.06,2-.09ZM11.15,51.24c4.76,5.66,12.44,9.56,19.94,9.97-2.91-9.63-7.45-19.33-.25-28.31-10.64,1.37-14.69,10.13-19.69,18.33ZM3.16,30.87c9.67-2.84,19.34-7.26,28.33-.12-1.13-10.3-9.3-14.38-17.14-19.43-5.04,4.66-10.29,11.84-11.19,19.55ZM61.37,33.23c-9.53,2.87-19.08,7.29-28.08.45,1.22,10.21,9.52,14.2,17.33,19.11,5.16-4.65,10.4-12.04,10.74-19.56ZM33.87,30.96c10.02-1.42,13.83-9.53,18.58-17.31-4.56-4.99-11.7-9.67-19.06-10.48,2.86,9.43,7.26,18.88.48,27.79Z"/><path class="cls-1" d="M11.15,51.24c5.01-8.2,9.05-16.96,19.69-18.33-7.2,8.98-2.65,18.68.25,28.31-7.5-.41-15.19-4.31-19.94-9.97Z"/><path class="cls-1" d="M3.16,30.87c.9-7.71,6.15-14.89,11.19-19.55,7.84,5.05,16.01,9.13,17.14,19.43-8.99-7.14-18.67-2.72-28.33.12Z"/><path class="cls-1" d="M61.37,33.23c-.34,7.52-5.59,14.9-10.74,19.56-7.81-4.91-16.11-8.89-17.33-19.11,9,6.84,18.54,2.42,28.08-.45Z"/><path class="cls-1" d="M33.87,30.96c6.78-8.91,2.38-18.36-.48-27.79,7.36.82,14.49,5.49,19.06,10.48-4.75,7.78-8.56,15.88-18.58,17.31Z"/><path class="cls-3" d="M63.98,27.4c-2.26-7.69-9.02-14.85-15.45-20.32C43.51,2.81,36.24-.3,30.19.02c-.67.03-1.36.01-2,.09-.67.08-1.31.2-1.91.35-.34.08-.67.18-.99.27-.42,2.48-.46,4.99.61,7.39,1.32,2.97,3.43,5.41,5.23,8.08,1.67,2.48,2.76,5.21,2.73,8.24-.03,2.81-.7,5.52-1.41,8.23-.83,3.14-1.68,6.32-1.5,9.6.17,3.11.83,6.18,2.01,9.06,1.71,4.18,4.26,7.92,7.33,11.19,5.44-2.36,8.89-5.38,14.01-10.36,6.87-6.27,12.23-16.1,9.68-24.75Z"/></g></svg>