<?xml version="1.0" encoding="UTF-8"?><svg id="Layer_2" xmlns="http://www.w3.org/2000/svg" viewBox="0 0 167.5 88.47"><defs><style>.cls-1{opacity:.07;}.cls-2,.cls-3,.cls-4{fill:none;stroke-linecap:round;stroke-linejoin:round;stroke-width:9px;}.cls-2,.cls-5{stroke:#c1a9a1;}.cls-3,.cls-4{stroke:#e9d0c4;}.cls-5{fill:#e9d0c4;stroke-miterlimit:10;}.cls-6{fill:#70b8af;}.cls-4{opacity:.5;}.cls-7{fill:#8ac9c2;}</style></defs><g id="OBJECTS"><path class="cls-2" d="M58.57,46.26c33.54,11.34,69.91,23.64,104.43,35.31"/><path class="cls-3" d="M57.93,48.16c33.54,11.34,69.91,23.64,104.43,35.31"/><path class="cls-5" d="M165.54,80.32c1.13.38,1.48,2.39.77,4.48s-2.2,3.48-3.33,3.1-1.48-2.39-.77-4.48,2.2-3.48,3.33-3.1Z"/><path class="cls-7" d="M3.68,26.65C-3.98,49.31-.1,63.79,19.26,74.73c20.34,11.27,38.78,5.43,49.07-15.25,11.28-23.63,9.08-46.33-18.84-54.68C28.47-1.2,12.33,4.32,3.68,26.65"/><g class="cls-1"><path d="M49.49,4.81C28.58-1.17,12.51,4.27,3.83,26.28c1.3,2.77,3.25,5.17,6.25,6.27,3.51,1.29,7.34,1.02,10.96.31,7.83-1.54,15.24-5.08,23.16-6.1,3.86-.5,7.78,0,11.55.95,4.2,1.04,9.04,2.73,11.79,6.3,1.48,1.92,2.29,4.3,3.79,6.18.76.95,1.67,1.7,2.67,2.31,2.98-16.9-3.43-31.39-24.51-37.69Z"/></g><path class="cls-6" d="M34.45,78.1c7.66-22.66,15.32-45.32,22.99-67.98,3.22-9.53-11.55-14.53-14.78-5-7.66,22.66-15.32,45.32-22.99,67.98-3.22,9.53,11.56,14.53,14.78,5h0Z"/><g class="cls-1"><path d="M42.65,5.12l-12.56,37.14c2.87.07,5.32-1.49,8.21-2.92,3.21-1.58,6.16-1.62,9.25-.02l9.88-29.21c3.22-9.53-11.55-14.53-14.78-5Z"/></g><path class="cls-6" d="M14.77,63.72c-4.78-8.18-3.97-18.78-1.01-27.42,1.41-4.57,3.79-8.52,5.09-12.26,1.35-3.41.99-6.88-1.4-9.62-1.28-1.47-1.34-1.46.55-.72,4.21,1.84,5.98,6.01,5.57,10.43-.5,5.04-2.67,9.35-4.11,14.03-2.94,8.51-4.68,16.39-4.7,25.56h0Z"/><path class="cls-6" d="M64.86,60.11c-4.05-.36-8.16-1.5-11.71-3.98-4.89-3.17-7.67-10.43-2.89-15,6.08-5.43,15.38-2.05,20.86,2.34-5.43-1.95-11.39-3.99-16.74-1.65-5.76,2.68-3.86,9.13.22,12.48,2.86,2.51,6.49,4.25,10.25,5.81h0Z"/><path class="cls-4" d="M57.93,48.16l23.15,7.83"/></g></svg>