<?xml version="1.0" encoding="UTF-8"?><svg id="Layer_2" xmlns="http://www.w3.org/2000/svg" viewBox="0 0 157.4 54.89"><defs><style>.cls-1{fill:#ebc234;}.cls-2{opacity:.05;}.cls-3{opacity:.07;}.cls-4{fill:#dd4c89;}.cls-5{fill:#94d2d5;}.cls-6{fill:#e17597;}.cls-7{fill:#f3da7a;}</style></defs><g id="OBJECTS"><path class="cls-6" d="M115.76,23.25c11.44-29.19,43.8-27.3,25.96-4.55,21.17-5.36,20.35,19.43.88,16.93,7.84,5.53,11.67,14.26.58,17.07-10.08,2.55-21.53-13.06-28.05-17.58"/><g class="cls-2"><path d="M130.43,40.25c3.04-1.15,7.04-3.62,4.48-7.28-1.21-1.73-2.94-3.18-3.91-5.07-2.09-4.05.97-6.61,1.66-10.49.59-3.34-1.41-6.8-4.94-7.24-1.31-.16-2.62-.11-3.93.02-3.09,3.33-5.92,7.66-8.03,13.06l-.63,11.87c3.02,2.09,7.09,6.56,11.6,10.5.3-2.33,1.23-4.44,3.7-5.37Z"/></g><path class="cls-4" d="M139.94,9.65c-4.61,3.83-8.35,9.33-14.81,9.64,3.24-4.85,8.3-11.06,14.81-9.64h0Z"/><path class="cls-4" d="M151.51,26.82c-4.04,1.87-8.38,2.34-12.72,2.46-4.35.03-8.52-.29-12.78-1.54,4.04-1.88,8.38-2.35,12.72-2.46,4.35-.02,8.52.29,12.78,1.54h0Z"/><path class="cls-4" d="M140.87,45.18c-3.32-.62-6.05-2.18-8.72-4.01-2.63-1.9-4.92-3.85-6.87-6.6,6.53.26,12.67,4.89,15.59,10.6h0Z"/><path class="cls-6" d="M40.83,21.62C25.13-5.52-6.58,1.21,14.48,21.02c-21.74-2.11-17.2,22.27,1.67,16.87-6.91,6.64-9.39,15.85,1.99,16.96,10.35,1.01,19.32-16.15,25.09-21.59"/><g class="cls-2"><path d="M24.49,8.96c-2.04,2.94-.88,6.27.37,9.26.9,2.15,1.75,4.61.73,6.89-.93,2.08-4.47,4.49-4.11,6.87.44,2.86,4.03,4.01,5.42,6.4.79,1.37,1.08,3.06,1.29,4.6.27,1.99.3,4.23,1.13,6.08.07.15.16.27.23.41,5.47-5.25,10.17-12.91,13.69-16.22l-2.41-11.64c-3.96-6.85-8.95-11.54-13.85-14.41-.94.22-1.81.77-2.49,1.75Z"/></g><path class="cls-4" d="M14.82,9.58c6.44,1.69,13.13,6.06,15.25,12.64-3.25-1.33-5.86-2.99-8.58-5.04-2.65-2.1-5.16-4.4-6.66-7.6h0Z"/><path class="cls-4" d="M6.59,30.01c3.89-1.21,7.69-1.47,11.65-1.53,3.96.02,7.79.25,11.67,1.52-7.07,3.32-16.26,3.41-23.32,0h0Z"/><path class="cls-4" d="M17.36,49.75c.83-6.48,7.06-11.36,13.06-13.02-2.53,5.97-7.7,9.69-13.06,13.02h0Z"/><path class="cls-1" d="M120.51,29.81C121.58,2.61,105.87,1.71,81.78.4,59.85-.02,38.72-3.64,36.53,22.6c-1.64,33.5,8.73,32.72,37.85,31.56,24.89-1.88,47.84,5.77,46.14-24.35"/><path class="cls-7" d="M50.8,19.15c.42,6.32,1.08,13.3,5.5,18.22,5.2,5.79,13.21,9.13,15.1,16.91.97-.04,1.96-.08,2.98-.12,15.88-1.2,30.97,1.48,39.37-4.25-.07-1.12-.14-2.24-.27-3.35-.44-3.69-1.71-6.84-4-9.77-3.66-4.68-8.32-8.44-11.99-13.11-5.36-6.84-8.19-14.55-9.43-22.9-2.02-.13-4.11-.24-6.27-.36-11.68-.23-23.13-1.36-31.61,1.59-.9,5.56.27,11.72.63,17.15Z"/><path class="cls-4" d="M56.96,14.77c.41,7.16,2.73,13.54,7.42,18.99,3.27,3.8,7.22,7.13,10.02,11.31,1.86,2.79,2.97,5.73,3.38,8.88,10.99-.49,21.39.47,29.19-1.29.36-3.16-.48-6.56-1.87-9.54-2.47-5.33-6.15-8.99-10.5-12.8-4.58-4.01-8.22-8.31-9.59-14.39-1.14-5.08-1.71-10.26-1.76-15.45-.49-.03-.98-.05-1.48-.08-8.46-.17-16.8-.8-23.98-.01-.59,4.78-1.12,9.59-.84,14.39Z"/><path class="cls-5" d="M93.77,48.99c-.7-2.25-1.99-3.82-3.51-5.14-3.21-2.74-6.99-4.63-10.56-7.07-2.86-1.92-6.27-4.53-8.04-7.81-4.06-7.51-3.25-16.42-1.3-24.34,2.59,6.27,3.25,12.56,5.94,18.41,2.42,5.71,8.22,8.48,12.4,13,3.15,3.17,6.82,8.26,5.07,12.95h0Z"/><g class="cls-3"><path d="M120.51,29.81c0-.18,0-.34.01-.52-2.6-.15-5.35-.53-7.27,1.15-1.97,1.72-2.56,4.26-3.47,6.61-1.56,4.03-4.73,6.86-8.72,8.45-8.63,3.43-18.38,2.52-27.47,2.96-7.95.39-18.32.96-24.42-5.24-3.61-3.68-4.27-8.64-6.94-12.85-1.51-2.39-3.55-3.52-5.83-4.02-.67,29.68,10,28.93,37.98,27.81,24.89-1.88,47.84,5.77,46.14-24.35Z"/></g></g></svg>