<?xml version="1.0" encoding="UTF-8"?><svg id="Layer_2" xmlns="http://www.w3.org/2000/svg" viewBox="0 0 128.94 83.28"><defs><style>.cls-1{fill:#ebc234;}.cls-2{opacity:.05;}.cls-3{opacity:.07;}.cls-4{fill:#dd4c89;}.cls-5{fill:#f3da7a;}.cls-6{fill:#e8a2be;}.cls-7{fill:#8ac9c2;}</style></defs><g id="OBJECTS"><path class="cls-1" d="M45.15,46.29c-5.65-3.52-30.18-14.74-39.98-10.15-11.65,5.46-1.33,18.12,8.54,17.94-21.58,7.62-12.46,20.94,6.46,12.06-3.87,4.67-10.82,9.89-3,16.5,10.14,4.37,24.75-14.25,30.8-25.21"/><g class="cls-2"><path d="M24.22,46.35c1.36,3.73,2.69,6.74,1.77,10.76-.62,2.72-1.06,5.35,1.36,7.41,1.84,1.58,3.94,2.56,6.1,3.59,1.9.91,3.49,1.94,4.78,3.27,4-4.65,7.48-9.85,9.75-13.97l-2.83-11.13c-2.92-1.82-10.9-5.7-19.27-8.38-2.02,2.07-2.88,5.12-1.66,8.45Z"/></g><path class="cls-1" d="M82.58,33.07C84.77,26.78,99.77.53,107.33.07c12.81-1.21,12.41,13.27,4.62,19.32,17.67-11.76,26.09,12.58,2.54,13.44,5.94,1.21,14.63.9,12.69,10.96-5.15,9.77-28.21,4.44-39.81-.29"/><g class="cls-2"><path d="M111.74,41.08c-2.43-3.45-7.85-3.68-9.78-7.46-.95-1.85-1.17-3.96-.76-6,.51-2.49,1.88-5.51.86-8.02-1.42-3.47-5.48-5.82-9.04-5.33-5,7.44-9.34,15.64-10.44,18.81l4.79,10.44c6.26,2.55,15.86,5.28,24.18,5.71,1.2-2.85,1.79-5.87.19-8.14Z"/></g><path class="cls-5" d="M95.61,26.89c4.14-6.17,6.75-13,12.64-17.76-.84,7.2-4.99,15.98-12.64,17.76h0Z"/><path class="cls-5" d="M97.01,33.43c5.88-5.8,14.35-9.84,22.73-8.96-3.47,2.45-7.02,4.1-10.82,5.74-3.83,1.55-7.67,2.97-11.91,3.22h0Z"/><path class="cls-5" d="M100.88,40c5.91-1.84,12.82-1.39,17.99,2.18-5.91,1.86-12.81,1.38-17.99-2.18h0Z"/><path class="cls-5" d="M29.35,48.7c-7.47-.38-15.04-2.28-21.15-6.71,7.24-.97,16.01,1.37,21.15,6.71h0Z"/><path class="cls-5" d="M32.48,55.7c-3.21,2.41-6.61,3.93-10.28,5.28-3.69,1.26-7.4,2.26-11.42,2.1,5.67-5.07,14.07-8.28,21.7-7.37h0Z"/><path class="cls-5" d="M35.17,64.44c-1.51,2.65-3.1,4.59-5.17,6.66-2.1,1.99-4.51,3.8-7.56,4.27.57-1.53,1.28-2.75,2.07-3.92,2.47-3.52,6.06-6.88,10.66-7.01h0Z"/><path class="cls-7" d="M56.15,17.16c-39.54,15.1-15.61,70.48,21.88,52.68,32.02-14.72,14.74-66.75-21.88-52.68"/><path class="cls-6" d="M87.59,39.45c-4.21-3.76-9.04-6.31-13.69-9.42-3.09-2.07-6.29-4.5-8.03-7.87-1.18-2.28-1.66-4.66-1.7-7.11-2.56.35-5.23,1.03-8.03,2.11-11.88,4.54-18.02,12.71-19.8,21.44,3.41,6.55,11.67,10.03,18.47,13.04,8.91,3.95,14.63,11.44,17.76,20.32,1.78-.54,3.61-1.23,5.46-2.11,10.27-4.72,15.46-13.28,16.57-22.27-2.01-2.97-4.31-5.72-7.01-8.13Z"/><path class="cls-5" d="M72.37,35.9c-7.58-4.2-16.82-9.38-15.77-18.9-.15.06-.3.1-.45.16-7.04,2.69-12.07,6.66-15.36,11.27.02,2.66.52,5.27,1.91,7.59,3.38,5.63,9.96,7.72,15.68,10.15,6.09,2.59,11.63,5.82,15.03,11.72,2.13,3.69,3.72,7.82,4.37,12.07.08-.04.17-.07.25-.11,7.63-3.51,12.46-9.14,14.89-15.5-4.1-8.16-12.32-13.89-20.55-18.45Z"/><path class="cls-4" d="M49.88,25.35c.73,4.22,2.87,6.79,6.5,8.53,3.26,1.68,7.12,2.8,11.15,4.69,4.05,1.93,7.74,4.54,10.84,7.78,2.96,3.19,6.07,7.33,5.87,11.9-2.56-3.41-5.93-5.42-9.37-7.66-3.36-2.09-6.77-4.03-10.34-5.7-7.2-3.12-19.62-9.37-14.64-19.55h0Z"/><g class="cls-3"><path d="M77.27,16.41c-.8.62-1.42,1.43-1.69,2.49-.7,2.8.44,5.37,1.68,7.83,2,3.94,4.28,7.91,5.44,12.21,1.11,4.13,1.16,8.43-.19,12.52-1.1,3.31-2.75,7.04-6.06,8.69-6.72,3.36-14.52-.93-21.58.08-4.8.69-7.52,3.1-8.96,6.36,7.66,6.76,19.07,9.44,32.12,3.24,24.94-11.47,19.97-45.57-.76-53.44Z"/></g></g></svg>