<?xml version="1.0" encoding="UTF-8"?><svg xmlns="http://www.w3.org/2000/svg" xmlns:xlink="http://www.w3.org/1999/xlink" viewBox="0 0 287.72 323.8"><defs><style>.cls-1{fill:url(#linear-gradient-15);}.cls-2{fill:url(#linear-gradient-13);}.cls-3{fill:url(#linear-gradient-28);}.cls-4{fill:url(#linear-gradient-42);}.cls-5{fill:#ff7c27;}.cls-6{fill:url(#linear-gradient-2);}.cls-7{fill:#fed9da;}.cls-8{fill:url(#linear-gradient-25);}.cls-9{fill:url(#linear-gradient-10);}.cls-10{fill:url(#linear-gradient-12);}.cls-11{fill:url(#linear-gradient-40);}.cls-12{fill:url(#linear-gradient-27);}.cls-13,.cls-14,.cls-15,.cls-16,.cls-17{fill:#c52dea;}.cls-13,.cls-18,.cls-15,.cls-16,.cls-17,.cls-19,.cls-20{mix-blend-mode:multiply;}.cls-13,.cls-19{opacity:.35;}.cls-21{fill:url(#linear-gradient-37);}.cls-22{fill:url(#_Áåçûìÿííûé_ãðàäèåíò_123-2);}.cls-23{fill:url(#linear-gradient-39);}.cls-24{fill:#cecece;}.cls-25{fill:url(#linear-gradient-26);}.cls-18,.cls-15{opacity:.25;}.cls-26,.cls-27,.cls-28{fill:#f9ff80;mix-blend-mode:soft-light;}.cls-29{fill:url(#linear-gradient-4);}.cls-30{fill:#d03d1d;}.cls-31{fill:url(#linear-gradient-35);}.cls-32{fill:url(#linear-gradient-30);}.cls-33{fill:#72123b;}.cls-34{fill:url(#_Áåçûìÿííûé_ãðàäèåíò_123-3);}.cls-34,.cls-27,.cls-35,.cls-28{fill-rule:evenodd;}.cls-36{fill:url(#linear-gradient-44);}.cls-37{fill:url(#linear-gradient-3);}.cls-38{fill:url(#linear-gradient-34);}.cls-16{opacity:.2;}.cls-39{fill:url(#linear-gradient-5);}.cls-40{fill:url(#linear-gradient-38);}.cls-41{fill:url(#linear-gradient-22);}.cls-42{fill:url(#linear-gradient-24);}.cls-43{isolation:isolate;}.cls-44{fill:url(#linear-gradient-33);}.cls-45{fill:url(#linear-gradient-8);}.cls-46{fill:#6c2e4a;}.cls-47{fill:#fb499c;}.cls-35{fill:url(#linear-gradient-43);}.cls-48{fill:#6292f4;}.cls-17{opacity:.15;}.cls-49{fill:url(#linear-gradient-14);}.cls-50{fill:url(#linear-gradient-29);}.cls-51{fill:url(#linear-gradient-20);}.cls-52{fill:url(#linear-gradient-17);}.cls-53{fill:url(#linear-gradient-7);}.cls-54{fill:url(#linear-gradient-9);}.cls-55{fill:url(#linear-gradient-11);}.cls-56{fill:url(#linear-gradient-19);}.cls-57{fill:url(#_Áåçûìÿííûé_ãðàäèåíò_123);}.cls-58{fill:url(#linear-gradient-6);}.cls-28,.cls-20{opacity:.5;}.cls-59{fill:url(#linear-gradient-36);}.cls-60{fill:url(#linear-gradient-21);}.cls-61{fill:url(#linear-gradient-45);}.cls-20{fill:#922ee8;}.cls-62{fill:#fce938;}.cls-63{fill:url(#linear-gradient-32);}.cls-64{fill:url(#linear-gradient-41);}.cls-65{fill:url(#linear-gradient-16);}.cls-66{fill:#ec2c85;}.cls-67{fill:url(#linear-gradient);}.cls-68{fill:url(#linear-gradient-23);}.cls-69{fill:url(#linear-gradient-31);}.cls-70{fill:url(#_Áåçûìÿííûé_ãðàäèåíò_177);}.cls-71{fill:url(#linear-gradient-18);}</style><linearGradient id="linear-gradient" x1="170.48" y1="187.96" x2="170.48" y2="140.99" gradientTransform="translate(-22.21 23.14) rotate(-9.12)" gradientUnits="userSpaceOnUse"><stop offset="0" stop-color="#37a910"/><stop offset=".65" stop-color="#62d202"/><stop offset=".74" stop-color="#69d900"/></linearGradient><linearGradient id="linear-gradient-2" x1="146.04" y1="160.79" x2="199.62" y2="160.79" xlink:href="#linear-gradient"/><linearGradient id="linear-gradient-3" x1="195.89" y1="203.97" x2="195.89" y2="137.05" gradientTransform="translate(-22.21 23.14) rotate(-9.12)" gradientUnits="userSpaceOnUse"><stop offset="0" stop-color="#6d4fff"/><stop offset=".27" stop-color="#655dff"/><stop offset=".78" stop-color="#5384ff"/><stop offset="1" stop-color="#4a98ff"/></linearGradient><linearGradient id="linear-gradient-4" x1="212.98" y1="203.97" x2="212.98" y2="139.04" gradientTransform="translate(-22.21 23.14) rotate(-9.12)" gradientUnits="userSpaceOnUse"><stop offset="0" stop-color="#4a98ff"/><stop offset=".22" stop-color="#5384ff"/><stop offset=".73" stop-color="#655dff"/><stop offset="1" stop-color="#6d4fff"/></linearGradient><linearGradient id="linear-gradient-5" x1="240.92" y1="241.54" x2="240.92" y2="115.44" gradientTransform="translate(-22.21 23.14) rotate(-9.12)" gradientUnits="userSpaceOnUse"><stop offset="0" stop-color="#fff400"/><stop offset=".68" stop-color="#ffc40b"/></linearGradient><linearGradient id="linear-gradient-6" x1="141.72" y1="152.25" x2="234.51" y2="152.25" gradientTransform="translate(-22.21 23.14) rotate(-9.12)" gradientUnits="userSpaceOnUse"><stop offset=".32" stop-color="#ffc40b"/><stop offset="1" stop-color="#fff400"/></linearGradient><linearGradient id="linear-gradient-7" x1="86.65" y1="25.43" x2="113.15" y2="25.43" gradientTransform="translate(-22.21 23.14) rotate(-9.12)" gradientUnits="userSpaceOnUse"><stop offset="0" stop-color="#67cb05"/><stop offset="1" stop-color="#8dd900"/></linearGradient><linearGradient id="linear-gradient-8" x1="106.46" y1="42.5" x2="106.46" y2="5.87" gradientTransform="translate(-22.21 23.14) rotate(-9.12)" gradientUnits="userSpaceOnUse"><stop offset="0" stop-color="#599000"/><stop offset="1" stop-color="#78cf00"/></linearGradient><linearGradient id="linear-gradient-9" x1="105.69" y1="25.43" x2="131.22" y2="25.43" xlink:href="#linear-gradient-7"/><linearGradient id="linear-gradient-10" x1="100.66" y1="98.28" x2="100.66" y2="68.83" gradientTransform="translate(-22.21 23.14) rotate(-9.12)" gradientUnits="userSpaceOnUse"><stop offset="0" stop-color="#ff9500"/><stop offset="1" stop-color="#ffbd00"/></linearGradient><linearGradient id="linear-gradient-11" x1="55.4" y1="95.71" x2="55.4" y2="62.05" xlink:href="#linear-gradient-6"/><linearGradient id="_Áåçûìÿííûé_ãðàäèåíò_177" x1="114.95" y1="77.94" x2="114.95" y2="55.71" gradientTransform="translate(-22.21 23.14) rotate(-9.12)" gradientUnits="userSpaceOnUse"><stop offset=".02" stop-color="#ffcec7"/><stop offset="1" stop-color="#ffe9f5"/></linearGradient><linearGradient id="linear-gradient-12" x1="56.84" y1="95.71" x2="56.84" y2="62.05" xlink:href="#linear-gradient-6"/><linearGradient id="linear-gradient-13" x1="125.4" y1="305.95" x2="125.4" y2="256.96" gradientTransform="translate(-22.21 23.14) rotate(-9.12)" gradientUnits="userSpaceOnUse"><stop offset="0" stop-color="#594fff"/><stop offset=".44" stop-color="#563fff"/><stop offset="1" stop-color="#5431ff"/></linearGradient><linearGradient id="linear-gradient-14" x1="114.41" y1="305.95" x2="114.41" y2="265.44" xlink:href="#linear-gradient-4"/><linearGradient id="linear-gradient-15" x1="35.39" x2="35.39" y2="269.33" xlink:href="#linear-gradient-13"/><linearGradient id="linear-gradient-16" x1="148.33" y1="305.95" x2="148.33" y2="265.44" xlink:href="#linear-gradient-4"/><linearGradient id="linear-gradient-17" x1="159.31" y1="305.95" x2="159.31" y2="256.96" xlink:href="#linear-gradient-13"/><linearGradient id="linear-gradient-18" x1="99.01" y1="305.95" x2="99.01" y2="265.55" xlink:href="#linear-gradient-13"/><linearGradient id="linear-gradient-19" x1="81.59" y1="305.95" x2="81.59" y2="267.78" xlink:href="#linear-gradient-4"/><linearGradient id="linear-gradient-20" x1="20.52" y1="305.95" x2="20.52" y2="269.21" xlink:href="#linear-gradient-4"/><linearGradient id="linear-gradient-21" x1="49.12" y1="281.46" x2="49.12" y2="231.76" gradientTransform="translate(-22.21 23.14) rotate(-9.12)" gradientUnits="userSpaceOnUse"><stop offset="0" stop-color="#ff519f"/><stop offset="1" stop-color="#c000d1"/></linearGradient><linearGradient id="linear-gradient-22" x1="132.65" y1="281.46" x2="132.65" y2="231.76" gradientTransform="translate(-22.21 23.14) rotate(-9.12)" gradientUnits="userSpaceOnUse"><stop offset="0" stop-color="#ff3179"/><stop offset=".68" stop-color="#b5097c"/></linearGradient><linearGradient id="_Áåçûìÿííûé_ãðàäèåíò_123" x1="43.61" y1="267.33" x2="43.61" y2="214.56" gradientTransform="translate(-22.21 23.14) rotate(-9.12)" gradientUnits="userSpaceOnUse"><stop offset="0" stop-color="#fff400"/><stop offset=".68" stop-color="#ffc40b"/></linearGradient><linearGradient id="linear-gradient-23" x1="134.43" y1="267.33" x2="134.43" y2="214.56" gradientTransform="translate(-22.21 23.14) rotate(-9.12)" gradientUnits="userSpaceOnUse"><stop offset="0" stop-color="#ffbd00"/><stop offset="1" stop-color="#ff9500"/></linearGradient><linearGradient id="linear-gradient-24" x1="39.15" y1="250.56" x2="39.15" y2="186.31" gradientTransform="translate(-22.21 23.14) rotate(-9.12)" gradientUnits="userSpaceOnUse"><stop offset=".26" stop-color="#69d900"/><stop offset=".35" stop-color="#62d202"/><stop offset="1" stop-color="#37a910"/></linearGradient><linearGradient id="linear-gradient-25" x1="135.33" y1="250.56" x2="135.33" y2="186.31" gradientTransform="translate(-22.21 23.14) rotate(-9.12)" gradientUnits="userSpaceOnUse"><stop offset="0" stop-color="#8bab00"/><stop offset=".58" stop-color="#4f7d00"/><stop offset="1" stop-color="#2a6100"/></linearGradient><linearGradient id="linear-gradient-26" x1="37.84" y1="235.13" x2="37.84" y2="173.46" gradientTransform="translate(-22.21 23.14) rotate(-9.12)" gradientUnits="userSpaceOnUse"><stop offset="0" stop-color="#4a98ff"/><stop offset=".41" stop-color="#6869f8"/><stop offset=".8" stop-color="#8141f3"/><stop offset="1" stop-color="#8b33f2"/></linearGradient><linearGradient id="linear-gradient-27" x1="136.27" y1="235.13" x2="136.27" y2="173.46" xlink:href="#linear-gradient-13"/><linearGradient id="linear-gradient-28" x1="42.95" y1="215.15" x2="42.95" y2="153.78" xlink:href="#linear-gradient-21"/><linearGradient id="linear-gradient-29" x1="112.83" y1="215.15" x2="112.83" y2="153.78" xlink:href="#linear-gradient-22"/><linearGradient id="_Áåçûìÿííûé_ãðàäèåíò_123-2" x1="48.04" y1="189.62" x2="48.04" y2="135.65" xlink:href="#_Áåçûìÿííûé_ãðàäèåíò_123"/><linearGradient id="linear-gradient-30" x1="112.12" y1="189.62" x2="112.12" y2="135.65" xlink:href="#linear-gradient-23"/><linearGradient id="linear-gradient-31" x1="59.77" y1="170.51" x2="59.77" y2="116.41" xlink:href="#linear-gradient-24"/><linearGradient id="linear-gradient-32" x1="113.83" y1="170.51" x2="113.83" y2="116.41" xlink:href="#linear-gradient-25"/><linearGradient id="linear-gradient-33" x1="117.25" y1="144.6" x2="117.25" y2="92.98" gradientTransform="translate(-22.21 23.14) rotate(-9.12)" gradientUnits="userSpaceOnUse"><stop offset="0" stop-color="#4e44eb"/><stop offset=".37" stop-color="#4d38f0"/><stop offset="1" stop-color="#4d2af7"/></linearGradient><linearGradient id="linear-gradient-34" x1="66.12" y1="144.6" x2="66.12" y2="92.98" gradientTransform="translate(-22.21 23.14) rotate(-9.12)" gradientUnits="userSpaceOnUse"><stop offset="0" stop-color="#3a89f0"/><stop offset=".21" stop-color="#4d74f0"/><stop offset=".74" stop-color="#7945f1"/><stop offset="1" stop-color="#8b33f2"/></linearGradient><linearGradient id="linear-gradient-35" x1="73.99" y1="127.52" x2="73.64" y2="51.83" gradientTransform="translate(-22.21 23.14) rotate(-9.12)" gradientUnits="userSpaceOnUse"><stop offset="0" stop-color="#ff519f"/><stop offset="1" stop-color="#d10038"/></linearGradient><linearGradient id="linear-gradient-36" x1="118.43" y1="127.31" x2="118.08" y2="51.62" xlink:href="#linear-gradient-22"/><linearGradient id="linear-gradient-37" x1="135.12" y1="41.97" x2="135.12" y2="31.56" xlink:href="#linear-gradient-23"/><linearGradient id="linear-gradient-38" x1="125.38" y1="45.67" x2="125.38" y2="5.19" xlink:href="#linear-gradient-8"/><linearGradient id="linear-gradient-39" x1="91.26" y1="12.97" x2="91.26" y2="-3.16" gradientTransform="translate(-22.21 23.14) rotate(-9.12)" gradientUnits="userSpaceOnUse"><stop offset="0" stop-color="#482bdb"/><stop offset=".48" stop-color="#4f39e9"/><stop offset="1" stop-color="#594fff"/></linearGradient><linearGradient id="linear-gradient-40" x1="85.96" y1="34.3" x2="85.96" y2="-12.95" gradientTransform="translate(-22.21 23.14) rotate(-9.12)" gradientUnits="userSpaceOnUse"><stop offset="0" stop-color="#8b33f2"/><stop offset=".26" stop-color="#7945f1"/><stop offset=".79" stop-color="#4d74f0"/><stop offset="1" stop-color="#3a89f0"/></linearGradient><linearGradient id="linear-gradient-41" x1="249.38" y1="869.04" x2="249.38" y2="853.29" gradientTransform="translate(297.28 915.63) rotate(-30.01) scale(1 -1)" gradientUnits="userSpaceOnUse"><stop offset="0" stop-color="#f27100"/><stop offset="1" stop-color="#ffbd00"/></linearGradient><linearGradient id="linear-gradient-42" x1="84.97" y1="46.86" x2="84.97" y2="35.04" gradientTransform="translate(-22.21 23.14) rotate(-9.12)" gradientUnits="userSpaceOnUse"><stop offset="0" stop-color="#d70a45"/><stop offset=".36" stop-color="#e32061"/><stop offset="1" stop-color="#ff519f"/></linearGradient><linearGradient id="_Áåçûìÿííûé_ãðàäèåíò_123-3" x1="85.2" y1="50.25" x2="85.2" y2="38.24" xlink:href="#_Áåçûìÿííûé_ãðàäèåíò_123"/><linearGradient id="linear-gradient-43" x1="96.35" y1="50.25" x2="96.35" y2="37.07" xlink:href="#linear-gradient-10"/><linearGradient id="linear-gradient-44" x1="258.02" y1="861.3" x2="258.02" y2="846" gradientTransform="translate(297.28 915.63) rotate(-30.01) scale(1 -1)" xlink:href="#linear-gradient-5"/><linearGradient id="linear-gradient-45" x1="272.87" y1="861.44" x2="272.87" y2="845.69" gradientTransform="translate(297.28 915.63) rotate(-30.01) scale(1 -1)" xlink:href="#linear-gradient-10"/></defs><g class="cls-43"><g id="Layer_2"><g id="Layer_1-2"><path class="cls-67" d="M147.48,186.17c-11-41.77,17.28-66.01,52.06-41.06l-14.04,5.95c-13.44-6.43-38.05-8.2-34.57,34.29.33.54-3.45.82-3.45.82Z"/><path class="cls-6" d="M156.44,140.55c-7.7,10.83-6.21,24.49-5.84,37.73h0c-.28-35.19,22.25-33.28,34.89-27.23l14.04-5.95c-17.34-12.44-33.06-12.65-43.1-4.56Z"/><path class="cls-37" d="M148.6,185.73c12.72-45.57,79.43-109.24,107.24-.63-9.39-2.79-32.07-8.09-32.07-8.09-3.16-35.27-25.98-75.14-71.66,8.16l-3.5.56Z"/><path class="cls-29" d="M223.77,177s22.68,5.31,32.07,8.09c-9.78-38.19-24.37-55.05-39.72-58.92-15.54-.57-32,14.89-38.88,22.3,29.04-30.53,44.02.45,46.53,28.53Z"/><path class="cls-47" d="M151.5,183.95c15.86-29.99,71.46-61.72,87.05,20.85l-20.91,9.8c-.35-19.62-25.68-82.7-58.91-28.95-3.09-.14-7.23-1.7-7.23-1.7Z"/><polygon class="cls-24" points="193.27 166.36 193.26 166.35 193.27 166.36 193.27 166.36"/><path class="cls-66" d="M152.57,184.32c1.43.47,4.03,1.24,6.16,1.33,11.37-18.4,22.05-23.14,31.11-20.63-11.82-3.8-24.19,1.45-37.26,19.3Z"/><g class="cls-19"><path class="cls-14" d="M152.57,184.32c1.43.47,4.03,1.24,6.16,1.33,11.37-18.4,22.05-23.14,31.11-20.63-11.82-3.8-24.19,1.45-37.26,19.3Z"/></g><path class="cls-24" d="M190.67,165.29c.07.02.14.04.2.07-.07-.02-.14-.04-.2-.07Z"/><path class="cls-39" d="M228.63,106.21c18.75.93,52.53,53.11,59.09,111.81-12.36-1.24-21.09-1.27-21.09-1.27-3.36-20.93-18.75-112.65-66.68-112.36,11.06.58,28.67,1.81,28.67,1.81Z"/><g class="cls-19"><path class="cls-14" d="M228.63,106.21c18.75.93,52.53,53.11,59.09,111.81-12.36-1.24-21.09-1.27-21.09-1.27-3.36-20.93-18.75-112.65-66.68-112.36,11.06.58,28.67,1.81,28.67,1.81Z"/></g><path class="cls-58" d="M228.63,106.21c-33.86,1.2-59.19,40.47-80.95,81.21,10.41-33.94,27.28-74.65,52.72-83.18l28.22,1.97Z"/><polygon class="cls-62" points="28.17 75.6 82.27 48.64 111.77 43.9 58.59 70.71 28.17 75.6"/><polygon class="cls-48" points="166.85 181.49 136.15 186.42 141.57 198.01 160.04 199.9 166.85 181.49"/><polygon class="cls-53" points="70.57 54.5 87.37 10.81 90.33 10.34 79.28 53.1 70.57 54.5"/><polygon class="cls-45" points="90.33 10.34 94.59 9.65 92.96 46.92 79.28 53.1 90.33 10.34"/><polygon class="cls-54" points="108.17 7.47 105.21 7.95 89.38 51.48 97.86 50.12 108.17 7.47"/><polygon class="cls-9" points="122.94 95.19 117.13 41.5 97.86 50.12 58.59 70.71 61.39 94.29 78.47 90.55 57.16 97.1 64.23 106.75 94.22 104.77 122.94 95.19"/><polygon class="cls-55" points="57.16 97.1 29.42 100.66 38.36 108.31 64.23 106.75 57.16 97.1"/><path class="cls-7" d="M109.45,73.33c-1.84,6.71-6.71,11.22-10.88,10.08s-6.06-7.51-4.22-14.22c1.84-6.71,6.71-11.22,10.88-10.08,4.17,1.14,6.06,7.51,4.22,14.22Z"/><path class="cls-70" d="M108.93,72.84c-1.71,6.26-6.26,10.46-10.16,9.4s-5.66-7-3.95-13.26c1.71-6.26,6.26-10.46,10.16-9.4,3.9,1.07,5.66,7,3.95,13.26Z"/><path class="cls-33" d="M105.23,59.11c-4.17-1.14-9.04,3.37-10.88,10.08-1.84,6.71.05,13.08,4.22,14.22,4.17,1.14,9.04-3.37,10.88-10.08,1.84-6.71-.05-13.08-4.22-14.22ZM108.62,72.75c-1.64,5.98-5.98,10-9.7,8.98-3.72-1.02-5.41-6.69-3.78-12.67,1.64-5.98,5.98-10,9.7-8.98,3.72,1.02,5.41,6.69,3.78,12.67Z"/><path class="cls-33" d="M103.1,71.58c-.7,2.57-2.57,4.3-4.16,3.86-1.6-.44-2.32-2.87-1.62-5.44.7-2.57,2.57-4.3,4.16-3.86,1.6.44,2.32,2.87,1.62,5.44Z"/><polygon class="cls-62" points="29.42 100.66 40.27 97.1 61.39 94.29 78.47 90.55 57.16 97.1 29.42 100.66"/><polygon class="cls-10" points="58.59 70.71 28.17 75.6 39.74 97.28 61.39 94.29 58.59 70.71"/><path class="cls-5" d="M45.35,84.72c1.47,3.6,1.18,7.13-.66,7.88-1.84.75-4.52-1.56-5.99-5.16-1.47-3.6-1.18-7.13.66-7.88,1.84-.75,4.52,1.56,5.99,5.16Z"/><path class="cls-30" d="M45.74,85.72c.94,3.16.54,6.07-.88,6.49-1.42.42-3.34-1.8-4.27-4.96s-.54-6.07.88-6.49c1.42-.42,3.34,1.8,4.27,4.96Z"/><path class="cls-5" d="M56.3,84.38c.23,3.88-1.18,7.13-3.16,7.25-1.98.12-3.77-2.93-4.01-6.82-.23-3.88,1.18-7.13,3.16-7.25,1.98-.12,3.77,2.93,4.01,6.82Z"/><ellipse class="cls-30" cx="53.5" cy="85.18" rx="2.84" ry="6.02" transform="translate(-5.01 3.36) rotate(-3.44)"/><polygon class="cls-2" points="130.55 267.46 155.75 304.45 163.19 303.25 152.93 255.28 130.55 267.46"/><polygon class="cls-49" points="130.55 267.46 155.75 304.45 147.03 305.85 116.46 270.7 130.55 267.46"/><g class="cls-18"><polygon class="cls-14" points="132.28 288.89 139.47 280.55 130.55 267.46 116.46 270.7 132.28 288.89"/></g><polygon class="cls-1" points="52.07 284 45.89 322.08 54.03 320.77 70.73 281 52.07 284"/><polygon class="cls-65" points="164.04 262.09 189.24 299.07 180.52 300.47 149.94 265.33 164.04 262.09"/><polygon class="cls-52" points="164.04 262.09 189.24 299.07 196.68 297.88 186.42 249.91 164.04 262.09"/><g class="cls-18"><polygon class="cls-14" points="162.6 279.68 170.1 270.98 164.04 262.09 149.94 265.33 162.6 279.68"/></g><polygon class="cls-71" points="106.38 272.41 121.22 309.99 130.06 308.57 129.02 267.82 106.38 272.41"/><polygon class="cls-56" points="86.67 278.67 111.45 311.56 121.22 309.99 106.87 273.64 86.67 278.67"/><polygon class="cls-51" points="33.95 286.79 35.2 323.8 45.89 322.08 52.07 284 33.95 286.79"/><g class="cls-18"><polygon class="cls-14" points="98.74 294.27 110.92 283.9 105.64 267.81 88.57 281.32 98.74 294.27"/></g><g class="cls-18"><polygon class="cls-14" points="34.58 305.35 50.62 291.14 51.45 280.16 33.99 285.34 34.58 305.35"/></g><polygon class="cls-60" points="19.14 261.82 26.12 273.67 21.9 294.47 30.44 295.06 31.76 287.14 32.49 294.17 40.47 293.48 42.51 285.53 43.68 295.96 52.28 296.25 59.22 282.73 59.78 290.01 71.88 288.15 72.94 279.67 75.78 291.48 83.76 289.75 85.19 278.56 88.33 284.85 102.11 282.88 103.87 277.74 105.67 286.01 113.98 284.67 116.46 270.7 103.93 255.95 19.14 261.82"/><polygon class="cls-41" points="195 255.54 187.81 245.98 188.99 226.21 179.36 225.51 103.93 255.95 116.46 270.7 131.5 280.59 135.38 279.38 134.85 268.68 142.36 273.46 150.73 270.23 147.95 264.78 154.88 273.26 162.28 270.94 159.97 264 164.25 267.86 171.83 265.31 171.28 258.58 180.44 266.16 186.52 262.42 182.03 252.8 190.63 259.73 195 255.54"/><polygon class="cls-57" points="12.85 245.28 22.04 255.69 12.11 276.22 20.27 278.29 24.48 272.02 22.34 280.26 31.87 279.2 35.33 269.92 35.92 281.37 45.04 281.19 51.52 266.26 50.13 276.96 60.7 275.35 64.85 265.81 64.34 278.09 71.13 278.91 80.46 265.72 87.08 272.09 96.57 270.92 97.36 263.69 103 272.82 110.73 270.75 110.77 262.05 103.05 240.14 12.85 245.28"/><polygon class="cls-68" points="190.3 214.08 178.88 208.18 140.13 220.59 103.05 240.14 110.77 262.05 117.36 268.03 123.58 263.92 122.37 257.46 133.22 266.46 138.53 263.57 134.07 251.82 140.67 256.48 149.72 253.07 146.21 245.02 154.33 252.51 158.36 251.06 157.57 241.6 166.19 250.61 169.78 247.57 167.71 238.55 173.55 244.95 177.26 242.32 175.74 236.91 181.93 244.14 186.32 241.07 183.53 234.75 188.92 240.12 194.3 238.99 190.81 228.72 190.3 214.08"/><polygon class="cls-42" points="12.41 222.11 8.74 244.55 3.44 253.75 12.54 256.65 17 250.73 14.17 263.85 22.5 263.34 31.59 249.23 31.89 265.24 41.26 264.47 49.83 248.68 51.54 260.92 58.29 259.96 65.55 248.71 64.95 260.91 73.97 259.58 81.26 248.23 79.52 259.52 93.08 258.4 100.68 243.81 100.46 222.53 12.41 222.11"/><polygon class="cls-8" points="190.7 210.36 189.35 201.91 166.85 181.49 160.04 199.9 143.13 196.4 100.46 222.53 100.68 243.81 112.94 253.09 117.93 250.98 111.28 238.44 117.62 245.33 127.55 241.8 123.44 233.05 134.28 240.78 142.4 237.15 136.76 228.19 149.51 237.56 156.47 234.75 152.95 222.64 163.95 230.22 169.36 228.52 166.81 218.52 170.95 225.32 178.25 224.38 177.17 216.74 180.65 225.61 186.31 226.01 186.39 217.39 190.19 224.83 196.84 224.94 190.7 210.36"/><path class="cls-25" d="M16.31,199.84l-1.53,3.19-5.7,22s-2.52,6.13-9.08,12.09c1.91,1.23,4.67,2.21,4.67,2.21l11.31-7.73-4.19,10.02,5.25.27,6.84-8.25-.32,8.34,6.83-.14,5.17-13.5-4.37,16.18,8.73-.17,10.96-14.34-1.69,10.1,10.68-1.6,4.55-9.73-1.44,12.42,8.33-1.22,4.1-10.6,2.11,14.6,6.22.28,3.75-16.34.16,15.72,7.86-4.1,3.67-13.25-4.75-29.66-78.1,3.2Z"/><polygon class="cls-12" points="191.42 203.78 166.85 181.49 160.04 199.9 143.13 196.4 134.46 180.43 133.06 173.91 94.41 196.64 99.16 226.3 108.09 237.48 112.76 235.02 109.79 225.07 115.64 228.62 121.15 225.74 118.75 218.54 125.09 228.52 130.97 225.42 127.39 217.03 135.78 225.43 138.61 224.23 131.08 209.81 137.21 218.85 139.75 218.02 138.65 210.49 143.17 219.42 148.95 217.9 147.23 208.64 156.13 217.63 160.2 216.14 160.06 205.99 167.43 213.58 171.81 212.39 167.78 197.29 172.48 207.43 178.28 208.86 177.2 197.72 180.27 208.96 185.54 211.94 186.35 205.2 189.1 213.94 196.33 218.02 191.42 203.78"/><polygon class="cls-3" points="30.46 176.49 15 197.94 3.13 214.25 15.69 215.79 22.8 206.95 18.2 220.37 24.27 220.53 33.8 206.2 32.55 220.75 43.74 219.14 48.81 207.51 48.53 215.87 57.83 215.77 61.82 206.53 60.84 221.49 70.74 221.75 73.88 209.79 74.02 217.89 81.19 218.29 84.59 209.94 90.35 222.98 99.41 219.75 96.78 206.64 94.97 178.03 30.46 176.49"/><polygon class="cls-50" points="143.29 188.13 134.46 180.43 128.92 154.63 94.97 178.03 96.78 206.64 104.54 219.24 109.07 215.61 104.51 204.25 110.18 210.09 113.89 206.03 110.75 200.41 119.89 206.92 121.59 205.56 116.21 194.56 126.7 200.22 131.19 198.67 124.67 188.26 134.26 195.38 136.4 193.66 131.85 185.83 139.38 191.27 143.29 188.13"/><path class="cls-22" d="M39.87,150.56l-14.83,26.55s-4.91,9.75-18.11,15.51c4.74.76,15.13,2.48,15.13,2.48l8.58-7.76-3.24,11.6,7.98-.28,8.27-12.81-2.37,7.72,12.07,1.95,6.71-12.92-4.6,18.4,10.34.02,7.94-15.91-3.79,11.9,8.91.24,6.49-11.26-2.05,11,7.88-.53,3.17-13.74-.6-31.22-53.88-.97Z"/><polygon class="cls-32" points="137.7 171.18 132.31 158.36 128.29 137.79 93.75 151.53 94.35 182.75 99.73 195.13 104.05 192.59 102.65 179.68 109.02 191.79 116.35 186.6 113.87 177.78 119.77 184.29 124.89 177.07 123.74 169.21 127.93 176.92 132.1 174.47 129.31 166.3 135.77 172.31 137.7 171.18"/><path class="cls-69" d="M52.12,129.11l-14.29,23.94s-5.05,7.32-15.32,10.8c1.75,1.32,9.12,6.11,9.12,6.11l12.38-11-3.69,10.38,5.95,1.65,11.08-9.15-1.86,9.09,8.86-.24,4.39-7.95-.74,10.23,8.6.89,4.3-8.67-.59,11.73,8.37,1.11,1.65-11.99,2.91-40.01-41.12,3.07Z"/><path class="cls-63" d="M128.35,130.8l-1.82-11.35-33.29,6.59-2.91,40.01,7,8.94,7.44-4.51-3.22-11.45,6.8,7.96,4.77-2.72-3.56-11.84,10.58,4.69,3.06-4.52-4.45-9.29,7.9,10.69,5.15-3.49-2.22-7.93,5.22,4.84s1.76-1.17,3.33-3.57c-7.63-4.41-9.78-13.06-9.78-13.06Z"/><path class="cls-44" d="M134.13,132.67c.68-1.76.86-2.31,1.47-4.6-6.38-.28-7.11-7.8-7.11-7.8l-5.59-26.24-32.42,11.35,2.48,33.87,6.52,10.81,6.18-3.58-2.45-12.55,5.31,7.53,9.85-2.08-.57-7.22,6.61,6.89,5.39-2.19-4.12-7.98s4.72,4.17,8.46,3.78Z"/><polygon class="cls-38" points="60.92 107.44 45.54 133.32 31.99 146.27 43.27 147.21 48.8 141.82 45.76 150.67 53.11 150.8 63.44 136.27 58.96 146.9 67.44 146.74 73.66 138.9 74.81 151.19 80.96 151.3 83.32 136.4 84.67 147.72 90.63 147.83 92.96 139.25 90.47 105.38 60.92 107.44"/><polygon class="cls-31" points="60.79 106.82 56.11 115.14 44.15 124.67 53.1 125.8 58.49 120.62 56.89 125.08 61.63 125.68 68.2 119.65 66.55 127.51 75.36 128.62 77.3 122.13 77.82 126.82 83.76 127.57 86.41 120.99 87 130.1 91.37 130.65 91.78 124.42 90.48 104.77 60.79 106.82"/><polygon class="cls-59" points="134.19 112.64 126.7 107.5 122.73 93.24 90.48 104.77 91.78 124.42 94.53 129.98 100.59 127.61 99.14 121.56 103.76 126.37 110.34 123.8 107.95 116.54 113.75 120.27 118.93 117.9 118.04 112.81 124.71 118.18 128.92 116.53 125.1 110.19 130.87 115.77 134.19 112.64"/><polygon class="cls-21" points="114.62 33.84 118.07 33.78 116.24 40.06 114.62 33.84"/><polygon class="cls-40" points="97.86 50.12 117.13 41.5 113.37 6.64 108.17 7.47 97.86 50.12"/><polygon class="cls-20" points="35.2 323.8 35.05 319.46 56 316.1 54.03 320.77 35.2 323.8"/><polygon class="cls-20" points="111.45 311.56 108.52 307.67 129.95 304.23 130.06 308.57 111.45 311.56"/><polygon class="cls-20" points="147.03 305.85 143.7 302.02 162.29 299.03 163.19 303.25 147.03 305.85"/><polygon class="cls-20" points="180.52 300.47 177.19 296.64 195.78 293.66 196.68 297.88 180.52 300.47"/><polygon class="cls-13" points="56.11 115.14 90.94 111.72 90.48 104.77 60.79 106.82 56.11 115.14"/><polygon class="cls-13" points="106.84 113.15 110.34 123.8 103.76 126.37 95.74 118.04 106.84 113.15"/><polygon class="cls-13" points="74.81 151.19 73.32 135.34 83.76 133.66 80.96 151.3 74.81 151.19"/><polygon class="cls-13" points="113.89 206.03 108.93 197.14 101.06 200.71 110.18 210.09 113.89 206.03"/><polygon class="cls-15" points="123.2 152.6 117.61 140.92 107.37 151.45 120.14 157.12 123.2 152.6"/><polygon class="cls-13" points="24.08 228.49 36.49 225.92 30.4 241.85 23.56 241.98 24.08 228.49"/><polygon class="cls-16" points="165.24 215.94 176.8 214.08 178.25 224.38 170.95 225.32 165.24 215.94"/><polygon class="cls-16" points="134.07 251.82 146.21 245.02 149.72 253.07 140.67 256.48 134.07 251.82"/><polygon class="cls-16" points="80.46 265.72 97.36 263.69 96.57 270.92 87.08 272.09 80.46 265.72"/><polygon class="cls-17" points="45.55 179.78 62.21 178.52 53.38 195.55 41.31 193.59 45.55 179.78"/><polygon class="cls-13" points="59.22 282.73 72.94 279.67 71.88 288.15 59.78 290.01 59.22 282.73"/><polygon class="cls-15" points="110.02 91.71 108.82 84.22 114.69 81.89 117.22 84.33 115.26 65.7 119.45 63.96 121.95 86.11 110.02 91.71"/><polygon class="cls-15" points="65.19 67.38 66.26 74.04 70.1 71.72 69.08 65.42 65.12 65.82 61.02 67.78 65.19 67.38"/><polygon class="cls-27" points="58.49 120.62 68.2 119.65 61.63 125.68 56.89 125.08 58.49 120.62"/><polygon class="cls-28" points="43.27 147.21 56.95 133.88 45.54 133.32 31.99 146.27 43.27 147.21"/><polygon class="cls-28" points="117.79 132.17 125.67 128.89 129.79 136.87 124.4 139.06 117.79 132.17"/><polygon class="cls-27" points="101.55 159.03 109.56 152.43 113.12 164.26 108.35 166.99 101.55 159.03"/><polygon class="cls-27" points="27.42 198.95 32.17 181.92 43.68 185.87 35.4 198.68 27.42 198.95"/><polygon class="cls-27" points="102.65 179.68 113.87 177.78 116.35 186.6 109.02 191.79 102.65 179.68"/><polygon class="cls-27" points="33.8 206.2 48.81 207.51 43.74 219.14 32.55 220.75 33.8 206.2"/><polygon class="cls-27" points="73.88 209.79 61.82 206.53 60.84 221.49 70.74 221.75 73.88 209.79"/><polygon class="cls-27" points="131.85 185.83 134.46 180.43 143.29 188.13 139.38 191.27 131.85 185.83"/><polygon class="cls-28" points="35.56 228.35 50.88 230.02 39.92 244.36 31.19 244.53 35.56 228.35"/><polygon class="cls-28" points="147.23 208.64 160.06 205.99 160.2 216.14 156.13 217.63 147.23 208.64"/><polygon class="cls-27" points="157.57 241.6 167.71 238.55 169.78 247.57 166.19 250.61 157.57 241.6"/><polygon class="cls-27" points="64.95 260.91 73.97 259.58 81.26 248.23 65.55 248.71 64.95 260.91"/><polygon class="cls-27" points="35.36 270.47 51.52 266.26 45.04 281.19 35.92 281.37 35.36 270.47"/><polygon class="cls-27" points="136.76 228.19 152.95 222.64 156.47 234.75 149.51 237.56 136.76 228.19"/><polygon class="cls-27" points="182.03 252.8 187.81 245.98 195 255.54 190.63 259.73 182.03 252.8"/><polygon class="cls-27" points="116.46 270.7 134.85 268.68 135.38 279.38 131.5 280.59 116.46 270.7"/><polygon class="cls-15" points="67.48 21.39 65.42 12.76 68.58 13.83 71.26 21.18 67.48 21.39"/><polygon class="cls-23" points="63.46 4.24 65.12 .24 66.31 .53 65 4.56 75.63 33.73 71.91 39.87 63.46 4.24"/><polygon class="cls-11" points="62.94 38.94 59.59 4.86 56.92 1.26 59.78 .05 61.49 4.29 60.87 0 63.76 .07 63.63 4.86 72.17 41.15 62.94 38.94"/><polygon class="cls-64" points="92.76 44.23 93.87 39.53 92.07 39.94 89.53 45.68 89.12 41.12 84.61 41.89 84 47.19 82.22 43.44 78.67 44.09 75.17 51.54 73.9 55.51 93.19 46.88 92.76 44.23"/><polygon class="cls-4" points="64.59 55.46 61.49 30.5 57.23 24.01 61.71 21.2 65.55 28.31 64.43 20.44 68.91 19.54 68.84 26.97 75.69 54.89 64.59 55.46"/><polygon class="cls-66" points="68.82 26.94 70.78 22 75.05 20.6 73.9 24.98 75.32 22.29 78.07 21.85 73.96 27.59 81.7 50.68 75.6 54.31 68.82 26.94"/><polygon class="cls-34" points="65.57 59.46 61.16 48.49 66.93 47.56 69.86 54.76 69.93 47.08 74.86 46.85 75.5 53.71 76.68 58.16 65.57 59.46"/><polygon class="cls-35" points="76.68 58.16 75.5 53.71 76.33 48.05 79.35 46.96 79.99 50.94 80.63 44.98 83.45 43.73 82.39 52.6 83.08 54.53 76.68 58.16"/><polygon class="cls-28" points="40.31 169.34 44 158.97 57.34 161.85 46.26 170.99 40.31 169.34"/><polygon class="cls-13" points="75.32 22.29 72.47 27.68 73.96 27.59 78.07 21.85 75.32 22.29"/><polygon class="cls-26" points="67.92 38.85 62.81 41.16 61.82 33.16 64.08 31.75 67.92 38.85"/><polygon class="cls-15" points="61.49 4.29 59.59 4.86 56.92 1.26 59.78 .05 61.49 4.29"/><polygon class="cls-36" points="96.94 40.32 92.72 40.64 92.08 47.76 90.79 41.98 88.11 42.36 88.96 51.55 97.86 50.12 98.99 46.56 96.94 40.32"/><polygon class="cls-61" points="116.2 35.68 115.05 39.84 114.53 35.51 112.73 35.92 112.24 40.79 111.01 36.46 107.71 36.57 106.26 42.7 105.52 38.08 102.5 39.1 98.99 46.56 97.86 50.12 117.01 41.9 118.89 35.76 116.2 35.68"/><polygon class="cls-17" points="115.38 42.6 114.53 35.51 112.73 35.92 111.91 44.09 115.38 42.6"/><polygon class="cls-46" points="54.87 62.17 81.26 58.83 86.98 106.46 82.09 106.24 75.3 62.11 47.51 65.84 54.87 62.17"/><polygon class="cls-46" points="86.98 106.46 123.49 95.03 122.93 85.65 85.13 103.4 86.98 106.46"/><polygon class="cls-16" points="114.67 18.73 109.96 19.49 109.03 26.1 115.36 25.08 114.67 18.73"/><polygon class="cls-16" points="85.41 29.39 93.8 27.74 93.53 33.98 83.82 35.54 85.41 29.39"/></g></g></g></svg>