<?xml version="1.0" encoding="UTF-8"?><svg xmlns="http://www.w3.org/2000/svg" xmlns:xlink="http://www.w3.org/1999/xlink" viewBox="0 0 153.68 155.48"><defs><style>.cls-1{fill:url(#linear-gradient-2);}.cls-2{fill:#e82e60;opacity:.35;}.cls-2,.cls-3,.cls-4{mix-blend-mode:multiply;}.cls-5{fill:url(#linear-gradient-4);}.cls-6,.cls-7{opacity:.5;}.cls-6,.cls-7,.cls-8{fill:#ff83ff;}.cls-6,.cls-8,.cls-9{mix-blend-mode:screen;}.cls-10{fill:url(#radial-gradient);}.cls-11{fill:url(#linear-gradient-3);}.cls-12{fill:url(#linear-gradient-5);}.cls-13{fill:#a6ff0b;}.cls-14{isolation:isolate;}.cls-15{fill:url(#linear-gradient-8);}.cls-3{opacity:.3;}.cls-3,.cls-4{fill:#c52dea;}.cls-8,.cls-9{opacity:.25;}.cls-16{fill:#fb499c;}.cls-17{fill:url(#linear-gradient-7);}.cls-18{fill:url(#linear-gradient-6);}.cls-4{opacity:.55;}.cls-19{fill:#fcae00;}.cls-9{fill:#f9ff80;}.cls-20{fill:#ffcffc;}.cls-21{fill:url(#linear-gradient);}.cls-22{fill:#fff400;}.cls-23{fill:#72ffff;}</style><linearGradient id="linear-gradient" x1="80.8" y1="86.79" x2="62.21" y2="66.62" gradientUnits="userSpaceOnUse"><stop offset=".23" stop-color="#ff5b00"/><stop offset="1" stop-color="#fb9000"/></linearGradient><linearGradient id="linear-gradient-2" x1="76.57" y1="58.9" x2="105.91" y2="131.81" gradientUnits="userSpaceOnUse"><stop offset="0" stop-color="#ffcd00"/><stop offset=".61" stop-color="#ff9a00"/></linearGradient><linearGradient id="linear-gradient-3" x1="78.96" y1="151.54" x2="68.49" y2="3.52" gradientUnits="userSpaceOnUse"><stop offset="0" stop-color="#9a09de"/><stop offset="1" stop-color="#dc23e6"/></linearGradient><linearGradient id="linear-gradient-4" x1="89.03" y1="145.28" x2="50" y2="10.78" gradientUnits="userSpaceOnUse"><stop offset="0" stop-color="#a509f0"/><stop offset="1" stop-color="#e82ff2"/></linearGradient><linearGradient id="linear-gradient-5" x1="80.37" y1="133.47" x2="55.51" y2="17.87" gradientUnits="userSpaceOnUse"><stop offset="0" stop-color="#b821ff"/><stop offset="1" stop-color="#f431ff"/></linearGradient><linearGradient id="linear-gradient-6" x1="74.72" y1="123.61" x2="60.79" y2="25.59" gradientUnits="userSpaceOnUse"><stop offset="0" stop-color="#d117ff"/><stop offset="1" stop-color="#ff5efc"/></linearGradient><linearGradient id="linear-gradient-7" x1="50.04" y1="72.77" x2="81.78" y2="72.77" xlink:href="#linear-gradient-4"/><linearGradient id="linear-gradient-8" x1="69.02" y1="109.85" x2="63.71" y2="34.75" gradientUnits="userSpaceOnUse"><stop offset="0" stop-color="#fb17ff"/><stop offset="1" stop-color="#ff85f5"/></linearGradient><radialGradient id="radial-gradient" cx="62.52" cy="69.68" fx="62.52" fy="69.68" r="28.25" gradientUnits="userSpaceOnUse"><stop offset="0" stop-color="#b009ff"/><stop offset="1" stop-color="#e82aff"/></radialGradient></defs><g class="cls-14"><g id="Layer_2"><g id="Layer_1-2"><path class="cls-21" d="M58.33,90.72c3.01,1.71,6.38,2.3,9.71,1.95-.89-1.92-2.77-6.22-2.77-6.22l.64-7.58,2.86-6.68,5.27-4.99,5.41-3.56s3.5-.42,5.42-.62c-1.41-3.05-3.64-5.63-6.65-7.34-8.5-4.83-19.85-.9-25.34,8.78-5.49,9.68-3.05,21.43,5.45,26.26Z"/><path class="cls-1" d="M112.71,10.75c-1.14-.65-2.3-1.24-3.46-1.81,29.46,19.37,25.23,57.47,6.67,93.59-12.96,25.22-46.29,34.42-81.8,38.78,1.08.71,2.18,1.4,3.33,2.05,44.36,25.18,84.69,8.82,105.47-27.81,20.78-36.62,11.86-80.93-30.21-104.81Z"/><polygon class="cls-2" points="139.78 82.62 145.98 88.16 142.94 96.34 134.11 94.1 139.78 82.62"/><polygon class="cls-2" points="129.1 106.23 136.75 113.22 132.53 119.55 123.3 113.88 129.1 106.23"/><polygon class="cls-2" points="134.08 47.47 143.7 47.35 145.19 54.86 134.99 59 134.08 47.47"/><path class="cls-11" d="M138.46,37.52l-7.12-1.32,4.22-1.98-3.26-6.5-4.52-.16,2.84-2.15-7.99-8.33-11.87-8.14-10.05-4.67-15.07-2.41-21.76.59-19.98,7.52-15.24,12.24-15.42,19.6L3.06,60.4l-1.28,26.31,2.57,17.01,6.53,10.88,7.32,10.48,9.49,9.1,7.32,7.91,12.12,5.02,2.52-3.73.81,4.71,16.79,2.69,1.98-5.23,1.97,5.45,7.7-1.07-.07-6.65,3.44,6.18,6.93-.96-.77-6.71,4.4,5.62,8.6-4.26-1.33-5.81,4.54,4.22,5.75-2.85-2.67-5.63,5.94,3.27,5.93-5.54-1.98-5.34,4.34,3.14,4.19-3.91-4.01-6.61,6.86,2.24,3.16-5.14-3.69-5.8,6.85.82,2.74-7.23-4.85-2.69,5.62.64,2.19-5.77-4.12-5.16,6.07-.92.79-6.73-4.88-3.96,5.79-2.28.23-7.12-4.84-1.88,4.92-.59.18-5.64-5.3-.89,4.83-2.07-2.1-6.88-6.88-1.54,6.07-2.77-3.3-9.23ZM83.68,81.94c-5.49,9.68-16.84,13.61-25.34,8.78-8.5-4.83-10.95-16.58-5.45-26.26,5.49-9.68,16.84-13.61,25.34-8.78s10.95,16.58,5.45,26.26Z"/><path class="cls-2" d="M60.79,125.48l-34.81-31.38-22.77,2.07,1.14,7.56,6.53,10.88,7.32,10.48,9.49,9.1,6.58,7.11c-.05,0-.1.01-.15.02.14.09.28.18.42.27l.48.52.99.41c.47.29.95.58,1.44.85,43.09,24.46,82.37,9.72,103.64-24.71-13.03,15.12-44.2,20.88-80.29,6.83Z"/><path class="cls-5" d="M136.26,52.95l-10.26.66,8.36-7.87-2.1-5.34-9.43,1.4,6.77-8.17-3.41-5.28-8.9,2.56,5.75-7.91-3.43-3.5-6.34,3.5,2.52-7.39-5.29-5.4-3.43,5.14.64-7.03-6.48-2.45-5.63,7.9,1.01-9.65-6.77-2.56-5.21,7.6-3.33-9.17-6.13.46-1.61,13.43-3.96-13.01-6.06.45-1.05,10.65-2.59-6.52-7.52,2.65,1.82,10.68-6.1-12.32-7.13,2.87,3.22,12.27-4.95-6.44-5.26,2.01,1.75,7.55-5-5.95-4.28,4.86,3.17,8.21-7.29-8.06-4.7,6.53,3.88,9.57-6.69-3.29-3.16,5.01,3.49,6.2-7.64-2.19-1.78,5.43,9.08,6.23-11.26.43-2.1,6.42,6.19,6.63-7.65,1.44.3,7.11,9.85,3.18-9.63,2,.23,5.27,11.25.78-11.09,2.92.18,4.22,8.67-.41-7.49,4.81,2.68,5.58,10.39-1.52-8.91,4.61,4.45,7.04,10.68-.59-6.92,8.35,5.56,4.67,4.32-3.39-1.51,5.76,7.73,6.5,4.32-6.19-.96,8.05,9.32,2.42,4.49-11.86-1.07,9.55,9.92,2.21,3.36-7.48.79,8.51,8.45,1.19,3.81-10.49,2.97,8.51,4.98-.2,2.1-14.41,7.77,10.24,6.19-3.62-2.52-7.11,6.33,4.88,4.65-2.71-2.68-8.23,5.67,5.42,6.35-7.61-6.6-6.91,9.49,3.44,7.45-8.93-7.31-3.87,9.45-.1,3.14-8.53-6.53-3.9,8.35-1.04,3.26-8.85-9.63-2.13,10.2-1.56v-10.68l-8.75-1.58,8.75-2.58v-9.95ZM83.68,81.94c-3.78,6.65-10.32,10.59-16.8,10.83,0,0-.02,0-.03,0-2.94.11-5.86-.55-8.51-2.05-2.01-1.14-3.66-2.67-4.97-4.47-.21-.29-.41-.58-.6-.89-3.35-5.27-3.82-12.5-.82-19.07.28-.62.59-1.23.94-1.84.58-1.02,1.23-1.96,1.93-2.84.55-.69,1.11-1.36,1.72-1.97,6-6.03,14.78-7.89,21.69-3.96,1.06.6,2.03,1.31,2.9,2.12,1.74,1.6,3.09,3.57,4.01,5.76.69,1.64,1.15,3.41,1.35,5.24.43,3.86-.27,8.01-2.18,11.9-.2.42-.4.83-.63,1.24Z"/><path class="cls-12" d="M125.48,67.91l-9.7-1.64,8.92-2.43-.39-7.77-7.02-.11,5.88-5.11-4.09-7.43-5.04,2.5,4.41-6.13-2.29-4.45-9.37,1.8,6.74-7.16-2.88-2.93-6.74,1.52.79-8.97-5.93-2.9-8.32,5.17.28-6.43-5.27-1.91-3.92,4.81-3.18-7.24-5.19.24-1.57,11.15-1.83-4.75-1.57-4.88-4.77-.11-1.37,7.59-2.51-4.74-5.86,2.43,1.53,8.9-5.08-9.27-6.6,3.11,2.24,7.92-4.94-5.55-4.05,2.37,3.28,8.88-5.02-4.69-3.82,3.41,1.47,6.11-5.76-6.6-3.05,4.3,3.39,7.98-4.67-1.9-2.09,4.21,1.98,4.51-6.42-1.8-1.46,4.59,8.4,6.7-10.49.82-1.45,6.2,4.91,3.02-4.25,1.94-.07,5.82,5.96,2.21-7.34.19-.5,5.55,10.37,1.26-7.67,6.79,1.1,5.92,13.04.56-9.7,3.54,2.78,5.62,8.03.09-4.59,6.87,4.7,3.3,6.31-3.89-3.38,5.26-.03.11,5.69,5.65,4.05-7.2-1.16,9.47,7.66,1.99,3.98-9.67-.41,6.81,7.52,2.44,2-8.17,1.35,7.43,7.68-.67,2.99-4.79,2.55,5.78,3.92-.29,1.35-9.8,7.62,7.27,9.39-5.46-3.96-9.6,6.59,6.59,4.35-5.54-2.77-10.15,8.6,4.51,4.95-4.11-4.13-5.93,7.51.77,4.04-4.73-5.73-6.73,5.97-1.19,1.74-6.94-7.08-1.87,8.45-1.42.02-8.96ZM83.68,81.94c-5.49,9.68-16.84,13.61-25.34,8.78-8.5-4.83-10.95-16.58-5.45-26.26,5.49-9.68,16.84-13.61,25.34-8.78s10.95,16.58,5.45,26.26Z"/><path class="cls-18" d="M115.45,70.69l-5.1-4.27,4.8-2.82-1.01-4-5.57-1.29,4.44-5.7-1.29-3.63-6.49,1.05,3.49-4.72-2.04-3.69-4.24.55,1.58-5.24-2.33-2.36-4.2,2.68-1.87-8.82-4.62-3.03-5.7,4.54-.45-3.2-3.77-1.25-2.63,2.03-3.03-5.31-4.25.03-1.53,8.86-2.83-6.25-3.48-.68-1.66,8.15-2.46-6.58-4.2,2.21,1.25,7.13-4.05-6.21-4.61.65-.19,6.27-4.4-2.34-4.76,2.84.22,7.79-5.27-4.88-3.04,4.36,2.91,6.38-4.37-.83-1.02,2.63,4.92,5.45-7.94-2.91-1.14,3.75,4.54,5.89-8.37,2.11-.4,3.16,5.8,1.71-4.62,3.82-.2,4.09,4.85,1.22-3.42,1.66.86,2.99,5.78,1.29-7.35,3.92,1.32,2.24,3.25-.22-2.68,2.89,2.29,2.73,6.82-.86-4.13,4.3,2.03,3.96,5.34-1.12-3.56,5.95,3.83,1.93,4.08-3.99-1.56,6.58,4.12,2.81,4.1-3.46-1.69,6.13,6,1.55,3.47-7.48,2.17,7.58,8.97,2.11,5.03-8.23,2.95,4.2,2.87-.37,2.14-7.99,4.15,7.65,4.81-.92-.32-6.48,2.99,1.19,2.55-1.65-1.06-5.65,4.74,5.61,3.1-2.45-1.39-7.41,4.03,2.21,3.36-4.88-1.99-4.21,6.21-.1,2.14-5.65-2.79-3.1,4.21-.12.65-4.29-4.9-3.7,6.03-.45.79-6ZM83.68,81.94c-5.49,9.68-16.84,13.61-25.34,8.78-8.5-4.83-10.95-16.58-5.45-26.26,5.49-9.68,16.84-13.61,25.34-8.78s10.95,16.58,5.45,26.26Z"/><polygon class="cls-17" points="81.78 60.85 76.85 61 74.13 57.98 73.37 61.16 71.06 61.89 68.69 58.47 69.38 62.68 67.85 63.37 64.14 59.56 65.91 65.6 63.63 67.31 58.7 64.66 61.19 68.54 58.67 72.18 54.54 71.73 59.24 74.69 58.95 76.68 54.59 78.06 58.65 79.79 58.7 82.36 56.47 84.14 60.06 85.75 61.22 88.33 59.81 89.18 63.15 89.29 65.2 91.23 60.97 91.71 52.12 83.99 50.04 77.12 50.39 67.28 55.34 59.41 64.09 54.17 73.43 53.83 81.4 59.51 81.78 60.85"/><path class="cls-2" d="M84.87,63.01c-1.41-3.05-3.64-5.63-6.65-7.34-4.77-2.7-10.42-2.66-15.44-.39l11.27,11.91,5.41-3.56s3.5-.42,5.42-.62Z"/><path class="cls-15" d="M103.91,69.6l-9.21-3.95,6.77-6.47-1.62-5.35-9.54-1.68,5.79-7.12-2.19-3.36-8.05,3.81,1.43-7.86-4.25-.79-5.04,5.44-3.27-8.82-4.84.16-3.07,9.3-4.25-6.82-4.45,1.53.1,6.16-7.12-4.16-4.25,2.44,1.33,8.46-9.62-3.15-2.34,3.74,5.24,8.6-8.8-.89-1.17,5.62,6.52,4.71-9.31,3.79,1.74,5.56,9.15.79-8.06,6.67,3.75,6.49,7.13-.55-3.21,7.22,2.37,2.57,9.49-4.1-2.18,8.51,4.3,2.77,7.62-6.33,4.84,7,4.16-.77,3.02-8.95,7.77,7.97,3.13-1.44-1.92-10.19,8.27,2.52,4.65-4.25-3.56-9.84,9.3.25,1.98-4.5-8.52-4.94,9.97-.26.05-5.53ZM83.68,81.94c-5.49,9.68-16.84,13.61-25.34,8.78-8.5-4.83-10.95-16.58-5.45-26.26,5.49-9.68,16.84-13.61,25.34-8.78s10.95,16.58,5.45,26.26Z"/><path class="cls-10" d="M93.66,78.21l-5.63-2.43,5.04-1.53.11-6.9-5.55-1.21,4.65-4.15-1.09-4.45-6.55,1.29,2.94-5.43-3.83-3.8-3.64,3.29.54-7.52-4.11-1.95-4.24,7.19-.08-5.74-5.09-.86-2.26,6.65-2.77-5.58-4.81,1.24,1.28,6.69-5.77-4.37-3.19,1.86,2.5,8.33-8.11-4.25-1.61,1.82,4.68,7.68-5.34-1.16-1.09,4.43,4.79,4.86-7.21,1.01v3.5l7.79,3.69-5.72,4.08,1.54,3.14,8.11-.49-5.04,3.07,3.74,3.78,5.29-2.05-.83,6,4.36,1.57,4.15-5.24.59,6.43,4.89.3,3.52-6.43,2.5,4.17,6.08-2.07-.82-5.77,4.96,3.11,3.77-5.33-3.11-4.41,7.08.22,2.57-6.23ZM82.5,81.27l-5.61,6.39-5.65,2.88-6.05.7-6.1-1.86-6.02-6.47-1.58-5.32.17-5.94,2.38-6.51,3.52-4.6,6.15-4.1,7.97-1.24,9.86,5.3,2.47,4.29,1.17,6.53-2.71,9.95Z"/><polygon class="cls-9" points="47.38 35.78 56.24 35.08 52.18 28.86 47.57 29.51 47.38 35.78"/><polygon class="cls-9" points="69.62 31.1 80.41 31.33 75.41 22.21 71.16 22.24 69.62 31.1"/><polygon class="cls-9" points="101.68 34.56 95.54 38.25 101.87 43.69 104.02 36.92 101.68 34.56"/><polygon class="cls-9" points="63.43 12.75 62.06 20.34 71.01 21.24 68.2 12.86 63.43 12.75"/><path class="cls-9" d="M48.16,50.51l-1.33-8.46,4.25-2.44s7.46,3.95,7.12,4.16c-.34.22-10.04,6.74-10.04,6.74Z"/><polygon class="cls-9" points="94.7 65.64 103.91 69.6 103.86 75.12 93.9 75.39 94.7 65.64"/><polygon class="cls-6" points="53.94 91.9 61.62 94.23 57.46 99.47 53.11 97.9 53.94 91.9"/><polygon class="cls-6" points="35.21 103.79 31.65 109.74 35.48 111.67 39.56 107.68 35.21 103.79"/><polygon class="cls-6" points="49.94 87.11 41.84 87.6 40.3 84.46 46.02 80.38 49.94 87.11"/><polygon class="cls-7" points="95.6 99.5 101.74 103.19 105.1 98.32 101.8 91.33 95.6 99.5"/><polygon class="cls-7" points="90.44 21.86 103.91 28.56 104.7 19.59 98.77 16.69 90.44 21.86"/><path class="cls-8" d="M40.48,120.86s10.67.93,10.48,1.78c-.19.85-3.98,9.67-3.98,9.67l-7.66-1.99,1.16-9.47Z"/><polygon class="cls-8" points="78.13 111.11 86.77 111.35 87.1 117.83 82.29 118.75 78.13 111.11"/><polygon class="cls-4" points="94.68 128.38 102.97 122.32 105.66 130.55 101.01 133.26 94.68 128.38"/><polygon class="cls-4" points="108.4 113.22 118.19 104.22 125.33 107.73 117.88 116.66 108.4 113.22"/><polygon class="cls-3" points="110.56 98.98 116.38 88.29 122.11 95.02 118.07 99.75 110.56 98.98"/><polygon class="cls-4" points="27.73 110.76 34.15 117.04 27.84 120.93 23.14 117.63 27.73 110.76"/><polygon class="cls-4" points="127.52 65.48 126 53.61 136.26 52.95 136.26 62.9 127.52 65.48"/><polygon class="cls-4" points="122.84 41.81 129.61 33.64 126.2 28.36 117.3 30.92 122.84 41.81"/><polygon class="cls-4" points="106.79 37.13 116.16 35.33 118.45 39.78 114.03 45.92 106.79 37.13"/><path class="cls-2" d="M68.77,72.18l-3.36-2.49s-1.98,3.03-1.85,3.56c.13.53,2.35,5.6,2.35,5.6l2.86-6.68Z"/><polygon class="cls-23" points="93.78 27.74 100.29 36.72 96.62 40.37 91.28 29.29 93.78 27.74"/><polygon class="cls-23" points="91.19 90.27 93.96 86.12 104.64 92.25 100.48 95.61 91.19 90.27"/><polygon class="cls-23" points="39.36 87.5 29.87 90.47 32.64 94.43 40.55 89.88 39.36 87.5"/><polygon class="cls-23" points="41.49 27.26 45.89 36.44 49.35 34.87 45.76 25.53 41.49 27.26"/><polygon class="cls-16" points="125.28 61.76 132.37 48.57 137.32 54.35 127.69 63.82 125.28 61.76"/><polygon class="cls-16" points="57.82 137.57 52.2 125.69 56.67 123.48 60.74 136.35 57.82 137.57"/><polygon class="cls-20" points="52.13 105.92 42 114.22 46.31 117.31 55.58 107.2 52.13 105.92"/><polygon class="cls-20" points="35.87 64.12 24.25 62.37 24.28 66.59 36.67 66.22 35.87 64.12"/><polygon class="cls-22" points="67.65 23.15 68.04 26.71 79.71 23.94 78.13 20.18 67.65 23.15"/><polygon class="cls-20" points="99.03 61.92 99.43 65.48 111.1 62.71 109.52 58.95 99.03 61.92"/><polygon class="cls-22" points="15.23 73.66 15.03 77.02 24.53 75.83 24.73 73.06 15.23 73.66"/><polygon class="cls-22" points="117.61 76.94 125.04 88.05 122.12 89.82 115.04 78.41 117.61 76.94"/><polygon class="cls-22" points="66.86 105.7 70.02 104.51 71.01 113.41 67.85 114.21 66.86 105.7"/><polygon class="cls-13" points="93.96 105.11 90.4 116.78 93.36 117.96 97.12 106.49 93.96 105.11"/><polygon class="cls-19" points="25.12 108.86 37.19 104.12 37.78 107.08 25.32 112.43 25.12 108.86"/><polygon class="cls-19" points="22.73 44.2 36.09 47.84 37.05 44.6 24.21 39.62 22.73 44.2"/><polygon class="cls-19" points="103.05 49 105.43 51.17 115.71 45.04 114.13 41.48 103.05 49"/><polygon class="cls-19" points="73.38 117.37 69.43 129.04 72.59 129.63 76.35 118.36 73.38 117.37"/><polygon class="cls-13" points="84.07 33.7 83.47 36.57 86.54 38.74 89.21 37.85 89.6 34.49 87.43 32.51 84.07 33.7"/><polygon class="cls-13" points="57.76 110.64 57.16 113.51 60.23 115.69 62.9 114.8 63.3 111.44 61.12 109.46 57.76 110.64"/><polygon class="cls-13" points="114.13 88.1 113.54 90.96 116.6 93.14 119.27 92.25 119.67 88.89 117.49 86.91 114.13 88.1"/><polygon class="cls-13" points="25.52 54.47 24.92 57.34 27.99 59.51 30.66 58.62 31.05 55.26 28.88 53.28 25.52 54.47"/><polygon class="cls-22" points="18.59 89.68 18 92.55 21.07 94.72 23.74 93.83 24.13 90.47 21.96 88.49 18.59 89.68"/><polygon class="cls-22" points="60.33 34.49 59.74 37.36 62.8 39.53 65.47 38.64 65.87 35.28 63.69 33.3 60.33 34.49"/><polygon class="cls-19" points="89.08 13.92 88.48 16.79 91.55 18.96 94.22 18.07 94.62 14.71 92.44 12.73 89.08 13.92"/><polygon class="cls-19" points="110.7 104.64 110.11 107.51 113.18 109.69 115.85 108.8 116.24 105.44 114.07 103.46 110.7 104.64"/></g></g></g></svg>