<?xml version="1.0" encoding="UTF-8"?><svg xmlns="http://www.w3.org/2000/svg" xmlns:xlink="http://www.w3.org/1999/xlink" viewBox="0 0 186.23 162.64"><defs><style>.cls-1{fill:url(#linear-gradient-2);}.cls-2,.cls-3,.cls-4{opacity:.2;}.cls-2,.cls-5,.cls-6{fill:#f9ff80;mix-blend-mode:soft-light;}.cls-3{fill:url(#linear-gradient-10);}.cls-3,.cls-7,.cls-8,.cls-9,.cls-4,.cls-10,.cls-11{mix-blend-mode:multiply;}.cls-12{fill:url(#linear-gradient-12);}.cls-7{opacity:.35;}.cls-7,.cls-4{fill:#e82e60;}.cls-13{fill:url(#linear-gradient-4);}.cls-14{fill:url(#radial-gradient);}.cls-8{opacity:.75;}.cls-8,.cls-9,.cls-10{fill:#c52dea;}.cls-15{fill:url(#linear-gradient-3);}.cls-16{fill:url(#linear-gradient-5);}.cls-17{isolation:isolate;}.cls-18{fill:url(#linear-gradient-8);}.cls-9,.cls-11{opacity:.15;}.cls-19{fill:url(#linear-gradient-7);}.cls-20{fill:url(#linear-gradient-9);}.cls-21{fill:url(#linear-gradient-11);}.cls-22{fill:url(#linear-gradient-6);}.cls-10{opacity:.45;}.cls-11{fill:#a3a2a2;}.cls-23{fill:url(#linear-gradient);}.cls-6{opacity:.6;}</style><linearGradient id="linear-gradient" x1="275.2" y1="190.68" x2="303.95" y2="178.29" gradientTransform="translate(-182.35 31.05) rotate(-15.63)" gradientUnits="userSpaceOnUse"><stop offset="0" stop-color="#b009ff"/><stop offset="1" stop-color="#f431ff"/></linearGradient><radialGradient id="radial-gradient" cx="-631.96" cy="2978.55" fx="-631.96" fy="2978.55" r="55.56" gradientTransform="translate(-2916.01 533.38) rotate(-110.45)" gradientUnits="userSpaceOnUse"><stop offset="0" stop-color="#fa0"/><stop offset=".16" stop-color="#fca401"/><stop offset=".36" stop-color="#f69505"/><stop offset=".58" stop-color="#eb7d0c"/><stop offset=".81" stop-color="#dd5a15"/><stop offset=".9" stop-color="#d64a1a"/></radialGradient><linearGradient id="linear-gradient-2" x1="224.14" y1="145.13" x2="308.81" y2="145.13" gradientTransform="translate(-182.35 31.05) rotate(-15.63)" gradientUnits="userSpaceOnUse"><stop offset="0" stop-color="#6d4fff"/><stop offset=".27" stop-color="#655dff"/><stop offset=".78" stop-color="#5384ff"/><stop offset="1" stop-color="#4a98ff"/></linearGradient><linearGradient id="linear-gradient-3" x1="206.37" y1="142.54" x2="312.23" y2="142.54" gradientTransform="translate(-182.35 31.05) rotate(-15.63)" gradientUnits="userSpaceOnUse"><stop offset="0" stop-color="#52baff"/><stop offset=".28" stop-color="#58c8ff"/><stop offset=".81" stop-color="#6aefff"/><stop offset="1" stop-color="#72ffff"/></linearGradient><linearGradient id="linear-gradient-4" x1="201.06" y1="130.92" x2="308.81" y2="130.92" gradientTransform="translate(-182.35 31.05) rotate(-15.63)" gradientUnits="userSpaceOnUse"><stop offset="0" stop-color="#509e06"/><stop offset=".56" stop-color="#74c901"/><stop offset=".74" stop-color="#82d900"/></linearGradient><linearGradient id="linear-gradient-5" x1="197.78" y1="121.72" x2="299.32" y2="121.72" gradientTransform="translate(-182.35 31.05) rotate(-15.63)" gradientUnits="userSpaceOnUse"><stop offset=".32" stop-color="#ffc40b"/><stop offset="1" stop-color="#fff400"/></linearGradient><linearGradient id="linear-gradient-6" x1="195.92" y1="112.83" x2="288.64" y2="112.83" gradientTransform="translate(-182.35 31.05) rotate(-15.63)" gradientUnits="userSpaceOnUse"><stop offset="0" stop-color="#ff7f00"/><stop offset="1" stop-color="#ffbd00"/></linearGradient><linearGradient id="linear-gradient-7" x1="190.65" y1="101.75" x2="276.47" y2="101.75" gradientTransform="translate(-182.35 31.05) rotate(-15.63)" gradientUnits="userSpaceOnUse"><stop offset=".23" stop-color="#ff5b00"/><stop offset="1" stop-color="#fb9000"/></linearGradient><linearGradient id="linear-gradient-8" x1="197.3" y1="91.13" x2="256.67" y2="91.13" gradientTransform="translate(-182.35 31.05) rotate(-15.63)" gradientUnits="userSpaceOnUse"><stop offset="0" stop-color="#d10038"/><stop offset="1" stop-color="#ff519f"/></linearGradient><linearGradient id="linear-gradient-9" x1="203.7" y1="87.58" x2="247.35" y2="87.58" gradientTransform="translate(-182.35 31.05) rotate(-15.63)" gradientUnits="userSpaceOnUse"><stop offset="0" stop-color="#9008d1"/><stop offset="1" stop-color="#df1aeb"/></linearGradient><linearGradient id="linear-gradient-10" x1="190.65" y1="131.14" x2="308.81" y2="131.14" xlink:href="#linear-gradient-9"/><linearGradient id="linear-gradient-11" x1="218.23" y1="40.52" x2="187.37" y2="70.58" gradientTransform="translate(-182.35 31.05) rotate(-15.63)" gradientUnits="userSpaceOnUse"><stop offset=".32" stop-color="#7c09ff"/><stop offset="1" stop-color="#c031ff"/></linearGradient><linearGradient id="linear-gradient-12" x1="196.94" y1="85.18" x2="216.72" y2="62.76" gradientTransform="translate(-182.35 31.05) rotate(-15.63)" gradientUnits="userSpaceOnUse"><stop offset="0" stop-color="#9e08e6"/><stop offset=".27" stop-color="#b009ff"/><stop offset="1" stop-color="#f431ff"/></linearGradient></defs><g class="cls-17"><g id="Layer_2"><g id="Layer_1-2"><polygon class="cls-23" points="145.15 159.33 154.17 162.64 158.39 155.58 169.44 151.76 176.63 142.86 173.38 133.34 182.24 128.58 186.23 120.47 179.86 110.8 178.31 103.74 171.69 103.42 129.42 104.43 122.81 113.26 145.15 159.33"/><polygon class="cls-10" points="154.17 162.64 122.81 113.26 145.15 159.33 154.17 162.64"/><path class="cls-10" d="M158.39,155.58c-.23-.43-32.83-45.99-32.83-45.99l43.88,42.17-11.06,3.82Z"/><polygon class="cls-10" points="173.38 133.34 128.44 105.74 182.24 128.58 173.38 133.34"/><polygon class="cls-10" points="179.86 110.8 178.31 103.74 129.42 104.43 179.86 110.8"/><polygon class="cls-6" points="179.86 110.8 186.23 120.47 144.77 108.13 150.09 107.04 179.86 110.8"/><polygon class="cls-6" points="173.38 133.34 176.63 142.86 138.23 115.49 141.55 113.73 173.38 133.34"/><circle class="cls-14" cx="95.66" cy="84.81" r="55.56" transform="translate(2.13 171.97) rotate(-84.54)"/><path class="cls-1" d="M80.22,137.68c.61.24,7.16,2.84,7.16,2.84l9.89.34,7.68-.95,10.41-2.91,12.35-6.27,3.33-2.8,1.93.6,2.28-1.92-.67-1.66,3.79-1.74,2.08-2.11-.26-2.77,2.31-.73,1.32-1.7-.19-1.91,2.24-.51,1.48-2.36-.67-3.37,1.6,1.06,1.82-1.75-.96-5.87,2.19-7.89-.19-11.73-1.35-9.47-2.43-7.67-2.94-6.24-3.85-5.29-60.36,84.8Z"/><polygon class="cls-15" points="58.9 127.45 64.69 131.62 66.27 129.08 69.56 131.9 72.71 139.31 77.22 140.3 76.31 137.51 80.99 141.61 84.27 140.68 83.62 137.14 88.89 141.89 92.08 141.51 91.27 137.54 96.18 142.36 99.22 141.5 98.39 135.34 104.28 141.22 108.18 140.13 106.52 132.11 111.25 136.4 115.71 134.08 114.04 128.28 121.1 131.59 124.85 129.21 123.85 122.33 128.58 124.61 130.46 122.72 128.35 116.75 135.01 119.28 137.6 116.81 134.57 111.26 140.52 112.64 142.08 110.42 138.37 104.97 143.08 106.55 146.09 103.85 142.74 95.14 147.03 97.49 147.91 95.89 145.7 88.49 152.52 87.88 152.94 83.35 146.37 76.8 150.82 78.04 151.65 74.88 145.89 67.56 151.37 69.82 150.71 66 145.57 60.4 149.74 59.24 147.68 55.89 141.78 54.11 138.37 48.44 134.12 48.17 114.53 88.42 58.9 127.45"/><polygon class="cls-9" points="104.78 130.53 113.09 125 115.71 134.08 111.25 136.4 104.78 130.53"/><polygon class="cls-9" points="90.03 136.33 98.05 132.75 99.22 141.5 96.18 142.36 90.03 136.33"/><path class="cls-13" d="M122.01,35.92c.94-.26,11.97,7.51,11.97,7.51l4.47-2.48,2.85,8.17-5.31,1.49,8.36,2.04-1,5.82-6.75.66,6.88,1.21.35,4.99-5.88,2.67,4.81,1.53,1.74,5.4-6.18,1.73,6.09,1.63-2.75,5.06-4.99-.34,6.08,4.3.74,3.92-10.19,1.57,6.95,4.21-2.77,4.03-8.48-.88,6.25,4.13-2.16,3.14-9.06-3.29,6.91,5.74-4.24,3.8-5.27-2.93,2.87,7.81-3.65,3.2-9.33-3.59,3.37,7.14-4.24,2.97-6.89-6.02,1.24,7.19-4.57,2.92-6.43-3.41-.16,6.55-4.32,1.42-5.23-6.48-1.01,5.39-6.51-.65-3.4-5.93-2.08,7.46-7.02-3.41-1.21-8.47-3.05,5.3-7.34-5.98,1.7-3.71-4.93-12.04L122.01,35.92Z"/><polygon class="cls-16" points="109.49 31 118.03 33.45 123.12 31.61 125.99 34.81 121.77 38.7 128.72 38.48 129.95 42.3 124.93 46.61 131.67 45.68 133.87 50.44 126.11 54.19 133.67 55.09 134.89 60.84 126.85 64.99 134.06 67.3 132.44 72.33 124.47 72.86 134.8 77.15 133.79 81.65 125.77 81.65 133.82 86.1 131.57 90.63 121.19 88.84 125.89 92.9 124.52 97.96 116.39 93.57 122.75 99.54 119.23 102.89 112.79 100.91 118.93 108.37 115.94 110.71 108.07 107.03 110.58 114.54 106.95 118.71 96.01 112.87 99.51 120.51 96.97 122.18 88.38 115.96 92.15 125.03 88.41 126.35 83.46 121.37 84.26 127.65 79.58 128 75.23 121.83 75.02 127.78 71.13 127.72 68.87 119.63 67.54 126.28 64.19 127.37 61.55 122.36 60.14 126.57 55.48 125.11 55.91 118.27 53.73 122.78 48.09 120.66 49.57 114.71 48.53 108.61 109.49 31"/><polygon class="cls-22" points="41.43 93.9 44.02 108.2 44.59 115.06 50.47 117.13 51.5 110.89 53.42 117.75 57.32 118.57 59.59 111.9 62.91 121.02 67.27 119.8 67.79 108.82 72.24 116.03 76.76 114.77 75.63 105.69 81.79 115.42 87.16 112.21 84.67 102.21 89.26 108.58 93.26 105.01 91.13 97.39 103.03 104.19 106.44 100.23 100.47 89.36 110.32 92.88 114.53 88.42 104.74 80 115.44 82.77 117.98 74.87 112.05 70.85 120.99 70.46 121.61 63.18 116.98 59.96 123.22 58.41 123.29 52.24 113.63 49.06 120.95 46.55 120.23 42.18 111.53 40.47 119.05 38.92 116.59 35.42 110.22 35.77 114.6 32.59 111.47 28.13 94.74 29.28 81.26 55.24 66.89 74.45 41.43 93.9"/><path class="cls-19" d="M41.64,75.63c-.58.72-2.56,12.8-2.56,12.8l-5.35,7.36,3.98,1.49,2.41-1.77,1.19,5.83,4.19.67,3.67-7.8.02,7.12,4.48,1.13,6.21-9.6,2.31,9.41,6.28-.73,1.08-9.42,4.39,7.52,6.19-4.59-2.76-9.42,6.54,5.98,5.26-3.26-5.56-8.57,7.75,3.72,3.67-5.2-5.41-7.65,12.34,3.72,3.16-4.36-8.01-6.61,7.51,2.34,1.39-5.37-8.26-4.76,9.84-.76.24-4.04-10.35-2.74,10.25-2.27-.97-3.45-9.22-2.35,7.38-2.42.4-4.43-9.7.48,5.12-2.51-1.82-3.29-5.17.51,3.17-3.78-4.32.22-6.81,4.54-13.64,7.43-30.5,38.88Z"/><polygon class="cls-18" points="46.7 63.05 35.43 69.54 36.28 75.48 40.16 73.3 36.69 81.7 43.4 81.95 47.87 77.86 48.07 85.51 51.66 85.46 53.76 77.85 56.38 84.11 63.6 80.56 62.2 74.26 67.44 78.67 71.56 76.64 67.9 69.65 75.13 73.53 78.78 68.42 74.07 64.78 81.19 65.05 84.13 60.93 77.96 58.62 85.53 56.71 86.14 51.62 79.87 50.28 86.67 47.25 87.16 43.14 80.91 43.73 86.6 39.76 84.92 35.55 79.53 36.21 83.76 32.63 82.62 29.75 75.02 32.93 75.66 28.25 71.95 29.73 68.14 36.49 63.05 40.06 60.18 52.72 46.7 63.05"/><polygon class="cls-20" points="47.83 54.95 46.25 58.45 39.1 60.56 38.63 63.89 44.2 62.98 39.54 68.14 43.89 69.71 50.81 64.98 49.47 72.98 53.42 73.7 55.24 67.96 59.17 71.4 63.7 69.58 62.59 65.59 66.66 68.4 70.64 64.27 65.59 61.26 72.26 61.17 74.98 55.95 69.13 54.83 76.76 52.55 79.2 47.89 73.06 47.98 78.27 44.57 77.45 41.62 71.65 43.65 76.69 38.93 75.75 35.55 73.55 35.49 68.97 39.57 71.27 35.43 67.93 35.35 63.93 38.26 64 35.41 60.96 36.27 58.7 42.89 47.83 54.95"/><polygon class="cls-5" points="79.87 50.28 80.91 43.73 87.16 43.14 86.67 47.25 79.87 50.28"/><polygon class="cls-2" points="95.4 40.7 104.92 37.58 105.31 33.15 93.46 33.75 95.4 40.7"/><polygon class="cls-2" points="94.81 48.67 107.72 45.81 106.75 42.36 95.81 39.56 94.81 48.67"/><polygon class="cls-2" points="80.92 78.49 88.01 68.39 95.02 78.29 91.35 83.5 80.92 78.49"/><polygon class="cls-6" points="111.53 40.47 120.23 42.18 120.95 46.55 113.63 49.06 111.53 40.47"/><polygon class="cls-6" points="112.6 57.15 121.61 63.18 120.99 70.46 109.11 70.6 112.6 57.15"/><polygon class="cls-6" points="100.47 89.36 106.44 100.23 103.03 104.19 89.34 96.38 100.47 89.36"/><polygon class="cls-5" points="133.67 55.09 126.11 54.19 126.85 64.99 134.89 60.84 133.67 55.09"/><polygon class="cls-5" points="124.93 46.61 121.77 38.7 128.72 38.48 129.95 42.3 124.93 46.61"/><path class="cls-5" d="M135.99,50.61c.87-.24,5.31-1.49,5.31-1.49l-2.85-8.17-4.47,2.48,2.01,7.18Z"/><polygon class="cls-5" points="137.95 68 142.76 69.53 144.5 74.93 138.32 76.66 137.95 68"/><polygon class="cls-5" points="133.31 92.8 140.26 97.01 137.49 101.04 129.01 100.16 133.31 92.8"/><polygon class="cls-5" points="145.89 67.56 151.65 74.88 150.82 78.04 146.37 76.8 145.89 67.56"/><path class="cls-3" d="M151.03,80.82l-.6-.54c-.58,6.93-2.74,13.76-6.62,19.97-13.74,21.99-43.83,27.97-67.19,13.37-22.67-14.17-30.68-42.51-18.59-64.26l-2.59-2.83-7.59,8.43-1.59,3.5-7.15,2.11-.47,3.34,5.57-.92-2.85,3.15-5.93,3.41.86,5.94,3.88-2.18-3.48,8.4,3.53.13c-.6,3.27-1.15,6.59-1.15,6.59l-5.36,7.36,3.98,1.49,2.41-1.77,1.19,5.83,1.53.24,1.2,6.62.57,6.86,4.5,1.59-1,4.01,5.11,1.92-.73,1.58,7.34,5.98.83-1.44,3.09,2.23.34,2.38,7.02,3.41.21-.74,1.42,3.34,4.51,1-.9-2.79,4.68,4.1,3.27-.94-.27-1.5c1.72.68,3.38,1.34,3.38,1.34l1.52,1.37,3.19-.38-.17-.83,2.64.09,1.62,1.59,3.05-.85-.12-.87,4.07-.51,1.1,1.1,3.91-1.09-.22-1.07,7.39-2.07,12.35-6.27,3.33-2.8,1.93.6,2.28-1.92-.67-1.66,3.79-1.75,2.08-2.11-.26-2.77,2.31-.73,1.32-1.7-.19-1.91,2.24-.51,1.48-2.36-.67-3.37,1.6,1.06,1.82-1.75-.96-5.87,2.19-7.89-.09-5.28,1.28-.11.42-4.53-1.81-1.8-.1-.73Z"/><polygon class="cls-5" points="152.52 87.88 145.7 88.49 146.37 76.8 152.94 83.35 152.52 87.88"/><polygon class="cls-5" points="125.77 81.65 133.82 86.1 131.57 90.63 121.19 88.84 125.77 81.65"/><polygon class="cls-7" points="77.36 85.63 69.55 92.12 73.93 99.64 80.12 95.05 77.36 85.63"/><polygon class="cls-4" points="67.79 108.82 75.63 105.69 76.76 114.77 72.24 116.03 67.79 108.82"/><polygon class="cls-4" points="75.23 121.83 83.46 121.37 84.26 127.65 79.58 128 75.23 121.83"/><polygon class="cls-4" points="88.38 115.96 96.01 112.87 99.51 120.51 96.97 122.18 88.38 115.96"/><polygon class="cls-9" points="84.08 130.44 93.8 128.96 93.63 135.5 89.31 136.92 84.08 130.44"/><polygon class="cls-21" points="43.95 .59 36.27 0 34.69 4.92 31.51 2.43 23.37 8.76 25.07 12.43 21.75 10.3 9.83 22.86 12.74 28.56 7.29 28.32 0 45.9 6.81 48.43 .02 49.2 3.28 53.42 28.64 52.37 50.08 29.92 43.95 .59"/><path class="cls-11" d="M50.08,29.92L43.95.59l-7.68-.59-1.58,4.92-3.18-2.49-8.14,6.33,1.69,3.67-3.32-2.13-3.5,3.69.49.79c8.3,6.92,16.42,13.59,26.75,23.86l4.59-8.71Z"/><polygon class="cls-12" points="56.22 59.61 61.95 56.81 63.99 51.79 62.57 47.36 43.95 .59 41.05 14.43 44.53 22.95 35.4 23.59 35.95 35.24 26.32 35.91 13.98 47.3 3.28 53.42 56.22 59.61"/><polygon class="cls-10" points="56.22 59.61 22.63 49.82 13.98 47.3 26.32 35.91 61.95 56.81 56.22 59.61"/><polygon class="cls-10" points="35.95 35.24 62.84 54.64 63.99 51.79 35.4 23.59 35.95 35.24"/><polygon class="cls-10" points="44.53 22.95 63.99 51.79 43.95 .59 41.05 14.43 44.53 22.95"/><polygon class="cls-8" points="56.22 59.61 13.98 47.3 3.28 53.42 56.22 59.61"/></g></g></g></svg>