<?xml version="1.0" encoding="UTF-8"?><svg xmlns="http://www.w3.org/2000/svg" xmlns:xlink="http://www.w3.org/1999/xlink" viewBox="0 0 267.43 357.28"><defs><style>.cls-1{fill:url(#linear-gradient-15);}.cls-2{fill:url(#linear-gradient-13);}.cls-3{fill:url(#linear-gradient-28);}.cls-4{fill:url(#linear-gradient-53);}.cls-5{fill:url(#linear-gradient-42);}.cls-6{fill:url(#linear-gradient-46);}.cls-7{fill:url(#linear-gradient-2);}.cls-8{fill:url(#linear-gradient-56);}.cls-9{fill:url(#linear-gradient-43);}.cls-10{fill:url(#linear-gradient-25);}.cls-11{fill:url(#linear-gradient-10);}.cls-12{fill:url(#linear-gradient-12);}.cls-13{fill:url(#linear-gradient-40);}.cls-14{fill:url(#linear-gradient-27);}.cls-15{fill:#c52dea;}.cls-15,.cls-16,.cls-17,.cls-18{mix-blend-mode:multiply;}.cls-15,.cls-17{opacity:.35;}.cls-19{fill:url(#linear-gradient-37);}.cls-20{fill:url(#linear-gradient-55);}.cls-21{fill:url(#linear-gradient-39);}.cls-22{fill:url(#linear-gradient-52);}.cls-16{opacity:.5;}.cls-16,.cls-17,.cls-18{fill:#e82e60;}.cls-23{fill:url(#linear-gradient-58);}.cls-24{fill:url(#linear-gradient-47);}.cls-25{fill:url(#linear-gradient-26);}.cls-26{fill:#f9ff80;mix-blend-mode:soft-light;}.cls-27{fill:url(#linear-gradient-4);}.cls-28{fill:#d03d1d;}.cls-29{fill:url(#linear-gradient-35);}.cls-30{fill:url(#linear-gradient-30);}.cls-31{fill:#72123b;}.cls-32{fill:url(#linear-gradient-44);}.cls-33{fill:url(#linear-gradient-49);}.cls-34{fill:url(#linear-gradient-3);}.cls-35{fill:url(#linear-gradient-34);}.cls-36{fill:url(#linear-gradient-5);}.cls-37{fill:url(#linear-gradient-38);}.cls-38{fill:url(#linear-gradient-22);}.cls-39{fill:url(#linear-gradient-24);}.cls-40{fill:#f9c900;}.cls-41{fill:url(#linear-gradient-54);}.cls-42{isolation:isolate;}.cls-43{fill:url(#linear-gradient-33);}.cls-44{fill:url(#linear-gradient-51);}.cls-45{fill:url(#linear-gradient-8);}.cls-46{fill:url(#linear-gradient-57);}.cls-47{fill:url(#linear-gradient-14);}.cls-48{fill:url(#linear-gradient-29);}.cls-49{fill:url(#linear-gradient-20);}.cls-50{fill:url(#linear-gradient-17);}.cls-51{fill:url(#linear-gradient-50);}.cls-52{fill:url(#linear-gradient-7);}.cls-53{fill:url(#linear-gradient-9);}.cls-54{fill:url(#linear-gradient-59);}.cls-55{fill:url(#linear-gradient-11);}.cls-56{fill:url(#linear-gradient-19);}.cls-57{fill:url(#linear-gradient-6);}.cls-58{fill:url(#linear-gradient-36);}.cls-59{fill:url(#linear-gradient-21);}.cls-60{fill:url(#linear-gradient-45);}.cls-61{fill:#fd7500;}.cls-18{opacity:.2;}.cls-62{fill:#fce938;}.cls-63{fill:url(#linear-gradient-48);}.cls-64{fill:url(#linear-gradient-32);}.cls-65{fill:url(#linear-gradient-41);}.cls-66{fill:url(#linear-gradient-16);}.cls-67{fill:url(#linear-gradient);}.cls-68{fill:#fff400;}.cls-69{fill:url(#linear-gradient-23);}.cls-70{fill:url(#linear-gradient-31);}.cls-71{fill:#a32b17;}.cls-72{fill:url(#linear-gradient-18);}</style><linearGradient id="linear-gradient" x1="214.02" y1="385.57" x2="218.19" y2="308.93" gradientUnits="userSpaceOnUse"><stop offset="0" stop-color="#fff400"/><stop offset=".68" stop-color="#ff9a00"/></linearGradient><linearGradient id="linear-gradient-2" x1="226.48" y1="357.28" x2="226.48" y2="328.07" gradientUnits="userSpaceOnUse"><stop offset="0" stop-color="#fb9000"/><stop offset=".77" stop-color="#ff5b00"/></linearGradient><linearGradient id="linear-gradient-3" x1="114.8" y1="380.17" x2="118.97" y2="303.53" xlink:href="#linear-gradient"/><linearGradient id="linear-gradient-4" x1="128.15" x2="128.15" xlink:href="#linear-gradient-2"/><linearGradient id="linear-gradient-5" x1="194.59" y1="384.51" x2="198.76" y2="307.88" xlink:href="#linear-gradient"/><linearGradient id="linear-gradient-6" x1="208.05" x2="208.05" y2="330.43" xlink:href="#linear-gradient-2"/><linearGradient id="linear-gradient-7" x1="97.88" y1="379.25" x2="102.05" y2="302.61" xlink:href="#linear-gradient"/><linearGradient id="linear-gradient-8" x1="110.78" x2="110.78" y2="332.38" xlink:href="#linear-gradient-2"/><linearGradient id="linear-gradient-9" x1="82.24" y1="89.93" x2="190.05" y2="89.93" gradientUnits="userSpaceOnUse"><stop offset="0" stop-color="#fff400"/><stop offset=".68" stop-color="#ffc40b"/></linearGradient><linearGradient id="linear-gradient-10" x1="82.24" y1="88.9" x2="143.95" y2="88.9" gradientUnits="userSpaceOnUse"><stop offset="0" stop-color="#ff9500"/><stop offset="1" stop-color="#ffbd00"/></linearGradient><linearGradient id="linear-gradient-11" x1="200.43" y1="167.85" x2="80.99" y2="167.85" gradientUnits="userSpaceOnUse"><stop offset=".03" stop-color="#d61b27"/><stop offset="1" stop-color="#ff5f00"/></linearGradient><linearGradient id="linear-gradient-12" x1="200.43" y1="111.95" x2="80.99" y2="111.95" xlink:href="#linear-gradient-11"/><linearGradient id="linear-gradient-13" x1="69.49" y1="139.04" x2="181.02" y2="139.04" gradientUnits="userSpaceOnUse"><stop offset=".32" stop-color="#ff9a00"/><stop offset="1" stop-color="#fff400"/></linearGradient><linearGradient id="linear-gradient-14" x1="65.85" y1="139.71" x2="183.58" y2="139.71" xlink:href="#linear-gradient-9"/><linearGradient id="linear-gradient-15" x1="200.43" y1="253.69" x2="80.99" y2="253.69" xlink:href="#linear-gradient-11"/><linearGradient id="linear-gradient-16" x1="127.79" y1="78.09" x2="161.6" y2="78.09" xlink:href="#linear-gradient-10"/><linearGradient id="linear-gradient-17" x1="150.47" y1="84.26" x2="168.2" y2="112.94" xlink:href="#linear-gradient-9"/><linearGradient id="linear-gradient-18" x1="101.2" y1="187.75" x2="168.61" y2="187.75" xlink:href="#linear-gradient-13"/><linearGradient id="linear-gradient-19" x1="80.43" y1="187.88" x2="174.26" y2="187.88" xlink:href="#linear-gradient-9"/><linearGradient id="linear-gradient-20" x1="200.43" y1="222.78" x2="80.99" y2="222.78" xlink:href="#linear-gradient-11"/><linearGradient id="linear-gradient-21" x1="104.78" y1="231.6" x2="161.02" y2="231.6" xlink:href="#linear-gradient-9"/><linearGradient id="linear-gradient-22" x1="158.19" y1="208.72" x2="131.08" y2="249.91" xlink:href="#linear-gradient-13"/><linearGradient id="linear-gradient-23" x1="97.7" y1="131.27" x2="172.1" y2="131.27" xlink:href="#linear-gradient-9"/><linearGradient id="linear-gradient-24" x1="0" y1="266.57" x2="87.34" y2="266.57" xlink:href="#linear-gradient-13"/><linearGradient id="linear-gradient-25" x1="133.57" y1="279.53" x2="14.13" y2="279.53" xlink:href="#linear-gradient-11"/><linearGradient id="linear-gradient-26" x1="4.25" y1="283.45" x2="86.43" y2="283.45" xlink:href="#linear-gradient-9"/><linearGradient id="linear-gradient-27" x1="34.06" y1="300.78" x2="87.93" y2="300.78" xlink:href="#linear-gradient-13"/><linearGradient id="linear-gradient-28" x1="169.91" y1="332.57" x2="169.91" y2="11.5" xlink:href="#linear-gradient-13"/><linearGradient id="linear-gradient-29" x1="222.58" y1="331.66" x2="222.58" y2="118.07" gradientUnits="userSpaceOnUse"><stop offset=".23" stop-color="#ff5b00"/><stop offset="1" stop-color="#fb9000"/></linearGradient><linearGradient id="linear-gradient-30" x1="221.62" y1="341.15" x2="221.62" y2="303.9" gradientUnits="userSpaceOnUse"><stop offset="0" stop-color="#d60b00"/><stop offset="1" stop-color="#b31722"/></linearGradient><linearGradient id="linear-gradient-31" x1="148.41" y1="342.64" x2="148.41" y2="310.2" gradientUnits="userSpaceOnUse"><stop offset="0" stop-color="#ff5f00"/><stop offset=".97" stop-color="#d61b27"/></linearGradient><linearGradient id="linear-gradient-32" x1="221.13" y1="331.2" x2="221.13" y2="304.52" xlink:href="#linear-gradient-2"/><linearGradient id="linear-gradient-33" x1="149.41" y1="336.06" x2="149.41" y2="303.49" xlink:href="#linear-gradient"/><linearGradient id="linear-gradient-34" x1="146.62" y1="321.75" x2="146.62" y2="289.31" xlink:href="#linear-gradient-9"/><linearGradient id="linear-gradient-35" x1="223.66" y1="319.78" x2="223.66" y2="288.03" gradientUnits="userSpaceOnUse"><stop offset="0" stop-color="#ffbd00"/><stop offset="1" stop-color="#ff9500"/></linearGradient><linearGradient id="linear-gradient-36" x1="222.88" y1="307.27" x2="222.88" y2="268.7" xlink:href="#linear-gradient-30"/><linearGradient id="linear-gradient-37" x1="144.37" y1="309.48" x2="144.37" y2="264.6" xlink:href="#linear-gradient-31"/><linearGradient id="linear-gradient-38" x1="173.86" y1="298.13" x2="173.86" y2="253.69" xlink:href="#linear-gradient"/><linearGradient id="linear-gradient-39" x1="224.72" y1="296.63" x2="224.72" y2="259.55" xlink:href="#linear-gradient-2"/><linearGradient id="linear-gradient-40" x1="225.44" y1="280.82" x2="225.44" y2="235.46" xlink:href="#linear-gradient-35"/><linearGradient id="linear-gradient-41" x1="179.58" y1="281.61" x2="179.58" y2="241.17" xlink:href="#linear-gradient-9"/><linearGradient id="linear-gradient-42" x1="179.38" y1="269.85" x2="179.38" y2="220.54" xlink:href="#linear-gradient-31"/><linearGradient id="linear-gradient-43" x1="224.05" y1="115.66" x2="224.05" y2="30.13" xlink:href="#linear-gradient-13"/><linearGradient id="linear-gradient-44" x1="227.04" y1="263.12" x2="227.04" y2="221.45" xlink:href="#linear-gradient-30"/><linearGradient id="linear-gradient-45" x1="183.35" y1="250.32" x2="183.35" y2="206.04" xlink:href="#linear-gradient"/><linearGradient id="linear-gradient-46" x1="228.97" y1="251.29" x2="228.97" y2="209.89" xlink:href="#linear-gradient-2"/><linearGradient id="linear-gradient-47" x1="186.55" y1="231.75" x2="186.55" y2="186.93" xlink:href="#linear-gradient-9"/><linearGradient id="linear-gradient-48" x1="229.74" y1="230.13" x2="229.74" y2="187.75" xlink:href="#linear-gradient-35"/><linearGradient id="linear-gradient-49" x1="188.23" y1="213.6" x2="188.23" y2="169.16" xlink:href="#linear-gradient-31"/><linearGradient id="linear-gradient-50" x1="187.59" y1="202.83" x2="195.78" y2="160.95" xlink:href="#linear-gradient"/><linearGradient id="linear-gradient-51" x1="230.43" y1="211.21" x2="230.43" y2="174.46" xlink:href="#linear-gradient-30"/><linearGradient id="linear-gradient-52" x1="228.72" y1="200.48" x2="236.33" y2="161.55" xlink:href="#linear-gradient-2"/><linearGradient id="linear-gradient-53" x1="233.97" y1="180.84" x2="233.97" y2="144.19" xlink:href="#linear-gradient-35"/><linearGradient id="linear-gradient-54" x1="194.32" y1="182.46" x2="194.32" y2="133.8" xlink:href="#linear-gradient-9"/><linearGradient id="linear-gradient-55" x1="232.27" y1="164.27" x2="232.27" y2="134.32" xlink:href="#linear-gradient-30"/><linearGradient id="linear-gradient-56" x1="234.19" y1="143.11" x2="236.85" y2="129.52" xlink:href="#linear-gradient-2"/><linearGradient id="linear-gradient-57" x1="196.02" y1="164.55" x2="196.02" y2="124.4" xlink:href="#linear-gradient-31"/><linearGradient id="linear-gradient-58" x1="206.05" y1="160.52" x2="229.72" y2="39.55" xlink:href="#linear-gradient-13"/><linearGradient id="linear-gradient-59" x1="199.84" y1="100.58" x2="218.82" y2="100.58" gradientUnits="userSpaceOnUse"><stop offset=".02" stop-color="#ffcec7"/><stop offset="1" stop-color="#ffe9f5"/></linearGradient></defs><g class="cls-42"><g id="Layer_2"><g id="Layer_1-2"><polygon class="cls-67" points="222.12 329.29 226.75 357.28 218.32 357.28 205.89 329.29 222.12 329.29"/><polygon class="cls-7" points="226.75 357.28 230.85 357.28 230.53 328.07 222.12 329.29 226.75 357.28"/><polygon class="cls-34" points="125.68 329.29 122.21 357.28 113.78 357.28 109.45 329.29 125.68 329.29"/><polygon class="cls-27" points="122.21 357.28 126.31 357.28 134.09 328.07 125.68 329.29 122.21 357.28"/><polygon class="cls-17" points="112.18 346.92 124.27 340.71 125.68 329.29 109.45 329.29 112.18 346.92"/><polygon class="cls-36" points="205.89 331.66 201.79 357.28 193.36 357.28 189.04 331.8 205.89 331.66"/><polygon class="cls-57" points="201.79 357.28 205.89 357.28 214.3 330.43 205.89 331.66 201.79 357.28"/><polygon class="cls-52" points="108.81 332.44 104.83 357.28 96.41 357.28 92.03 332.57 108.81 332.44"/><polygon class="cls-45" points="104.83 357.28 108.93 357.28 116.74 332.38 108.81 332.44 104.83 357.28"/><polygon class="cls-61" points="256.44 115.79 266.06 114.94 267.43 103.49 256.44 103.49 256.44 115.79"/><polygon class="cls-61" points="251.91 119.59 261.05 118.87 258.81 124.22 249.7 125.32 251.91 119.59"/><path class="cls-28" d="M261.35,109.34c0,1.92-.75,3.47-1.67,3.47s-1.67-1.55-1.67-3.47.75-3.47,1.67-3.47,1.67,1.55,1.67,3.47Z"/><path class="cls-71" d="M260.94,109.77c0,1.68-.66,3.04-1.47,3.04s-1.47-1.36-1.47-3.04.66-3.04,1.47-3.04,1.47,1.36,1.47,3.04Z"/><path class="cls-28" d="M265.75,109.31c0,1.81-.75,3.27-1.67,3.27s-1.67-1.47-1.67-3.27.75-3.27,1.67-3.27,1.67,1.47,1.67,3.27Z"/><path class="cls-71" d="M265.34,109.71c0,1.59-.66,2.87-1.47,2.87s-1.47-1.29-1.47-2.87.66-2.87,1.47-2.87,1.47,1.29,1.47,2.87Z"/><path class="cls-53" d="M189.95,81.86c-12.07-2.73-24.8-1.37-46,10.25-19.5,10.68-40.76-5.01-41.9-17.31-6.83,1.59-19.81,6.15-19.81,6.15,8.65,18.67,37.32,33.22,62.62,17.31,25.3-15.92,41.67-14.12,45.09-12.98.23-.46,0-3.42,0-3.42Z"/><path class="cls-11" d="M102.05,74.8c-6.83,1.59-19.81,6.15-19.81,6.15,3.92,8.46,11.95,16.06,21.91,20.38h1.32c7.74,3.99,20.04.8,38.48-9.22-19.5,10.68-40.76-5.01-41.9-17.31Z"/><path class="cls-55" d="M178.79,117.9c-18.22,5.41-34.64,31.33-55.33,61.4-20.7,30.08-48.96,21.81-48.96,21.81l18.22,16.7c15.26-.23,31.88-17.08,42.35-35.07,10.47-17.99,28.69-51.82,43.72-58.52.46-2.5,0-6.32,0-6.32Z"/><path class="cls-12" d="M188.92,83.17c-23.8,6.61-39.05,18.94-56.81,34.08-26.01,22.18-52.83,3.66-54.65.65-16.4,5.18-24.59,7.31-24.59,7.31,17.31,14.27,57.61,25.6,81.01,1.51,22.28-22.93,44.68-37.77,55.16-38.47,0,.21-.11-5.08-.11-5.08Z"/><path class="cls-15" d="M128.53,120.05h0c-24.84,17.71-49.33.73-51.07-2.15-16.4,5.18-24.59,7.31-24.59,7.31,8.11,6.68,21.59,12.76,35.9,14.95.2.03.4.06.6.09.03,0,.05,0,.08.01,19.28-.13,23.76-6.7,39.08-20.2Z"/><path class="cls-15" d="M141.26,119.41h0c19.7-18.73,38.45-30.54,47.77-31.16,0,.21-.11-5.08-.11-5.08-1.45.4-2.87.83-4.26,1.27-18.39,6.29-33.77,22.08-43.41,34.97Z"/><path class="cls-2" d="M181.02,103c-12.31.6-22.16,14.2-39.76,44.44-12.77,21.95-45.13,12.1-51.96,10.04-5.92,3.4-19.81,8.35-19.81,8.35,19.58,9.56,61.52,19.41,78.58-13.15,17.06-32.56,21.84-42.18,32.03-45.61.3-1.35.92-4.07.92-4.07Z"/><path class="cls-47" d="M183.58,91.68c-22.09,8.97-33.93,22.06-60.12,56.22-19.12,24.94-47.82,24.43-57.61,23.83,11.16,11.01,16.4,16.02,16.4,16.02,21.4-2.05,41.92-20.81,53.9-41,16.23-27.34,29.35-43.89,46.22-49.7l1.21-5.37Z"/><path class="cls-1" d="M154.29,220.54c-10.69-1.82-16.78,6.54-26.4,31.42-9.53,24.64-27.5,24.76-27.5,24.76l17.59,10.36c8.03-2.56,17.42-20.42,19.13-32.33,1.71-11.91,5.97-27.86,15.88-27.69.46-1.81,1.3-6.54,1.3-6.54Z"/><path class="cls-15" d="M139.7,242.57h0c2.49-8.38,6.61-15.61,13.29-15.49.46-1.81,1.3-6.54,1.3-6.54-9.7-1.37-13.76,10.82-14.59,22.03Z"/><path class="cls-66" d="M127.79,80.92l18.33.8c1.82-3.87,7.77-11.36,15.49,2.08-8.83-17.79-20.27-11.59-33.82-2.87Z"/><path class="cls-50" d="M178.51,113.98c-12.84-3.06-11.87-31.87-27.27-36.48-13.45-4.03-23.45,3.42-23.45,3.42,0,0,29-22.22,41.9,1.14,6.66,12.06,5.12,26.17,9.31,29.79l-.48,2.14Z"/><path class="cls-18" d="M178.51,113.98l.48-2.14c-1.03-.89-1.72-2.42-2.26-4.4h0s-3.15-.2-8.12-4.45c2.45,5.44,5.28,9.88,9.9,10.98Z"/><path class="cls-72" d="M168.61,160.22c-14.48,0-25.54,11.79-34.29,22.03s-20.72,20.36-33.12,23.23c6.15,6.38,19.33,9.79,19.33,9.79,13.23-5.47,18.13-19.82,22.82-27.33,7.02-11.25,12.5-20.55,24.1-22.55.78-3.47,1.17-5.18,1.17-5.18Z"/><path class="cls-56" d="M174.26,135.37c-16.29,1.69-31.62,10.74-43.05,53.72-10.1,38-50.78,32.79-50.78,32.79l12.47,18.5c17.08-.68,42.86-18.73,49.74-49.19,7.64-33.82,13.79-47.65,30.54-50.33.39-2.1,1.08-5.49,1.08-5.49Z"/><path class="cls-15" d="M174.23,135.5c-.47-.02-1.01,0-1.6.06-.84.12-1.69.25-2.52.42,0,0,0,0-.01,0-8.94,2-14.06,12.46-18.69,24.75h0c5.11-12.28,11.41-18.21,21.77-19.87.34-1.86.92-4.73,1.05-5.36Z"/><path class="cls-49" d="M164.52,176.06c-16.45,3.25-27.86,18.65-44.25,53.08-16.4,34.44-32.34,27.38-32.34,27.38l15.26,12.98c10.47-4.33,17.31-12.17,26.87-37.63,9.56-25.45,19.97-46.06,33.38-51.05l1.08-4.77Z"/><path class="cls-15" d="M141.48,205.49h0c6.51-12.5,13.66-21.58,21.96-24.67l1.08-4.77c-10.17,2.2-15.45,13.68-23.04,29.44Z"/><path class="cls-59" d="M161.02,191.54c-15.21,0-26.12,6.64-32.49,37.87-5.93,29.06-23.74,31.64-23.74,31.64l20.47,10.59c8.82-9.44,12.78-24.07,14.6-39.78,1.92-16.57,3.65-37.44,20-35.17.49-2.18,1.17-5.16,1.17-5.16Z"/><path class="cls-38" d="M131.2,235.8c3.87-12.86,11.19-28.38,26.3-28.38,0,0-.8,4.12-.93,4.1-8.1,2.93-10.06,16.65-10.35,28.78-.23,9.56-4.73,18.96-15.03,19.81-4.16-2.9-13.21-11.21-13.21-11.21,5.47-1.25,11.56-8.1,13.21-13.09Z"/><path class="cls-15" d="M146.42,235.71h0c.68-10.79,3.06-21.62,10.15-24.19.13.03.93-4.1.93-4.1-10.87,1.62-10.64,13.75-11.08,28.29Z"/><path class="cls-69" d="M172.1,150.63c-9.08-.92-21-19.84-25.77-26.17-10.85-14.38-32.46-20.29-48.63-15.51,4.52,7.84,4.34,15.93,4.34,15.93,12.07-3.35,24.05-7.61,36.23,7.06,9.26,11.15,22.23,21.4,32.8,23.27.57-2.53,1.04-4.59,1.04-4.59Z"/><path class="cls-39" d="M87.34,293.58c-1.35-63.36-69.09-72.16-87.34-20.19,7.32,3.33,18.82,8.81,18.82,8.81,3.19-31.15,56.7-51.01,65.35,11.38h3.17Z"/><path class="cls-17" d="M18.94,247.19c-7.98,5.6-14.76,14.31-18.94,26.21,7.32,3.33,18.82,8.81,18.82,8.81,2.3-22.43,30.69-39.01,49.64-23.23h0c-9.5-8.53-23.12-22.02-49.53-11.79Z"/><path class="cls-10" d="M87.93,292.53c-11.95-39.09-49.19-35.32-52.6,1.74,8.34-1.05,18.63-1.74,18.63-1.74,1.02-13.25,13.59-37.49,29.42-1.4l4.55,1.4Z"/><path class="cls-25" d="M86.43,291.35c-12.84-26.26-69.08-45.84-82.18,10.08,8.54-3.66,19.47-5.07,19.47-5.07,3.19-13.32,26.3-46.48,59.66-5.24l3.05.22Z"/><path class="cls-14" d="M87.93,292.53c-21.01-18.42-51.46-11.65-53.88,24.91,4.97,1.73,21.43,1.47,21.43,1.47-1.02-16.33-1.02-37.62,31.06-24.65l1.39-1.74Z"/><polygon class="cls-62" points="267.43 103.49 234.47 71.04 228.66 62.85 191.1 63.56 256.44 103.49 267.43 103.49"/><polygon class="cls-3" points="83.38 291.13 92.03 332.57 205.89 331.66 228.66 118.07 239.66 119.85 249.7 125.32 251.91 119.59 244.36 116.78 256.44 115.79 256.44 103.49 207.26 73.43 208.62 11.5 201.51 12.27 138.94 289.31 83.38 291.13"/><polygon class="cls-48" points="205.89 331.66 230.53 328.07 239.27 119.72 228.66 118.07 205.89 331.66"/><polygon class="cls-30" points="225.52 303.9 208.81 304.7 206.45 331.84 208.1 341.15 216.39 340.74 215.68 334.12 221.3 339.52 226.48 338.11 225.64 332.38 231.71 336.6 236.8 332.57 230.54 328.64 231.35 308.56 225.52 303.9"/><polygon class="cls-70" points="88.72 312.02 91.6 330.38 89.66 337.76 97.5 337.76 101.64 331.66 104.25 341.84 110.24 341.84 114.97 333.14 119.83 342.64 128.13 341.86 130.9 334.24 132.38 340.1 136.81 339.91 139.2 331.3 141.05 342.25 146.95 342.45 148.56 337.24 150.83 340.69 156.32 341.46 159.25 335.55 161.5 342.41 168.89 342.41 170.33 336.2 173.53 340.3 178.88 340.3 181.02 335.56 185.15 341.67 192.72 341.86 194.57 335.94 197.14 341.86 203.42 341.47 206.39 332.14 208.1 310.53 141.16 310.2 88.72 312.02"/><polygon class="cls-17" points="114.97 333.14 130.9 334.24 128.13 341.86 119.83 342.64 114.97 333.14"/><polygon class="cls-64" points="207.88 307.4 206.28 325.25 215.65 331.2 223.49 331.2 220.97 325.28 228.8 329.26 235.98 326.9 230.92 319.13 231.52 304.52 207.88 307.4"/><polygon class="cls-43" points="87.32 310 89.36 319.78 87.93 328.39 93.56 328.39 95.91 323.28 98.84 330.53 104.78 330.53 108.81 323.08 109.45 327.25 114.87 326.99 116.74 322.69 117.99 334.61 122.21 334.61 127.35 323.28 129.53 331.49 134.09 331.68 138.51 323.67 141.48 333.05 146.42 332.86 151.96 322.3 154.29 327.25 158.47 327.25 161.02 323.47 163.75 336.06 168.05 336.06 170.78 324.38 174.26 332.08 179.58 332.27 181.54 324.41 183.35 333.25 186.55 333.05 191.9 326.03 195.22 332.47 200.11 332.47 203.24 323.02 204.41 332.66 211.49 330.53 206.71 321.9 208.67 303.49 87.32 310"/><polygon class="cls-61" points="208.62 11.5 213.27 12.36 215.85 73.43 207.26 73.43 208.62 11.5"/><polygon class="cls-35" points="83.38 291.13 86.43 309.48 84.37 316.86 92.68 316.86 95.62 311.08 97.38 320.94 101.48 320.94 104.41 312.17 105.78 319.21 109.11 319.01 112.23 312.37 116.34 321.75 125.14 320.97 128.07 313.34 129.63 319.21 134.33 319.01 136.87 310.41 138.82 321.36 145.08 321.55 145.86 312.95 149.18 319.8 155.24 319.8 158.57 309.43 158.96 317.64 162.28 317.06 165.02 310.41 165.41 321.16 169.12 321.16 171.86 313.54 173.23 319.4 178.9 319.4 183.59 309.63 185.55 320.77 193.56 320.97 197.47 313.15 198.25 320.97 204.9 320.58 208.05 311.25 209.86 289.63 138.94 289.31 83.38 291.13"/><path class="cls-29" d="M208.05,311.25l2.81,8.53h7.97l1.81-8.53,4.79,6.69,3.53-1.02v-5.66l6.14,4.26,4.17-4.99-7.92-1.96.81-19.25s-21.59-1.93-21.64-1.04-2.47,22.98-2.47,22.98Z"/><polygon class="cls-58" points="212.52 269.5 209.62 296.63 214.38 307.27 221.83 305.53 222.58 298.13 229.74 303.56 236.14 301.01 232.01 292.68 233.02 268.7 212.52 269.5"/><path class="cls-19" d="M139.04,288.86l5.33-24.26c15.06,2.72,56.59,2.53,68.6,3.71l-3.12,30.08.42,10.76-6.45-1.63-5.08-7.41-1.28,7.43-6.67.52-6.65-8.34-.26,7.56-6,1.3-4.03-9.15-1.32,9.72h-5.47l-1.95-10.92-5.09,7.27-4.43-.13-3.13-5.6-2.52,8.29h-4.12l-2.21-8.79-3.91,6.89-3.26-.75-.39-6.03-3.91,9.38-7.04-.7-1.3-8.68-2.61,6.91-6.52.39-1.82-9.13-3.4,10.51h-2.99l-1.63-5.81-3.06,7.25h-6.39l-3.35-9.21-1.47,6.39-2.87.26-1.27-6.65-4.4,3.58-6.26-1.53,7.61-11.2,55.66-2.27Z"/><path class="cls-37" d="M211.49,284.91l3.32-26.2c-16.52-1.68-50.17-2.61-67.29-5.02l-7.87,29.3-6.76,8.96,8.61,2.36,8.13-10.24-1.88,7.35,6.92,1.33,8.19-9.16.85,8.36h6.97l6.8-8.46-1.69,13.2,8.36.48,6.95-8.16,3.73,8.78,6.07.35,1.08-9.81,3.56,7.3,8.87-1.04-2.95-9.66Z"/><polygon class="cls-21" points="211.49 284.91 219.04 296.63 224.91 296.63 223.44 286.34 233.55 292.84 237.95 290.91 232.47 281.94 233.06 259.88 213.58 259.55 211.49 284.91"/><path class="cls-13" d="M216.48,235.46c-.42.4-3.55,33.89-3.55,33.89l5.11,11.47h8.05v-9.38l5.73,7.58h6.13l-4.4-8.71.42-29.14-17.49-5.71Z"/><polygon class="cls-65" points="148.83 244.86 144.18 265.47 138.51 276.05 147.18 276.91 153.76 267.64 154.54 276.91 159.62 277.91 164.31 267.88 165.91 279.43 169.37 280.43 175.02 267.88 175.83 275.51 180.14 275.51 183.08 269.29 185.03 281.61 194.22 281.61 200.48 271.44 204.19 281.61 213.38 281.13 211.36 270.31 218.03 276.05 220.64 272.81 212.97 268.3 215.87 241.17 148.83 244.86"/><polygon class="cls-61" points="236.9 73.43 229.27 73.43 231.05 13.49 234.98 14.35 236.9 73.43"/><path class="cls-5" d="M214.81,247.94l2.46-23.08c-14.3-1.36-47.98-2.16-62.98-4.33l-6.22,28.35-6.59,14.24h9.93l7.46-10.19,2.16,11h6.63l6.58-11.93.83,9.97h6.86l3.35-8.29v16.15h4.86l7.82-14.81.78,5.98h3.52l3.63-8.08,3.54,11.87h5.39v-16.86Z"/><polygon class="cls-9" points="229.27 73.43 217.05 63.07 226.1 14.35 231.05 13.49 229.27 73.43"/><polygon class="cls-32" points="217.59 221.88 214.81 247.94 220.29 263.12 228.66 261.98 228.19 252.93 235.49 259.55 239.27 258.91 233.88 248.23 235 221.45 217.59 221.88"/><polygon class="cls-60" points="157.75 206.04 152.63 228.71 147.87 237.98 153.76 240.38 161.36 236.08 161.96 245.89 167.15 246.48 172.78 234.87 172.78 243.68 180.4 244.8 186.64 235.42 184.48 246.61 189.85 247.06 194.56 240.38 193.37 248.24 199.5 250.32 206.67 238.17 206.27 247.06 212.4 247.06 215.82 238.17 218.83 209.89 157.75 206.04"/><polygon class="cls-6" points="218.83 209.89 215.82 238.17 218.43 251.29 225.43 251.29 223.75 241.46 232 248.3 237.95 246.32 234.97 240.38 238.99 242.76 242.12 238.17 234.42 235.46 235.46 210.47 218.83 209.89"/><path class="cls-24" d="M219.39,219.55l1.74-30.86c-14.31-1.36-43.47-2.65-59.25-.95l-5.82,25.81-4.1,5.25,8.75,4.07,7.37-6.62.15,9.27,9.18.19,5.96-10.79-1.87,12.18h4.83l6.87-8.29-1.79,11.31,8.36,1.63,6.77-12.81.14,7.19,8.14,1.89,4.58-8.47Z"/><polygon class="cls-63" points="219.39 219.55 223.52 230.13 228.22 230.13 227.04 219.83 236.76 225.44 240.08 223.62 235.16 217.81 236.27 191.38 219.39 187.75 219.39 219.55"/><path class="cls-33" d="M219.88,200.38l2.79-26.2c-13.9-1.68-42.2-2.61-56.6-5.02l-6.62,29.3-5.68,8.96,7.25,2.36,6.84-10.24-1.58,7.35,5.82,1.33,6.89-9.16.72,8.36h5.86l5.72-8.46-1.42,13.2,7.03.48,5.84-8.16,3.14,8.78,5.11.35.91-9.81,3,7.3,7.46-1.04-2.48-9.66Z"/><polygon class="cls-51" points="169.21 156.01 163.89 178.86 158.86 189.68 166.03 192.41 171.5 185.16 169.56 194.54 176.84 194.8 185.32 184.01 184.02 191.72 193.14 193.09 200.95 184.01 199.13 193.09 204.08 193.95 211.57 185.69 209.27 197.17 218.29 198.16 222.36 185.08 225.21 158.42 169.21 156.01"/><polygon class="cls-44" points="219.88 200.38 225.85 211.21 230.54 211.21 229.37 200.92 237.45 207.42 240.97 205.49 235.99 197.92 237.06 174.46 222.58 175.09 219.88 200.38"/><polygon class="cls-22" points="224.12 156.08 221.71 183.28 223.79 195.09 231.06 194.3 231.06 185.41 237.97 191.69 244.36 188.4 237.06 181.02 237.83 154.14 224.12 156.08"/><polygon class="cls-4" points="223.43 170.01 229.39 180.84 234.08 180.84 232.91 170.55 240.99 177.05 244.51 175.12 237.4 169.16 238.25 144.19 226.12 144.72 223.43 170.01"/><path class="cls-41" d="M224.15,166.98l3.47-32.36c-13.16-1.36-38.84-.95-53.35.75l-7.08,28.9-6.16,6.78,10.44,2.53,6.78-6.62.14,9.27,8.44.19,5.48-10.79-1.72,12.18h4.44l6.32-8.29-1.65,11.31,7.69,1.63,6.22-12.81.13,7.19,9.82,1.72.58-11.59Z"/><polygon class="cls-20" points="226.5 134.32 238.66 134.32 237.83 154.14 240.97 162.47 236.54 162.47 232.63 156.47 233.16 164.27 226.5 164.27 223.57 154.16 226.5 134.32"/><path class="cls-8" d="M228.66,118.07s10.22,1.52,10.61,1.65-.66,15.65-.66,15.65l5.74,9.1h-4.18l-5.86-5.71,1.37,4.19h-5.67l-2.54-4.82.54-14,.65-6.07Z"/><path class="cls-46" d="M170.83,148.12l5.31-23.72c13.08,1.88,35.29,6.03,50.75,7.87l-3.32,21.9-2.38,10.11-5.34-1.81-1.47-6.64-5.36,8.73-4.53-.52-1.32-8.08-5.86,5.86-4.95-1.08.65-7-9.43,10.82-6.72-.78,2.13-10.75-5.19,6.82-8.65-2.98,5.68-8.75Z"/><polygon class="cls-23" points="228.01 124.13 227.48 138.13 224.37 144.16 216.14 143.9 215.65 135.37 207.86 144.74 198.25 143.9 197.63 136.86 189.04 143.44 180.35 141.48 184.36 132.3 178.16 139.6 168.72 138.49 175.26 128.32 201.51 12.27 208.62 11.5 207.26 72.38 256.44 103.49 256.44 115.79 244.36 116.78 251.91 119.59 249.7 125.32 239.27 119.72 228.66 118.07 228.01 124.13"/><polygon class="cls-62" points="261.05 118.87 251.63 116.18 244.36 116.78 251.91 119.59 261.05 118.87"/><path class="cls-17" d="M36.79,303.36c-1.43,4.08-2.39,8.75-2.74,14.08,4.97,1.73,21.43,1.47,21.43,1.47-.92-14.59-.99-33.13,21.91-27.65h0c-15.1-3.67-29.39-3.68-40.6,12.1Z"/><path class="cls-31" d="M219.34,99.07c1.83,8.16-1.2,15.79-6.76,17.03-5.56,1.25-11.55-4.36-13.38-12.52-1.83-8.16,1.2-15.79,6.76-17.03,5.56-1.25,11.55,4.36,13.38,12.52Z"/><path class="cls-54" d="M218.35,98.56c1.64,7.31-1.07,14.13-6.05,15.25s-10.34-3.9-11.98-11.21c-1.64-7.31,1.07-14.13,6.05-15.25,4.98-1.11,10.34,3.9,11.98,11.21Z"/><path class="cls-31" d="M212.48,99.93c.58,2.61-.38,5.04-2.16,5.44-1.78.4-3.69-1.39-4.27-4-.58-2.61.38-5.04,2.16-5.44,1.78-.4,3.69,1.39,4.27,4Z"/><polygon class="cls-16" points="228.66 118.07 238.87 129.41 239.27 119.72 228.66 118.07"/><polygon class="cls-17" points="192.8 353.93 206.94 353.93 205.89 357.28 193.36 357.28 192.8 353.93"/><polygon class="cls-17" points="113.26 353.93 127.2 353.93 126.31 357.28 113.78 357.28 113.26 353.93"/><polygon class="cls-17" points="95.81 353.93 109.98 353.93 108.93 357.28 96.41 357.28 95.81 353.93"/><polygon class="cls-17" points="216.83 353.93 230.85 353.93 230.85 357.28 218.32 357.28 216.83 353.93"/><path class="cls-40" d="M178.04,116.18c-3.08,3.16-14.25,6.93-15.87,7.06,1.64,1.95,5.16,5.21,5.16,5.21,3-.91,10.96-6.13,13.69-11.47-1.57-.26-2.98-.8-2.98-.8Z"/><path class="cls-40" d="M185.45,119.41c-2.15,4.94-4.42,11.4-4.42,11.4l7.21.45,5.1-8.07-7.88-3.79Z"/><polygon class="cls-40" points="193.33 123.2 190.78 134.61 198.06 134.32 200.73 124.4 193.33 123.2"/><polygon class="cls-40" points="213.11 127.15 211.06 138.49 217.28 138.49 220.64 127.77 213.11 127.15"/><polygon class="cls-68" points="201.51 12.27 193.33 4.31 200.73 0 203.62 9.4 204.41 .99 211.06 .99 208.62 11.5 201.51 12.27"/><polygon class="cls-61" points="208.62 11.5 213.21 3.14 214.38 3.14 213.3 9.79 219.07 8.61 221.03 12.27 213.27 12.36 208.62 11.5"/><polygon class="cls-68" points="226.1 14.35 222.69 8.71 227.48 7.24 228.06 10.8 229.27 3.92 231.05 4.41 231.05 11.5 234.61 7.75 236.37 9.14 231.05 13.49 226.1 14.35"/><polygon class="cls-61" points="231.05 13.49 237.45 9.98 239.11 10.67 234.98 14.35 231.05 13.49"/><polygon class="cls-18" points="223.97 25.81 228.72 27.71 227.8 33.31 223.02 30.92 223.97 25.81"/><polygon class="cls-18" points="195.81 37.5 202.2 39.83 201.48 44.13 197.83 43.46 203.3 47.39 202.2 53.22 193.04 49.7 195.81 37.5"/><polygon class="cls-26" points="178.24 166.97 192.31 165.63 186.82 176.42 178.38 176.23 178.24 166.97"/><polygon class="cls-26" points="201.35 169.52 213.62 169.65 207.39 182.46 199.7 180.83 201.35 169.52"/><polygon class="cls-26" points="219.39 219.55 227.04 219.83 228.22 230.13 223.52 230.13 219.39 219.55"/><polygon class="cls-26" points="181.5 227.09 186.32 227.09 193.2 218.81 183.37 214.92 181.5 227.09"/><polygon class="cls-26" points="161.36 236.08 172.78 234.87 167.15 246.48 161.96 245.89 161.36 236.08"/><polygon class="cls-26" points="200.48 271.44 211.36 270.31 213.38 281.13 204.19 281.61 200.48 271.44"/><polygon class="cls-26" points="177.51 283.49 191.13 289 184.18 297.17 175.82 296.69 177.51 283.49"/><polygon class="cls-26" points="136.87 310.41 145.86 312.95 145.08 321.55 138.82 321.36 136.87 310.41"/><polygon class="cls-26" points="165.41 321.16 165.02 310.41 171.86 313.54 169.12 321.16 165.41 321.16"/><polygon class="cls-26" points="112.23 312.37 128.07 313.34 125.14 320.97 116.34 321.75 112.23 312.37"/><polygon class="cls-26" points="193.01 153.74 183.58 164.55 176.86 163.78 178.99 153.02 193.01 153.74"/><polygon class="cls-26" points="191.3 198.96 202.75 204.47 196.91 212.64 189.88 212.16 191.3 198.96"/><polygon class="cls-26" points="158.86 252.93 174.23 252.01 167.66 263.93 161.02 263.93 158.86 252.93"/><polygon class="cls-26" points="165.12 298.22 173.86 299.42 172.54 309.14 167.07 309.14 165.12 298.22"/><polygon class="cls-26" points="123.8 299.36 136.05 299.36 132.14 308.74 125.1 308.04 123.8 299.36"/><polygon class="cls-26" points="104.83 302.23 92.03 300.27 95.39 309.48 101.77 309.48 104.83 302.23"/><polygon class="cls-26" points="138.51 323.67 151.96 322.3 146.42 332.86 141.48 333.05 138.51 323.67"/><polygon class="cls-15" points="223.57 154.16 232.63 156.47 233.16 164.27 226.5 164.27 223.57 154.16"/><polygon class="cls-17" points="211.57 185.69 200.95 184.01 199.13 193.09 204.08 193.95 211.57 185.69"/><polygon class="cls-17" points="194.56 240.38 206.67 238.17 199.5 250.32 193.37 248.24 194.56 240.38"/><polygon class="cls-17" points="223.44 286.34 211.49 284.91 219.04 296.63 224.91 296.63 223.44 286.34"/><polygon class="cls-17" points="143.61 299.25 136.05 299.36 136.44 305.39 139.7 306.14 143.61 299.25"/><polygon class="cls-17" points="170.33 336.2 181.02 335.56 178.88 340.3 173.53 340.3 170.33 336.2"/></g></g></g></svg>