<?xml version="1.0" encoding="UTF-8"?><svg xmlns="http://www.w3.org/2000/svg" xmlns:xlink="http://www.w3.org/1999/xlink" viewBox="0 0 247.29 251.13"><defs><style>.cls-1{fill:url(#linear-gradient-48);}.cls-1,.cls-2,.cls-3,.cls-4,.cls-5,.cls-6,.cls-7,.cls-8,.cls-9,.cls-10,.cls-11,.cls-12,.cls-13,.cls-14,.cls-15,.cls-16,.cls-17,.cls-18,.cls-19,.cls-20,.cls-21,.cls-22,.cls-23,.cls-24,.cls-25,.cls-26,.cls-27,.cls-28,.cls-29,.cls-30,.cls-31,.cls-32,.cls-33,.cls-34,.cls-35,.cls-36,.cls-37,.cls-38,.cls-39,.cls-40,.cls-41,.cls-42,.cls-43,.cls-44,.cls-45,.cls-46,.cls-47,.cls-48,.cls-49{fill-rule:evenodd;}.cls-2{fill:url(#linear-gradient-24);}.cls-3{fill:url(#linear-gradient-13);}.cls-4{fill:url(#linear-gradient-15);}.cls-5{fill:url(#linear-gradient-19);}.cls-6{fill:url(#linear-gradient-10);}.cls-7{fill:url(#linear-gradient-46);}.cls-8{fill:url(#linear-gradient-39);}.cls-50,.cls-9,.cls-51,.cls-52{fill:#ec939f;}.cls-9,.cls-53,.cls-54,.cls-55,.cls-51,.cls-52{mix-blend-mode:multiply;}.cls-9,.cls-52{opacity:.45;}.cls-10{fill:url(#linear-gradient-32);}.cls-11{fill:url(#linear-gradient-40);}.cls-53,.cls-54,.cls-51,.cls-56{opacity:.25;}.cls-12{fill:url(#linear-gradient-31);}.cls-54,.cls-55{fill:#c52dea;}.cls-13{fill:url(#linear-gradient-3);}.cls-14{fill:url(#linear-gradient-35);}.cls-57{fill:url(#radial-gradient);}.cls-58{fill:url(#radial-gradient-3);}.cls-59{fill:url(#linear-gradient-49);}.cls-15{fill:url(#linear-gradient-26);}.cls-16{fill:url(#linear-gradient-27);}.cls-60{isolation:isolate;}.cls-17{fill:url(#linear-gradient-5);}.cls-18{fill:url(#linear-gradient-28);}.cls-19{fill:url(#linear-gradient-36);}.cls-61{opacity:.5;}.cls-61,.cls-56{fill:#f9ff80;mix-blend-mode:screen;}.cls-20{fill:url(#linear-gradient-2);}.cls-21{fill:url(#linear-gradient-18);}.cls-22{fill:url(#linear-gradient-41);}.cls-23{fill:url(#linear-gradient-30);}.cls-24{fill:url(#linear-gradient-21);}.cls-25{fill:url(#linear-gradient-33);}.cls-26{fill:url(#linear-gradient-43);}.cls-62{fill:url(#radial-gradient-2);}.cls-27{fill:url(#linear-gradient-20);}.cls-55{opacity:.15;}.cls-28{fill:url(#linear-gradient-23);}.cls-63{fill:url(#radial-gradient-4);}.cls-29{fill:url(#linear-gradient-16);}.cls-30{fill:url(#linear-gradient-38);}.cls-31{fill:url(#linear-gradient-9);}.cls-32{fill:url(#linear-gradient-12);}.cls-33{fill:url(#linear-gradient-6);}.cls-34{fill:url(#linear-gradient-44);}.cls-35{fill:url(#linear-gradient-4);}.cls-36{fill:url(#linear-gradient-42);}.cls-37{fill:url(#linear-gradient-25);}.cls-38{fill:url(#linear-gradient-7);}.cls-39{fill:url(#linear-gradient-8);}.cls-40{fill:url(#linear-gradient-22);}.cls-41{fill:url(#linear-gradient-37);}.cls-42{fill:url(#linear-gradient-17);}.cls-43{fill:url(#linear-gradient-14);}.cls-44{fill:url(#linear-gradient-34);}.cls-45{fill:url(#linear-gradient-29);}.cls-46{fill:url(#linear-gradient-11);}.cls-47{fill:url(#linear-gradient);}.cls-48{fill:url(#linear-gradient-45);}.cls-49{fill:url(#linear-gradient-47);}</style><linearGradient id="linear-gradient" x1="-2279.41" y1="793.42" x2="-2245.35" y2="793.42" gradientTransform="translate(-2209.02 856.25) rotate(145.35) scale(1 -1)" gradientUnits="userSpaceOnUse"><stop offset="0" stop-color="#b009ff"/><stop offset="1" stop-color="#f431ff"/></linearGradient><linearGradient id="linear-gradient-2" x1="-2257.02" y1="1093.2" x2="-2210.93" y2="1093.2" gradientTransform="translate(-2227.03 1116.75) rotate(132.65) scale(1 -1)" gradientUnits="userSpaceOnUse"><stop offset="0" stop-color="#fff400"/><stop offset=".26" stop-color="#ffda05"/><stop offset=".5" stop-color="#ffc909"/><stop offset=".68" stop-color="#ffc40b"/></linearGradient><linearGradient id="linear-gradient-3" x1="-2257.61" y1="1105.27" x2="-2227.45" y2="1105.27" gradientTransform="translate(-2227.03 1116.75) rotate(132.65) scale(1 -1)" gradientUnits="userSpaceOnUse"><stop offset="0" stop-color="#4a98ff"/><stop offset=".01" stop-color="#4a96ff"/><stop offset=".28" stop-color="#5977ff"/><stop offset=".53" stop-color="#6461ff"/><stop offset=".78" stop-color="#6a53ff"/><stop offset="1" stop-color="#6d4fff"/></linearGradient><linearGradient id="linear-gradient-4" x1="273.81" y1="504.88" x2="273.81" y2="473.35" gradientTransform="translate(-295.02 -181.41) rotate(-16.59)" gradientUnits="userSpaceOnUse"><stop offset="0" stop-color="#fa0"/><stop offset=".18" stop-color="#ffa106"/><stop offset=".48" stop-color="#ff8816"/><stop offset=".82" stop-color="#ff652f"/></linearGradient><linearGradient id="linear-gradient-5" x1="-1942.37" y1="420.58" x2="-1897.61" y2="420.58" gradientTransform="translate(-1933.97 305.88) rotate(163.41) scale(1 -1)" gradientUnits="userSpaceOnUse"><stop offset=".18" stop-color="#ff652f"/><stop offset=".52" stop-color="#ff8816"/><stop offset=".82" stop-color="#ffa106"/><stop offset="1" stop-color="#fa0"/></linearGradient><linearGradient id="linear-gradient-6" x1="-1942.55" y1="416.98" x2="-1912.4" y2="416.98" gradientTransform="translate(-1933.97 305.88) rotate(163.41) scale(1 -1)" xlink:href="#linear-gradient-2"/><linearGradient id="linear-gradient-7" x1="-1941.96" y1="404.92" x2="-1895.88" y2="404.92" gradientTransform="translate(-1933.97 305.88) rotate(163.41) scale(1 -1)" xlink:href="#linear-gradient"/><linearGradient id="linear-gradient-8" x1="229.14" y1="440.32" x2="229.14" y2="398.35" gradientTransform="translate(-295.02 -181.41) rotate(-16.59)" xlink:href="#linear-gradient-3"/><linearGradient id="linear-gradient-9" x1="-1095.97" y1="-337.58" x2="-1061.91" y2="-337.58" gradientTransform="translate(-1029.64 -310.75) rotate(-143.23) scale(1 -1)" xlink:href="#linear-gradient-2"/><linearGradient id="linear-gradient-10" x1="-1351.28" y1="-270.43" x2="-1305.19" y2="-270.43" gradientTransform="translate(-1282.54 -244.76) rotate(-155.93) scale(1 -1)" xlink:href="#linear-gradient-5"/><linearGradient id="linear-gradient-11" x1="-1351.87" y1="-258.37" x2="-1321.71" y2="-258.37" gradientTransform="translate(-1282.54 -244.76) rotate(-155.93) scale(1 -1)" xlink:href="#linear-gradient-3"/><linearGradient id="linear-gradient-12" x1="282.63" y1="327.77" x2="282.63" y2="305.25" gradientTransform="translate(-295.02 -181.41) rotate(-16.59)" xlink:href="#linear-gradient"/><linearGradient id="linear-gradient-13" x1="460.59" y1="1119.98" x2="503.65" y2="1119.98" gradientTransform="translate(-1034.7 -175.3) rotate(-57.19)" xlink:href="#linear-gradient-5"/><linearGradient id="linear-gradient-14" x1="460.99" y1="1105.15" x2="507.08" y2="1105.15" gradientTransform="translate(-1034.7 -175.3) rotate(-57.19)" xlink:href="#linear-gradient-2"/><linearGradient id="linear-gradient-15" x1="460.4" y1="1117.21" x2="490.56" y2="1117.21" gradientTransform="translate(-1034.7 -175.3) rotate(-57.19)" gradientUnits="userSpaceOnUse"><stop offset="0" stop-color="#6d4fff"/><stop offset=".22" stop-color="#6a53ff"/><stop offset=".47" stop-color="#6461ff"/><stop offset=".72" stop-color="#5977ff"/><stop offset=".99" stop-color="#4a96ff"/><stop offset="1" stop-color="#4a98ff"/></linearGradient><linearGradient id="linear-gradient-16" x1="465.26" y1="1135.57" x2="465.26" y2="1099.07" gradientTransform="translate(-1034.7 -175.3) rotate(-57.19)" xlink:href="#linear-gradient"/><linearGradient id="linear-gradient-17" x1="396.28" y1="425.69" x2="430.34" y2="425.69" gradientTransform="translate(-295.02 -181.41) rotate(-16.59)" xlink:href="#linear-gradient"/><linearGradient id="linear-gradient-18" x1="396.68" y1="408.43" x2="442.77" y2="408.43" gradientTransform="translate(-295.02 -181.41) rotate(-16.59)" xlink:href="#linear-gradient-5"/><linearGradient id="linear-gradient-19" x1="403.48" y1="465.95" x2="403.48" y2="402.36" gradientTransform="translate(-295.02 -181.41) rotate(-16.59)" xlink:href="#linear-gradient-3"/><linearGradient id="linear-gradient-20" x1="396.09" y1="420.49" x2="426.25" y2="420.49" gradientTransform="translate(-295.02 -181.41) rotate(-16.59)" xlink:href="#linear-gradient-2"/><linearGradient id="linear-gradient-21" x1="-544.26" y1="-265.03" x2="-501.2" y2="-265.03" gradientTransform="translate(504.76 692.97) rotate(30.37)" xlink:href="#linear-gradient-5"/><linearGradient id="linear-gradient-22" x1="-543.86" y1="-279.85" x2="-497.77" y2="-279.85" gradientTransform="translate(504.76 692.97) rotate(30.37)" xlink:href="#linear-gradient-2"/><linearGradient id="linear-gradient-23" x1="-544.45" y1="-267.79" x2="-514.29" y2="-267.79" gradientTransform="translate(504.76 692.97) rotate(30.37)" xlink:href="#linear-gradient-15"/><linearGradient id="linear-gradient-24" x1="408.2" y1="610.52" x2="408.2" y2="572.45" gradientTransform="translate(-410.34 -207.68) rotate(-21.94)" xlink:href="#linear-gradient"/><linearGradient id="linear-gradient-25" x1="-1559.77" y1="1080.03" x2="-1556.05" y2="1118.68" gradientTransform="translate(-1421.14 790.63) rotate(134.08) scale(1 -.65)" gradientUnits="userSpaceOnUse"><stop offset="0" stop-color="#6d4fff"/><stop offset=".27" stop-color="#655dff"/><stop offset=".78" stop-color="#5384ff"/><stop offset="1" stop-color="#4a98ff"/></linearGradient><linearGradient id="linear-gradient-26" x1="-1560.75" y1="1060.26" x2="-1556.2" y2="1107.54" gradientTransform="translate(-1421.14 790.63) rotate(134.08) scale(1 -.65)" xlink:href="#linear-gradient"/><linearGradient id="linear-gradient-27" x1="-1560.85" y1="1045.79" x2="-1556.54" y2="1090.6" gradientTransform="translate(-1421.14 790.63) rotate(134.08) scale(1 -.65)" xlink:href="#linear-gradient-5"/><linearGradient id="linear-gradient-28" x1="-1561.29" y1="1039.86" x2="-1558.15" y2="1072.45" gradientTransform="translate(-1421.14 790.63) rotate(134.08) scale(1 -.65)" gradientUnits="userSpaceOnUse"><stop offset=".32" stop-color="#ffc40b"/><stop offset="1" stop-color="#fff400"/></linearGradient><linearGradient id="linear-gradient-29" x1="-1354.54" y1="2617.04" x2="-1350.83" y2="2655.68" gradientTransform="translate(-1156.9 1807.02) rotate(76.58) scale(1 -.65)" xlink:href="#linear-gradient-25"/><linearGradient id="linear-gradient-30" x1="-1355.52" y1="2597.27" x2="-1350.98" y2="2644.54" gradientTransform="translate(-1156.9 1807.02) rotate(76.58) scale(1 -.65)" xlink:href="#linear-gradient"/><linearGradient id="linear-gradient-31" x1="-1355.63" y1="2582.8" x2="-1351.32" y2="2627.6" gradientTransform="translate(-1156.9 1807.02) rotate(76.58) scale(1 -.65)" xlink:href="#linear-gradient-5"/><linearGradient id="linear-gradient-32" x1="-1356.06" y1="2576.87" x2="-1352.93" y2="2609.46" gradientTransform="translate(-1156.9 1807.02) rotate(76.58) scale(1 -.65)" xlink:href="#linear-gradient-28"/><linearGradient id="linear-gradient-33" x1="-361.29" y1="2697.79" x2="-357.58" y2="2736.44" gradientTransform="translate(57.84 1839.65) rotate(14.11) scale(1 -.65)" xlink:href="#linear-gradient-25"/><linearGradient id="linear-gradient-34" x1="-362.27" y1="2678.02" x2="-357.73" y2="2725.3" gradientTransform="translate(57.84 1839.65) rotate(14.11) scale(1 -.65)" xlink:href="#linear-gradient"/><linearGradient id="linear-gradient-35" x1="-362.38" y1="2663.55" x2="-358.07" y2="2708.36" gradientTransform="translate(57.84 1839.65) rotate(14.11) scale(1 -.65)" xlink:href="#linear-gradient-5"/><linearGradient id="linear-gradient-36" x1="-362.81" y1="2657.62" x2="-359.68" y2="2690.22" gradientTransform="translate(57.84 1839.65) rotate(14.11) scale(1 -.65)" xlink:href="#linear-gradient-28"/><linearGradient id="linear-gradient-37" x1="-1911.39" y1="1135.59" x2="-1907.67" y2="1174.24" gradientTransform="translate(-731.53 1949.46) rotate(134.37) scale(1 .65)" xlink:href="#linear-gradient-25"/><linearGradient id="linear-gradient-38" x1="-1912.37" y1="1115.82" x2="-1907.82" y2="1163.1" gradientTransform="translate(-731.53 1949.46) rotate(134.37) scale(1 .65)" xlink:href="#linear-gradient"/><linearGradient id="linear-gradient-39" x1="-1912.47" y1="1101.35" x2="-1908.16" y2="1146.16" gradientTransform="translate(-731.53 1949.46) rotate(134.37) scale(1 .65)" xlink:href="#linear-gradient-5"/><linearGradient id="linear-gradient-40" x1="-1912.91" y1="1095.42" x2="-1909.77" y2="1128.01" gradientTransform="translate(-731.53 1949.46) rotate(134.37) scale(1 .65)" xlink:href="#linear-gradient-28"/><linearGradient id="linear-gradient-41" x1="-1345.87" y1="-451.45" x2="-1342.15" y2="-412.8" gradientTransform="translate(139.83 1504.13) rotate(74.37) scale(1 .65)" xlink:href="#linear-gradient-25"/><linearGradient id="linear-gradient-42" x1="-1346.84" y1="-471.22" x2="-1342.3" y2="-423.95" gradientTransform="translate(139.83 1504.13) rotate(74.37) scale(1 .65)" xlink:href="#linear-gradient"/><linearGradient id="linear-gradient-43" x1="-1346.95" y1="-485.69" x2="-1342.64" y2="-440.88" gradientTransform="translate(139.83 1504.13) rotate(74.37) scale(1 .65)" xlink:href="#linear-gradient-5"/><linearGradient id="linear-gradient-44" x1="-1347.38" y1="-491.62" x2="-1344.25" y2="-459.03" gradientTransform="translate(139.83 1504.13) rotate(74.37) scale(1 .65)" xlink:href="#linear-gradient-28"/><linearGradient id="linear-gradient-45" x1="-171.11" y1="-489.67" x2="-167.39" y2="-451.02" gradientTransform="translate(189.76 526.7) rotate(14.37) scale(1 .65)" xlink:href="#linear-gradient-25"/><linearGradient id="linear-gradient-46" x1="-172.08" y1="-509.44" x2="-167.54" y2="-462.17" gradientTransform="translate(189.76 526.7) rotate(14.37) scale(1 .65)" xlink:href="#linear-gradient"/><linearGradient id="linear-gradient-47" x1="-172.19" y1="-523.91" x2="-167.88" y2="-479.1" gradientTransform="translate(189.76 526.7) rotate(14.37) scale(1 .65)" xlink:href="#linear-gradient-5"/><linearGradient id="linear-gradient-48" x1="-172.63" y1="-529.84" x2="-169.49" y2="-497.25" gradientTransform="translate(189.76 526.7) rotate(14.37) scale(1 .65)" xlink:href="#linear-gradient-28"/><radialGradient id="radial-gradient" cx="307.05" cy="814.29" fx="307.05" fy="814.29" r="52.83" gradientTransform="translate(-549.38 -439.92) rotate(-29.8)" gradientUnits="userSpaceOnUse"><stop offset="0" stop-color="#5e41e8"/><stop offset=".09" stop-color="#5c49ea"/><stop offset="1" stop-color="#4a98ff"/></radialGradient><radialGradient id="radial-gradient-2" cx="297.16" cy="1089.33" fx="297.16" fy="1089.33" r="41.7" gradientTransform="translate(-846.71 -465.43) rotate(-43.88)" gradientUnits="userSpaceOnUse"><stop offset="0" stop-color="#a208eb"/><stop offset=".06" stop-color="#a70aec"/><stop offset=".69" stop-color="#de26f9"/><stop offset="1" stop-color="#f431ff"/></radialGradient><radialGradient id="radial-gradient-3" cx="180.27" cy="705.96" fx="180.27" fy="705.96" r="29.44" gradientTransform="translate(-270.84 -499.65) rotate(-18.28)" gradientUnits="userSpaceOnUse"><stop offset="0" stop-color="#d64a1a"/><stop offset="1" stop-color="#fa0"/></radialGradient><linearGradient id="linear-gradient-49" x1="422.79" y1="1000.3" x2="460.98" y2="1000.3" gradientTransform="translate(-902.94 -270.38) rotate(-45.63)" xlink:href="#linear-gradient-28"/><radialGradient id="radial-gradient-4" cx="442.61" cy="969.42" fx="442.61" fy="969.42" r="11.31" gradientTransform="translate(-871.86 -273.43) rotate(-44.13)" gradientUnits="userSpaceOnUse"><stop offset="0" stop-color="#6d4fff"/><stop offset=".22" stop-color="#6a53ff"/><stop offset=".47" stop-color="#6461ff"/><stop offset=".72" stop-color="#5977ff"/><stop offset=".99" stop-color="#4a96ff"/><stop offset="1" stop-color="#4a98ff"/></radialGradient></defs><g class="cls-60"><g id="Layer_2"><g id="Layer_1-2"><path class="cls-47" d="M103.21,192.65c-18.4,9.28-15.84,34.84-.99,58.47,4.45-2.19,8.34-3.58,8.34-3.58-7.84-10.81-22.94-39.41-6.66-53.89l-.69-1Z"/><path class="cls-20" d="M100.31,192.62c-17.59,9.93-24.77,30.85-21.88,41.85,2.73-.41,7.39-.91,7.39-.91-1.08-7.88.05-27.62,16.16-40.04,0-.14-1.67-.91-1.67-.91Z"/><path class="cls-13" d="M101.96,192.95c-9.76,10.6-7.97,27.1,4.19,44.61,1.95-1.19,5.41-2.52,7.98-4.28-9.69-11.43-16.98-25.76-11.34-39.55.13-.45-.84-.77-.84-.77Z"/><path class="cls-35" d="M99.44,194.99c-2.55,6.61,3.81,22.48,11.74,29.4,1.65-1.45,4.85-5.13,4.85-5.13-6.92-4.41-15.28-16.42-14.27-23.43-.01.15-2.32-.85-2.32-.85Z"/><path class="cls-17" d="M41.12,132.43c-20.37,3.12-37.01,28.24-30.22,55.31,4.91-.7,9.04-.81,9.04-.81-4.11-12.7,1.56-44.6,21.53-53.33l-.35-1.17Z"/><path class="cls-33" d="M41.47,133.59c-13.81,4.11-20.71,19.21-19.22,40.48,2.28-.02,5.94.61,9.05.4-2.48-14.78-1.42-30.82,10.49-39.79.34-.32-.32-1.09-.32-1.09Z"/><path class="cls-38" d="M40.21,132.47c-20.19-.46-37.06,13.84-40.21,24.77,2.55,1.05,6.82,3,6.82,3,3.1-7.32,14.17-23.7,34.36-26.14.07-.12-.97-1.63-.97-1.63Z"/><path class="cls-39" d="M40.35,134.34c-10.44,7-.35,32.5,6.27,41.83,7.51-2.03,10.19-3.04,10.19-3.04-7.29-8.72-20.7-32.61-15.05-37.12.24.33-1.42-1.67-1.42-1.67Z"/><path class="cls-31" d="M65,55.23c-14.66-14.48-38.07-3.91-55.74,17.69,3.5,3.52,6.05,6.77,6.05,6.77,7.74-10.88,30.05-34.3,48.96-23.48l.73-.97Z"/><path class="cls-6" d="M64.11,52.47c-15.02-13.51-37.13-13.65-46.64-7.41,1.25,2.46,3.22,6.72,3.22,6.72,7.12-3.53,26.19-8.75,43.1,2.56.14-.05.33-1.87.33-1.87Z"/><path class="cls-46" d="M64.33,54.14c-13.15-5.88-28.23,1.07-40.95,18.18,1.74,1.47,4.11,4.33,6.6,6.2,7.75-12.83,19.01-24.31,33.88-23.35.47-.02.46-1.04.46-1.04Z"/><path class="cls-32" d="M62.69,53.94c-4.49-5.76-5.15-19.91,2.68-24.2,2.63,1.9,7.19,5.19,7.19,5.19-5.01,1.65-11.64,10.18-8.23,18.62l-1.65.39Z"/><path class="cls-3" d="M137.53,32.55c11.67-19.41,35.65-26.79,59.75-12.71-2.05,4.52-3.73,7.5-3.73,7.5-11.05-7.49-41.04-10.86-55,5.87l-1.02-.66Z"/><path class="cls-43" d="M137.82,31.68C143.02,12.17,161.46-.04,172.84,0c.29,2.74.98,7.38.98,7.38-7.9.93-26.72,6.98-34.7,25.69-.14.04-1.3-1.39-1.3-1.39Z"/><path class="cls-4" d="M138.55,33.21c7.81-12.11,24.23-14.52,44.23-7.14-.66,2.19-1.08,5.87-2.14,8.8-13.5-6.51-29.2-9.97-41.13-1.05-.41.24-.96-.62-.96-.62Z"/><path class="cls-29" d="M138.55,33.21c12.07-12.44,21.82-4.57,33.76,14.99l-10.45,4.41c-3.27-7.97-7.35-31.28-22.36-18.79l-.96-.62Z"/><path class="cls-42" d="M199.3,89.9c18.75-8.54,37.08,9.46,46.22,35.83-4.5,2.1-8.01,4.27-8.01,4.27-3.52-12.88-16.37-42.56-37.86-38.93l-.35-1.17Z"/><path class="cls-21" d="M200.09,89.44c16.65-11.44,38.59-8.7,47.21-1.27-1.56,2.28-4.06,6.24-4.06,6.24-6.6-4.43-24.83-12.09-43.07-3.07-.13-.06-.08-1.9-.08-1.9Z"/><path class="cls-5" d="M199.65,91.07c17.26-1.59,21.72,15.33,28.17,55.79-1.75,1.48-7.23,4.34-7.23,4.34-6.79-21.9-1.09-58.75-20.61-59.03l-.32-1.09Z"/><path class="cls-27" d="M199.65,91.07c13.81-4.11,27.85,4.74,38.24,23.36-1.92,1.23-4.64,3.76-7.36,5.29-6.02-13.73-15.68-26.57-30.55-27.56-.46-.08-.32-1.09-.32-1.09Z"/><path class="cls-24" d="M180.32,170.1c19.89,10.83,28.29,34.47,15.25,59.15-4.6-1.85-7.65-3.4-7.65-3.4,7.01-11.36,9.1-41.47-8.22-54.7l.61-1.05Z"/><path class="cls-40" d="M181.2,170.35c19.72,4.36,32.7,22.26,33.15,33.63-2.73.41-7.34,1.29-7.34,1.29-1.27-7.85-8.11-26.4-27.15-33.57-.04-.14,1.33-1.35,1.33-1.35Z"/><path class="cls-28" d="M179.71,171.15c12.43,7.28,15.54,23.59,9.02,43.89-2.21-.56-5.91-.83-8.89-1.76,5.93-13.77,8.72-29.6-.71-41.14-.25-.39.58-.98.58-.98Z"/><path class="cls-2" d="M180.88,171.35c11.86,7.15,17.61,24.35,18.65,33.52-1.94.12-8.62,1.49-8.62,1.49.71-6.74-2.33-25.66-10.93-34.24.33-.6.9-.77.9-.77Z"/><polygon class="cls-37" points="177.85 156.74 169.53 162.47 165.09 168.84 180.26 176.01 184.84 171.28 177.85 156.74"/><polygon class="cls-9" points="169.53 162.47 181.89 174.33 180.26 176.01 165.09 168.84 169.53 162.47"/><polygon class="cls-15" points="171.39 144.59 176.73 153.74 182.55 157.31 180.29 159.96 174.95 159.59 177.49 167.5 174.64 170.16 167.85 166.57 168.32 172.29 164.88 175.37 163.06 168.58 154.73 163.9 171.39 144.59"/><polygon class="cls-9" points="167.85 166.57 168.77 164.11 161.02 156.61 154.73 163.9 163.06 168.58 164.88 175.37 168.32 172.29 167.85 166.57"/><polygon class="cls-16" points="167.25 135.3 172.13 144.59 178.32 147.52 174.52 151.24 169.62 150.2 173.16 156.47 169.18 160.59 164.5 156.63 165.32 160.56 162.75 162.06 160.18 160.71 160.21 168.71 157.12 169.99 154.55 164.61 145.17 159.92 167.25 135.3"/><polygon class="cls-9" points="160.21 168.71 160.18 160.71 162.09 158.91 153.75 150.35 145.17 159.92 154.55 164.61 157.12 169.99 160.21 168.71"/><polygon class="cls-18" points="165.18 130.17 167.77 135.53 173.39 135.84 170.54 139.35 165.12 139.79 168.33 144.89 164.32 149.98 157.63 147.91 158.98 155.49 155.49 157.66 152.17 154.31 151.48 161.33 146.93 164.89 144.53 159.72 138.81 157.32 152.49 142.23 165.18 130.17"/><polygon class="cls-9" points="138.81 157.32 144.53 159.72 146.93 164.89 151.48 161.33 152.17 154.31 154.09 152.04 148.22 146.94 138.81 157.32"/><polygon class="cls-52" points="161.63 133.8 150.24 146.17 164.32 149.98 168.33 144.89 161.63 133.8"/><polygon class="cls-54" points="164.5 156.63 160.18 160.71 162.75 162.06 165.32 160.56 164.5 156.63"/><polygon class="cls-56" points="176.73 153.74 174.95 159.59 180.29 159.96 182.55 157.31 176.73 153.74"/><polygon class="cls-45" points="186.95 85.68 187.31 95.77 190.3 102.94 204.5 94 202.97 87.6 186.95 85.68"/><polygon class="cls-9" points="187.31 95.77 203.95 91.73 204.5 94 190.3 102.94 187.31 95.77"/><polygon class="cls-23" points="173.23 84.59 183.82 85.01 189.95 82.02 190.97 85.35 187.8 89.66 195.83 91.76 196.54 95.59 189.86 99.39 194.94 102.07 195.69 106.62 188.98 104.52 180.56 109.02 173.23 84.59"/><polygon class="cls-9" points="189.86 99.39 188.29 97.3 177.79 99.8 180.56 109.02 188.98 104.52 195.69 106.62 194.94 102.07 189.86 99.39"/><polygon class="cls-12" points="163.17 83.1 173.63 83.97 179.42 80.33 180.53 85.53 177.01 89.1 184.2 89.49 185.53 95.06 179.68 96.88 183.43 98.3 183.32 101.27 180.8 102.71 187.56 106.99 186.98 110.28 181.07 109.56 172.07 114.94 163.17 83.1"/><polygon class="cls-9" points="187.56 106.99 180.8 102.71 180.3 100.14 168.61 102.57 172.07 114.94 181.07 109.56 186.98 110.28 187.56 106.99"/><polygon class="cls-10" points="157.74 82.08 163.64 82.78 166.92 78.21 168.36 82.49 165.81 87.3 171.84 87.34 173.98 93.45 168.64 97.99 175.76 100.92 175.71 105.03 171.1 106.02 176.65 110.38 177.2 116.13 171.56 115.38 166.45 118.91 161.08 99.26 157.74 82.08"/><polygon class="cls-9" points="166.45 118.91 171.56 115.38 177.2 116.13 176.65 110.38 171.1 106.02 170.22 103.18 162.76 105.39 166.45 118.91"/><polygon class="cls-52" points="158.89 87.03 163.2 103.28 173.98 93.45 171.84 87.34 158.89 87.03"/><polygon class="cls-54" points="179.68 96.88 180.8 102.71 183.32 101.27 183.43 98.3 179.68 96.88"/><polygon class="cls-56" points="183.82 85.01 187.8 89.66 190.97 85.35 189.95 82.02 183.82 85.01"/><polygon class="cls-25" points="128.55 43.64 137.66 47.98 145.41 48.65 144.04 31.92 137.66 30.32 128.55 43.64"/><polygon class="cls-9" points="137.66 47.98 141.78 31.35 144.04 31.92 145.41 48.65 137.66 47.98"/><polygon class="cls-44" points="121.24 55.3 126.51 46.1 126.7 39.28 130.12 39.92 132.47 44.73 138.05 38.57 141.77 39.71 142.06 47.39 146.78 44.13 151.16 45.57 146.2 50.54 146.3 60.09 121.24 55.3"/><polygon class="cls-9" points="142.06 47.39 139.47 47.82 136.84 58.28 146.3 60.09 146.2 50.54 151.16 45.57 146.78 44.13 142.06 47.39"/><polygon class="cls-14" points="115.27 63.53 120.88 54.66 120.33 47.84 125.45 49.27 126.99 54.04 130.66 47.83 136.22 49.23 135.12 55.26 138.12 52.59 140.7 54.06 140.81 56.96 147.73 52.95 150.38 54.98 147.01 59.89 147.62 70.36 115.27 63.53"/><polygon class="cls-9" points="147.73 52.95 140.81 56.96 138.3 56.21 135.05 67.71 147.62 70.36 147.01 59.89 150.38 54.98 147.73 52.95"/><polygon class="cls-19" points="111.86 67.88 115.21 62.97 112.67 57.94 117.13 58.65 120.23 63.13 123.04 57.81 129.45 58.73 131 65.57 136.89 60.6 140.52 62.54 139.27 67.1 145.69 64.19 151.05 66.36 147.77 71.02 148.55 77.17 128.64 72.85 111.86 67.88"/><polygon class="cls-9" points="148.55 77.17 147.77 71.02 151.05 66.36 145.69 64.19 139.27 67.1 136.34 66.57 134.85 74.2 148.55 77.17"/><polygon class="cls-52" points="116.78 69.15 133.18 72.84 129.45 58.73 123.04 57.81 116.78 69.15"/><polygon class="cls-54" points="135.12 55.26 140.81 56.96 140.7 54.06 138.12 52.59 135.12 55.26"/><polygon class="cls-56" points="126.51 46.1 132.47 44.73 130.12 39.92 126.7 39.28 126.51 46.1"/><polygon class="cls-41" points="78.87 57.29 73.37 65.76 67.12 70.37 59.54 55.4 64.14 50.7 78.87 57.29"/><polygon class="cls-9" points="73.37 65.76 61.17 53.73 59.54 55.4 67.12 70.37 73.37 65.76"/><polygon class="cls-30" points="91.2 63.41 81.9 58.33 78.17 52.61 75.59 54.94 76.1 60.27 68.12 57.94 65.55 60.86 69.32 67.55 63.58 67.24 60.6 70.76 67.44 72.4 72.34 80.6 91.2 63.41"/><polygon class="cls-9" points="69.32 67.55 71.75 66.57 79.46 74.11 72.34 80.6 67.44 72.4 60.6 70.76 63.58 67.24 69.32 67.55"/><polygon class="cls-8" points="100.59 67.31 91.17 62.68 88.08 56.57 84.45 60.47 85.64 65.34 79.26 61.97 75.26 66.07 79.34 70.64 75.39 69.92 73.96 72.53 75.38 75.06 67.39 75.25 66.19 78.38 71.63 80.8 76.58 90.04 100.59 67.31"/><polygon class="cls-9" points="67.39 75.25 75.38 75.06 77.13 73.11 85.91 81.21 76.58 90.04 71.63 80.8 66.19 78.38 67.39 75.25"/><polygon class="cls-11" points="105.77 69.23 100.35 66.79 99.89 61.18 96.45 64.12 96.16 69.56 90.98 66.49 85.99 70.63 88.24 77.27 80.63 76.12 78.55 79.66 82 82.89 75 83.77 71.57 88.42 76.8 90.68 79.36 96.33 94.06 82.25 105.77 69.23"/><polygon class="cls-9" points="79.36 96.33 76.8 90.68 71.57 88.42 75 83.77 82 82.89 84.21 80.91 89.47 86.64 79.36 96.33"/><polygon class="cls-52" points="102.24 72.88 90.19 84.6 85.99 70.63 90.98 66.49 102.24 72.88"/><polygon class="cls-54" points="79.34 70.64 75.38 75.06 73.96 72.53 75.39 69.92 79.34 70.64"/><polygon class="cls-56" points="81.9 58.33 76.1 60.27 75.59 54.94 78.17 52.61 81.9 58.33"/><polygon class="cls-22" points="51.83 122.98 56.41 131.97 57.28 139.7 40.53 138.77 38.75 132.44 51.83 122.98"/><polygon class="cls-9" points="56.41 131.97 39.9 136.53 40.53 138.77 57.28 139.7 56.41 131.97"/><polygon class="cls-36" points="63.29 115.37 54.24 120.87 47.42 121.24 48.15 124.65 53.02 126.87 47.01 132.61 48.25 136.3 55.94 136.38 52.8 141.19 54.36 145.53 59.19 140.44 68.74 140.29 63.29 115.37"/><polygon class="cls-9" points="55.94 136.38 56.3 133.79 66.69 130.88 68.74 140.29 59.19 140.44 54.36 145.53 52.8 141.19 55.94 136.38"/><polygon class="cls-26" points="71.36 109.18 62.64 115.02 55.81 114.65 57.37 119.73 62.18 121.15 56.08 124.98 57.62 130.5 63.62 129.24 61.02 132.3 62.56 134.85 65.47 134.88 61.64 141.9 63.75 144.5 68.57 141 79.05 141.33 71.36 109.18"/><polygon class="cls-9" points="61.64 141.9 65.47 134.88 64.65 132.39 76.06 128.84 79.05 141.33 68.57 141 63.75 144.5 61.64 141.9"/><polygon class="cls-34" points="75.62 105.65 70.79 109.13 65.7 106.73 66.53 111.17 71.09 114.14 65.84 117.1 66.94 123.48 73.81 124.85 69.01 130.87 71.04 134.44 75.56 133.07 72.82 139.57 75.13 144.87 79.7 141.47 85.88 142.08 81.03 122.3 75.62 105.65"/><polygon class="cls-9" points="85.88 142.08 79.7 141.47 75.13 144.87 72.82 139.57 75.56 133.07 74.95 130.16 82.55 128.47 85.88 142.08"/><polygon class="cls-52" points="77.01 110.54 81.14 126.84 66.94 123.48 65.84 117.1 77.01 110.54"/><polygon class="cls-54" points="63.62 129.24 65.47 134.88 62.56 134.85 61.02 132.3 63.62 129.24"/><polygon class="cls-56" points="54.24 120.87 53.02 126.87 48.15 124.65 47.42 121.24 54.24 120.87"/><polygon class="cls-48" points="93.8 179.85 103.88 180.37 111.01 183.48 101.83 197.53 95.45 195.9 93.8 179.85"/><polygon class="cls-9" points="103.88 180.37 99.57 196.95 101.83 197.53 111.01 183.48 103.88 180.37"/><polygon class="cls-7" points="92.94 166.11 93.18 176.71 90.09 182.79 93.41 183.86 97.77 180.76 99.74 188.83 103.55 189.6 107.46 182.99 110.06 188.11 114.6 188.93 112.6 182.19 117.25 173.85 92.94 166.11"/><polygon class="cls-9" points="107.46 182.99 105.4 181.38 108.07 170.93 117.25 173.85 112.6 182.19 114.6 188.93 110.06 188.11 107.46 182.99"/><polygon class="cls-49" points="91.62 156.03 92.31 166.5 88.58 172.23 93.76 173.42 97.39 169.96 97.66 177.17 103.21 178.59 105.12 172.77 106.48 176.54 109.45 176.48 110.93 173.98 115.1 180.81 118.4 180.28 117.78 174.36 123.31 165.45 91.62 156.03"/><polygon class="cls-9" points="115.1 180.81 110.93 173.98 108.37 173.44 110.99 161.79 123.31 165.45 117.78 174.36 118.4 180.28 115.1 180.81"/><polygon class="cls-1" points="90.69 150.58 91.29 156.49 86.66 159.7 90.93 161.2 95.78 158.74 95.71 164.76 101.79 167.01 106.41 161.74 109.22 168.91 113.33 168.93 114.41 164.34 118.67 169.96 124.42 170.61 123.75 164.95 127.37 159.91 107.82 154.21 90.69 150.58"/><polygon class="cls-9" points="127.37 159.91 123.75 164.95 124.42 170.61 118.67 169.96 114.41 164.34 111.58 163.41 113.92 155.99 127.37 159.91"/><polygon class="cls-52" points="95.62 151.81 111.8 156.39 101.79 167.01 95.71 164.76 95.62 151.81"/><polygon class="cls-54" points="105.12 172.77 110.93 173.98 109.45 176.48 106.48 176.54 105.12 172.77"/><polygon class="cls-56" points="93.18 176.71 97.77 180.76 93.41 183.86 90.09 182.79 93.18 176.71"/><path class="cls-57" d="M171.37,91.63l-7.42.88,3.67-3.68-2.32-4.55-5.77,1.52,1.09-5.22-3.61-2.19-5.91,3.75,2.7-8.9-2.21-.93-5.25,5.2,1.12-5.12-4.18-2.43-5.33,2.14,1.47-6.33-3.08-1.88-4.23,6.06,1.21-8.17-6.21-1.84-2.95,6.87-1.36-5.02-5.1-.26-1.56,5.76-3.98-3.55-3.7,2.03.29,6.99-6.36-6.79-1.91,1.45,1.88,7.14-3.88-3.53-4.19,2.4-.81,5.68-4.75-4.44-3.17,1.73,3.13,6.7-6.48-5.13-4.7,4.46,4.47,5.98-5.02-1.33-2.78,4.29,4.2,4.23-5.04.51.57,4.11,5.52,4.51-9.06,2.12.3,2.38,7.13,1.94-4.99,1.59-.02,4.83,4.51,3.54-6.22,1.9-.09,3.61,7.36.64-7.68,3.04,1.51,6.3,7.42-.88-3.67,3.68,2.32,4.55,5.77-1.52-2.17,4.57,3.83,2.33,6.77-3.23-2.7,8.9,2.21.93,5.25-5.2-1.12,5.12,4.18,2.43,5.33-2.14-1.47,6.33,3.08,1.88,4.23-6.06-1.21,8.17,6.21,1.84,2.95-6.87,1.36,5.02,5.1.26,1.56-5.76,3.98,3.55,3.7-2.03-.29-6.99,6.36,6.79,1.91-1.45-1.88-7.14,3.88,3.53,4.19-2.4.81-5.68,4.75,4.44,3.17-1.73-3.13-6.7,6.48,5.13,4.7-4.46-4.47-5.98,5.02,1.33,2.78-4.29-4.2-4.23,5.07-1.67.09-4.22-6.2-3.24,9.06-2.12-.3-2.38-7.13-1.94,4.99-1.59.02-4.83-4.51-3.54,6.22-1.9.09-3.61-7.36-.64,7.68-3.04-1.51-6.3ZM135.74,141.7c-36.84,17.48-63.82-35.83-27.93-55.17,36.84-17.48,63.82,35.83,27.93,55.17Z"/><path class="cls-51" d="M172.89,119.02l-7.13-1.94,4.99-1.59.02-4.83-4.51-3.54,6.22-1.9.09-3.61-7.36-.64,7.68-3.04-1.51-6.3-7.42.88,3.67-3.68-2.32-4.55-5.77,1.52,1.09-5.22-3.58-2.17c7.09,16.96,2.7,36.8-8.82,52.05-1.5,2.36-3.42,4.59-5.77,6.63-11.59,11.65-27.86,19.12-46.14,17.82l-.2.92,4.18,2.43,5.33-2.14-1.47,6.33,3.08,1.88,4.23-6.06-1.21,8.17,6.21,1.84,2.95-6.87,1.36,5.02,5.1.26,1.56-5.76,3.98,3.55,3.7-2.03-.29-6.99,6.36,6.79,1.91-1.45-1.88-7.14,3.88,3.53,4.19-2.4.81-5.68,4.75,4.44,3.17-1.73-3.13-6.7,6.48,5.13,4.7-4.46-4.47-5.98,5.02,1.33,2.78-4.29-4.2-4.23,5.07-1.67.09-4.22-6.2-3.24,9.06-2.12-.3-2.38Z"/><path class="cls-52" d="M93.29,154.62c-1.08-.13-2.17-.29-3.26-.49l-.26.85,2.21.93,1.31-1.3Z"/><polygon class="cls-54" points="93.48 79.1 88.69 83.08 85.56 76.39 88.72 74.66 93.48 79.1"/><polygon class="cls-54" points="77.8 111.15 77.31 121.12 72.79 117.58 72.81 112.74 77.8 111.15"/><polygon class="cls-54" points="79.61 135.72 84.03 142.42 78.27 143.95 75.94 139.4 79.61 135.72"/><polygon class="cls-54" points="170.77 110.65 166.26 107.11 165.76 117.08 170.75 115.49 170.77 110.65"/><polygon class="cls-56" points="76.96 87.06 81.99 88.39 78.39 95.58 74.19 91.35 76.96 87.06"/><polygon class="cls-56" points="92.46 146.09 84.03 142.42 81.86 146.99 85.7 149.32 92.46 146.09"/><polygon class="cls-54" points="153.79 73.24 151.1 82.14 146.34 77.51 151.58 72.31 153.79 73.24"/><polygon class="cls-56" points="132.11 69.94 124.16 66.79 127.11 59.93 133.31 61.76 132.11 69.94"/><polygon class="cls-54" points="141.2 153.69 150.09 149.13 149.27 154.81 145.08 157.21 141.2 153.69"/><path class="cls-62" d="M153.66,87.16l-1.78-2.92-7.99,4.08,3.98-6.5-3.78-2.14-4.54,4.45.54-4.77-2.5-1.14-5.17,6.26,1.57-6.76-3.87-.06-2.44,3.98,1.35-7.58-4.59-1.54-2.47,6.21-1.52-7.26-4.93,1.09.31,6.22-3-5.08-3,.81.75,7.71-3.64-6.69-3.75,2.21,1.59,6.16-2.66-1.96-2.97,1.96,2.37,6.35-5.65-5.28-2.56,1.74,3.38,6.23-6.94-4.02-1.65,1.46,4.25,6.32-7.14-1.47-.84,2.61,4.8,3.13-4.29.42-.07,3.78,3.85,2.87-7.62-.19.04,4.35,6.13,1.7-2.78,1.21,1.57,3.93,5.08.85-7.38,1.54.85,2.85,6.44,1.13-4.67,2.83,1.14,2.99,4.15.83-3.94,5.05,1.65,1.81,5.27-2.08-1.96,2.83,2.05,3,5.36-2.74-3.98,6.5,3.78,2.14,4.54-4.45-.54,4.77,2.5,1.14,5.17-6.26-2.14,9.23,2.52.73,4.37-7.12-1.35,7.58,4.59,1.54,2.9-5.58,1.09,6.63,4.93-1.09-.93-6.24,1.99,5.62,3.42-.08.46-8.96,2.13,3.92,4.18-1.44-.51-4.14,3.86,2.85,2.24-1.59-2.84-7.61,6.92,6.47,1.89-1.81-3.99-7.34,5.89,4.96,3.62-3.21-3.82-5.82,6.73,2.88,1.52-4.81-3.39-2.46,3.7-.37-.94-3.7-5.26-2.58,5.47.14.41-2.58-4.42-3.42,4.4-1.92-.26-2.74-8.01-1.34,6.29-1.61-.16-3.43-6.04-.48,7.24-2.62-.96-4.74-7.94.37,6.85-4.35-3.41-3.72-4.89,2.76,3.82-3.36ZM134.58,129.25c-20.16,16.23-44.81-13.35-25.21-30.25,20.16-16.23,44.81,13.35,25.21,30.25Z"/><g class="cls-53"><path class="cls-50" d="M144.08,79.68l-3.2,3.14c1.38,1.25,2.67,2.62,3.87,4.09l3.12-5.1-3.78-2.14Z"/><path class="cls-50" d="M123.87,73.97c1.67.38,3.31.87,4.92,1.47l.24-1.37-4.59-1.54-.57,1.44Z"/><path class="cls-50" d="M139.8,81.88l.29-2.52-2.5-1.14-1.01,1.23c1.11.75,2.19,1.56,3.23,2.43Z"/><path class="cls-50" d="M154.73,87.77l-4.89,2.76,3.82-3.36-1.78-2.92-6.58,3.36c1.21,1.56,2.31,3.24,3.29,5.02,2.73,4.99,4.21,10.33,4.55,15.66l6.01-1.54-.16-3.43-6.04-.48,7.24-2.62-.96-4.74-7.94.37,6.85-4.35-3.41-3.72Z"/><path class="cls-50" d="M161.16,117.76l-4.42-3.42,4.4-1.92-.26-2.74-7.72-1.29c.86,14.12-6.29,28.15-19.53,35.39-5.63,3.08-11.69,4.56-17.69,4.62l-1.03,5.76,4.59,1.54,2.9-5.58.98,5.96c1.47-.02,2.94-.11,4.41-.28l.63-.14-.93-6.24,1.99,5.62,3.06-.07c.12-.03.24-.05.37-.08l.46-8.89,2.13,3.92,4.18-1.44-.51-4.14,3.86,2.85,2.24-1.59-2.84-7.61,6.92,6.47,1.89-1.81-3.99-7.34,5.89,4.96,3.62-3.21-3.82-5.82,6.73,2.88,1.52-4.81-3.39-2.46,3.7-.37-.94-3.7-5.26-2.58,5.47.14.41-2.58Z"/><path class="cls-50" d="M90.15,138.59c-.71-.65-1.4-1.32-2.06-2.02l-.43.55,1.65,1.81.83-.33Z"/><path class="cls-50" d="M95.15,142.43c-.39-.25-.77-.51-1.15-.77l.69,1.01.46-.24Z"/><path class="cls-50" d="M115.15,148.42c-1.55-.02-3.1-.13-4.63-.33l-1.14,4.92,2.52.73,3.25-5.31Z"/><path class="cls-50" d="M133.96,77.84l.03-.12h-.26c.08.04.16.08.24.12Z"/><path class="cls-50" d="M108.27,147.7c-1.41-.28-2.8-.63-4.16-1.06l-.25,2.25,2.5,1.14,1.92-2.32Z"/><path class="cls-50" d="M102.42,146.06c-1.64-.61-3.24-1.33-4.79-2.17l-1.55,2.54,3.78,2.14,2.56-2.51Z"/><path class="cls-50" d="M120.86,73.42l-.4-1.93-4.93,1.09.02.46c1.78,0,3.56.13,5.31.38Z"/></g><polygon class="cls-54" points="101.52 90.25 107.04 85.32 102.12 81.94 99.15 83.9 101.52 90.25"/><polygon class="cls-54" points="87.21 113.9 91.08 119.9 86 119.05 84.43 115.11 87.21 113.9"/><polygon class="cls-54" points="127.68 81.65 132.42 84.48 133.99 77.72 130.12 77.66 127.68 81.65"/><polygon class="cls-54" points="153.66 87.16 149.84 90.52 143.89 88.32 151.88 84.24 153.66 87.16"/><polygon class="cls-54" points="100.05 139.93 94.59 136.84 92.63 139.67 94.69 142.67 100.05 139.93"/><polygon class="cls-54" points="111.52 143.77 116.26 146.6 111.89 153.73 109.38 153 111.52 143.77"/><polygon class="cls-54" points="133.36 146.01 139.16 144.34 139.67 148.48 135.49 149.92 133.36 146.01"/><polygon class="cls-54" points="155.28 120.2 160.54 122.78 161.48 126.49 155.13 127.16 155.28 120.2"/><polygon class="cls-56" points="92.35 96.7 96.7 92.94 89.76 88.91 88.1 90.38 92.35 96.7"/><polygon class="cls-56" points="121.97 78.74 120.45 71.48 115.53 72.58 115.83 78.8 121.97 78.74"/><polygon class="cls-56" points="100.05 139.93 96.08 146.43 99.86 148.57 104.4 144.12 100.05 139.93"/><polygon class="cls-56" points="152.95 102.83 151.29 95.84 159.23 95.47 160.19 100.21 152.95 102.83"/><path class="cls-58" d="M142.78,105.63l6.62-3.73-1.02-2.55-5.83,1.14.83-1.92-1.51-1.72-4,2.64,4.02-5.71-2.34-2.43-6.64,3.33,2.63-3.23-3.12-1.9-1.84,2.26.15-4.91-3.82-1.12-1.96,5.92.08-7.6-2.72-.4-1.97,6.62-1.21-2.68-2.24.44.29,4.79-2.93-6.33-3.28.81-.44,7.42-1.49-3.89-3.21,1.76,1.04,2.73-4.18-2.59-2.88,2.74,4.15,4.66-6.54-3.87-1.7,2.16,5.29,4.7-3.47.03-.74,2.17,4.29,2.15-6.95-.63-.94,3.24,6.2,4.09-4.11-.66-.08,3.65,2.88.47-4.33,2.33.94,3.87,6.11-1.26-6.62,3.73,1.02,2.55,5.83-1.14-.83,1.92,1.51,1.72,4-2.64-4.02,5.71,2.34,2.43,6.64-3.33-2.63,3.23,3.12,1.9,1.85-2.26-.15,4.91,3.82,1.12,1.96-5.92-.08,7.6,2.72.4,1.84-6.94,1.34,3,2.24-.44-.29-4.79,2.93,6.33,3.28-.81.44-7.42,1.49,3.89,3.21-1.76-1.04-2.73,4.18,2.59,2.88-2.74-4.15-4.66,6.54,3.87,1.7-2.16-3.9-4.48,2.08-.24.74-2.17-4.29-2.15,6.95.63.94-3.24-6.2-4.09,4.11.66.08-3.65-2.88-.47,4.33-2.33-.94-3.87-6.11,1.26Z"/><g class="cls-53"><path class="cls-50" d="M132.41,89.54l-1.56,1.91c.85.89,1.62,1.85,2.33,2.88l2.36-2.9-3.12-1.9Z"/><path class="cls-50" d="M150.38,118.11l-6.2-4.09,4.11.66.08-3.65-2.88-.47,4.33-2.33-.94-3.87-6.11,1.26,6.62-3.73-1.02-2.55-5.83,1.14.83-1.92-1.51-1.72-4,2.64,4.02-5.71-2.34-2.43-6.27,3.14c1.14,1.7,2.08,3.57,2.75,5.6,3.98,12.06-2.56,25.06-14.62,29.04-8.33,2.75-17.1.48-23.05-5.16l-4.19,2.36,1.02,2.55,5.83-1.14-.83,1.92,1.51,1.72,4-2.64-4.02,5.71,2.34,2.43,6.64-3.33-2.63,3.23,3.12,1.9,1.85-2.26-.15,4.91,3.82,1.12,1.96-5.92-.08,7.6,2.72.4,1.84-6.94,1.34,3,2.24-.44-.29-4.79,2.93,6.33,3.28-.81.44-7.42,1.49,3.89,3.21-1.76-1.04-2.73,4.18,2.59,2.88-2.74-4.15-4.66,6.54,3.87,1.7-2.16-3.9-4.48,2.08-.24.74-2.17-4.29-2.15,6.95.63.94-3.24Z"/><path class="cls-50" d="M94.68,123.86l2.95-.61c-1.1-1.14-2.08-2.4-2.93-3.77l-.96.51.94,3.87Z"/><path class="cls-50" d="M124.98,87.01l.03-2.92-2.72-.4-.57,1.9c1.12.39,2.21.86,3.26,1.42Z"/><path class="cls-50" d="M126.9,85.77l-.65,1.97c1.57.96,3.03,2.11,4.34,3.43l.13-4.28-3.82-1.12Z"/></g><polygon class="cls-54" points="106.85 95.36 110.51 94.76 109.02 90.87 105.82 92.63 106.85 95.36"/><polygon class="cls-54" points="130.56 91.8 132.9 94.67 135.53 91.44 132.41 89.54 130.56 91.8"/><polygon class="cls-54" points="146.79 122.87 142.5 120.72 141.09 125.43 146.05 125.03 146.79 122.87"/><polygon class="cls-54" points="111.16 138.68 113.01 136.42 110.67 133.55 108.04 136.79 111.16 138.68"/><polygon class="cls-54" points="100.19 129.66 101.89 125.99 105.7 128.75 101.7 131.39 100.19 129.66"/><polygon class="cls-56" points="101.07 107.5 99.39 114.21 93.19 110.12 94.12 106.87 101.07 107.5"/><polygon class="cls-56" points="132.9 94.67 137.87 99.48 141.88 93.77 139.54 91.34 132.9 94.67"/><polygon class="cls-56" points="133.06 133.46 132.62 140.88 129.35 141.69 126.42 135.36 133.06 133.46"/><path class="cls-59" d="M137.04,102.17l-5.55,1.27,1.96-4.5-2.08-.99-4.56,3.99,1.16-5.55-2.66-1.22-3.63,4.79-.45-4.62-2.13-.5-1.84,3.8-2.75-2.31-1.9,1.31,1.17,5.95-5.41-4.16-2.39,1.76,3.52,5.85-4.23-1.93-1.49,1.59,3.59,4.23-5.59.13-.16,2.96,7.08,1.66-3.59,1.18.59,3.36,3.84.89-3.06,2.18.71,2.55,5.13-1.99-2.35,5.27,2.08.99,4.56-3.99-.76,3.65,3.58,1.38,2.18-4.38.69,7.1,1.47.47,2.24-6.59,2.89,3.98,1.9-1.31-.35-6.14,4.56,2.25,1.3-1.33-2.4-4.18,4.23,1.93,1.49-1.59-5.13-4.68,4.49-.48.77-2.33-5.06-1.49,5.39-1.77-.27-2.92-5.96-.75,3.78-2.7-.63-2.09Z"/><polygon class="cls-55" points="108.71 115.68 109.55 121.11 105.71 120.22 105.11 116.86 108.71 115.68"/><polygon class="cls-55" points="131.49 103.44 126.8 101.94 131.37 97.96 133.45 98.94 131.49 103.44"/><polygon class="cls-55" points="130.82 130.43 130.47 124.29 125.19 126.4 128.93 131.74 130.82 130.43"/><polygon class="cls-61" points="109.51 107.03 107.38 110.94 103.79 106.7 105.28 105.11 109.51 107.03"/><path class="cls-63" d="M115.2,110.11l-1.98-4.55,2.15-1.45s3.75,4.09,3.73,4.09c-.02,0-.43-3.88-.43-3.88,0,0,2.45-.57,2.63-.48.18.09.55,2.8.55,2.8l3.07-4.32,1.73,1.78-1.43,3.66,3.21-1.83,1.63,2.24-3.85,2.98,6.32-1,.4,2.29-4.51,2.18,2.77,1.19-1.01,2.43-3.6-2.14,3.65,4.82-1.45,1.41-3.99-4.2,1.17,4.95-2.15.79-1.58-4.82-1.69,5.39-1.61-.63.76-5.38-4.75,5.68-1.64-1.69,3.36-5.3-3.98,2.31-1-2.82,2.58-2.23-3.87-2.02,1.03-2.69,3.8.42Z"/><path class="cls-54" d="M119.68,118.44s-2.58-1.57-3.03-1.31c-.45.26-3.36,5.3-3.36,5.3l1.64,1.69,4.75-5.68Z"/><polygon class="cls-54" points="113.22 105.56 116.55 112.68 120.48 109.5 115.37 104.11 113.22 105.56"/><polygon class="cls-56" points="126.2 111.15 128.41 114.63 132.93 112.44 132.52 110.15 126.2 111.15"/></g></g></g></svg>