<?xml version="1.0" encoding="UTF-8"?><svg id="Layer_2" xmlns="http://www.w3.org/2000/svg" width="489.29" height="380.47" viewBox="0 0 489.29 380.47"><defs><style>.cls-1{fill:none;}</style></defs><g id="Layer_2-2"><g id="Layer_1-2"><rect class="cls-1" width="489.29" height="380.47"/><rect id="theme-fill" class="cls-1" x="36.12" y="35.63" width="378.43" height="192.15" rx="13.62" ry="13.62"/><path id="dark-light-fill" class="cls-1" d="M399.67,230.64H51.01c-9.79,0-17.74-7.96-17.74-17.74V50.51c0-9.79,7.96-17.74,17.74-17.74h348.65c9.78,0,17.74,7.96,17.74,17.74v162.38c0,9.78-7.96,17.74-17.74,17.74h0ZM51.01,38.49c-6.63,0-12.03,5.4-12.03,12.03v162.38c0,6.63,5.4,12.03,12.03,12.03h348.65c6.63,0,12.03-5.4,12.03-12.03V50.51c0-6.63-5.4-12.03-12.03-12.03H51.01Z"/><rect id="theme-fill-2" class="cls-1" x="54.72" y="55.65" width="378.43" height="192.15" rx="13.62" ry="13.62"/><path id="dark-light-fill-2" class="cls-1" d="M418.26,250.67H69.61c-9.78,0-17.74-7.96-17.74-17.74V70.53c0-9.78,7.96-17.74,17.74-17.74h348.65c9.78,0,17.74,7.96,17.74,17.74v162.38c0,9.78-7.96,17.74-17.74,17.74h0ZM69.61,58.52c-6.63,0-12.03,5.4-12.03,12.03v162.38c0,6.63,5.4,12.03,12.03,12.03h348.65c6.63,0,12.03-5.4,12.03-12.03V70.53c0-6.63-5.4-12.03-12.03-12.03H69.61Z"/><rect id="theme-fill-3" class="cls-1" x="74.74" y="77.11" width="378.43" height="192.15" rx="13.62" ry="13.62"/><path id="dark-light-fill-3" class="cls-1" d="M438.29,272.13H89.63c-9.78,0-17.74-7.96-17.74-17.74V91.99c0-9.78,7.96-17.74,17.74-17.74h348.65c9.78,0,17.74,7.96,17.74,17.74v162.39c0,9.78-7.96,17.74-17.74,17.74h0ZM89.63,79.96c-6.63,0-12.03,5.4-12.03,12.03v162.39c0,6.63,5.4,12.03,12.03,12.03h348.65c6.63,0,12.03-5.4,12.03-12.03V91.99c0-6.63-5.4-12.03-12.03-12.03,0,0-348.65,0-348.65,0Z"/><g id="dark-light-fill-4"><path class="cls-1" d="M197.94,190.28c-2.16,0-4.06-.44-5.7-1.3-1.64-.87-2.92-2.04-3.85-3.53-.92-1.49-1.38-3.15-1.38-5.01s.52-3.62,1.57-5.09,2.61-2.62,4.7-3.45c2.08-.83,4.65-1.25,7.71-1.25h7.15v5.46h-7.08c-1.92,0-3.42.32-4.5.96-1.08.64-1.62,1.64-1.62,3,0,.82.21,1.52.61,2.09.42.57.98,1.01,1.73,1.31.74.3,1.58.45,2.52.45.86,0,1.86-.19,3-.57,1.14-.38,2.14-.99,2.98-1.85.85-.85,1.28-1.97,1.28-3.34v-3.3l-.54-1.62v-4.14c0-.7-.1-1.35-.3-1.96-.2-.6-.52-1.13-.97-1.6-.45-.46-1.04-.82-1.77-1.06-.73-.25-1.62-.37-2.65-.37s-2.09.11-3.21.33-2.19.51-3.2.88-1.88.79-2.6,1.25l-2.7-6.42c.82-.48,1.89-.95,3.21-1.4s2.81-.82,4.46-1.11,3.38-.44,5.18-.44c2.94,0,5.26.4,6.94,1.2,1.68.8,2.92,1.81,3.7,3.05.79,1.23,1.3,2.51,1.52,3.86s.33,2.56.33,3.66v10.03c0,1.22.12,2.14.37,2.74.25.61.74,1.04,1.49,1.28l.72.24-3,7.03-.96-.36c-1.76-.66-3.04-1.43-3.85-2.33-.8-.9-1.26-1.78-1.38-2.65l1.56,1.02h-2.64l1.8-.84c-.68,1.37-2,2.57-3.94,3.61-1.96,1.04-4.17,1.56-6.68,1.56h-.02Z"/><path class="cls-1" d="M222.1,202.41v-44.75h7.95v3.45h1.08l-1.53,3.33v18.31l2.13,3.66h-1.35v16h-8.28ZM239.78,190.28c-2.7,0-5.11-.74-7.24-2.24-2.13-1.49-3.82-3.51-5.07-6.06-1.25-2.55-1.89-5.38-1.9-8.48.02-3.08.63-5.87,1.84-8.35,1.2-2.48,2.85-4.45,4.95-5.88s4.51-2.16,7.23-2.16c2.48,0,4.82.63,7.03,1.9,2.2,1.27,3.98,3.15,5.34,5.63,1.35,2.48,2.02,5.52,1.98,9.12.04,2.7-.34,5.08-1.13,7.15s-1.86,3.79-3.21,5.18-2.87,2.44-4.58,3.14-3.44,1.05-5.22,1.05h-.01ZM237.92,183.26c1.56-.02,2.93-.44,4.11-1.25s2.11-1.93,2.78-3.38c.67-1.44.99-3.11.97-5.01.02-1.92-.31-3.59-.99-5.01-.68-1.42-1.63-2.52-2.84-3.3s-2.6-1.16-4.16-1.14c-1.46-.02-2.79.35-3.97,1.11s-2.12,1.85-2.81,3.26-1.05,3.1-1.07,5.09c.02,1.9.37,3.57,1.07,5.01.69,1.44,1.63,2.57,2.82,3.38,1.19.81,2.55,1.22,4.06,1.25h.03Z"/><path class="cls-1" d="M259.05,202.41v-44.75h7.95v3.45h1.08l-1.53,3.33v18.31l2.13,3.66h-1.35v16h-8.28ZM276.73,190.28c-2.7,0-5.11-.74-7.24-2.24-2.13-1.49-3.82-3.51-5.07-6.06-1.25-2.55-1.89-5.38-1.9-8.48.02-3.08.63-5.87,1.84-8.35s2.85-4.45,4.95-5.88,4.51-2.16,7.23-2.16c2.48,0,4.82.63,7.03,1.9s3.98,3.15,5.34,5.63c1.37,2.48,2.02,5.52,1.98,9.12.04,2.7-.34,5.08-1.13,7.15s-1.86,3.79-3.21,5.18-2.87,2.44-4.58,3.14-3.44,1.05-5.22,1.05h-.01ZM274.87,183.26c1.56-.02,2.93-.44,4.11-1.25,1.18-.81,2.11-1.93,2.78-3.38s.99-3.11.97-5.01c.02-1.92-.31-3.59-.99-5.01-.68-1.42-1.63-2.52-2.84-3.3-1.21-.78-2.6-1.16-4.16-1.14-1.46-.02-2.79.35-3.97,1.11-1.18.76-2.12,1.85-2.81,3.26s-1.05,3.1-1.07,5.09c.02,1.9.37,3.57,1.07,5.01.69,1.44,1.63,2.57,2.82,3.38,1.19.81,2.55,1.22,4.06,1.25h.03Z"/><path class="cls-1" d="M304.04,190.28c-1.8,0-3.29-.38-4.46-1.16-1.17-.78-2.05-1.81-2.64-3.14-.59-1.32-.88-2.82-.88-4.5v-37.91h8.28v36.92c0,.48.05.93.16,1.33.11.42.32.74.63.99.31.25.76.37,1.37.37.31,0,.56-.02.79-.08.22-.05.42-.11.6-.16v6.7c-.52.17-1.13.33-1.8.45s-1.37.17-2.04.17h0Z"/><path class="cls-1" d="M327.46,190.28c-3.38,0-6.33-.71-8.83-2.12-2.5-1.41-4.44-3.37-5.81-5.86-1.37-2.49-2.05-5.34-2.05-8.54,0-3.38.71-6.3,2.12-8.78,1.41-2.47,3.29-4.38,5.64-5.75s4.93-2.04,7.72-2.04,5.1.61,7.31,1.85,3.99,2.96,5.33,5.19c1.34,2.23,2.01,4.87,2.01,7.91,0,.7-.04,1.37-.12,2.01-.08.64-.2,1.39-.36,2.25h-23.47v-5.52h16.33c0-1.38-.29-2.59-.9-3.63-.6-1.04-1.42-1.86-2.48-2.45-1.05-.59-2.26-.88-3.65-.88-1.68,0-3.14.4-4.37,1.21s-2.19,1.93-2.85,3.38-1.01,3.11-1.01,5.01.37,3.73,1.11,5.22,1.8,2.68,3.18,3.53c1.39.85,3.02,1.28,4.89,1.28,1.06,0,2.09-.12,3.09-.37.99-.25,1.93-.59,2.79-1.01s1.61-.88,2.22-1.38l2.7,6.54c-1.28.88-2.84,1.6-4.67,2.13-1.84.54-3.8.81-5.9.81h.01Z"/></g><path id="secondary-theme-fill-5" class="cls-1" d="M418.99,344.01h-81.41v-96.2h81.41c8.17,0,14.8,6.62,14.8,14.8v66.6c0,8.17-6.62,14.8-14.8,14.8h0Z"/><path id="theme-fill-4" class="cls-1" d="M418.99,346.87h-84.26v-101.93h84.26c9.73,0,17.66,7.92,17.66,17.66v66.6c0,9.73-7.92,17.66-17.66,17.66h0ZM340.45,341.16h78.55c6.59,0,11.94-5.35,11.94-11.94v-66.6c0-6.59-5.35-11.94-11.94-11.94h-78.55v90.49h0Z"/><path id="theme-fill-5" class="cls-1" d="M378.75,295.93l-20.17-20.14,6.99-6.87,20.08,20.2,20.17-20.2,6.94,6.87-20.17,20.14,20.17,20.2-6.94,6.87-20.17-20.08-20.08,20.08-6.99-6.87,20.17-20.2Z"/><path id="secondary-theme-fill-6" class="cls-1" d="M337.95,344.01h-81.41c-8.17,0-14.8-6.62-14.8-14.8v-66.6c0-8.17,6.62-14.8,14.8-14.8h81.41v96.2h0Z"/><path id="theme-fill-6" class="cls-1" d="M340.81,346.87h-84.26c-9.73,0-17.66-7.92-17.66-17.66v-66.6c0-9.73,7.92-17.66,17.66-17.66h84.26v101.93h0ZM256.55,250.67c-6.59,0-11.94,5.35-11.94,11.94v66.6c0,6.59,5.35,11.94,11.94,11.94h78.55v-90.49h-78.55Z"/><path id="theme-fill-7" class="cls-1" d="M278.87,320.52l-26.27-26.1,5.87-6.03,20.4,20.08,42.2-42.02,6.03,6.03-48.23,48.04h0Z"/></g></g></svg>