<?xml version="1.0" encoding="UTF-8"?><svg id="Layer_2" xmlns="http://www.w3.org/2000/svg" width="489.29" height="380.47" viewBox="0 0 489.29 380.47"><defs><style>.cls-1{fill:none;}</style></defs><g id="Layer_1-2"><rect class="cls-1" width="489.29" height="380.47"/><rect id="theme-fill" class="cls-1" x="53.79" y="49.11" width="346.36" height="175.87" rx="13.62" ry="13.62"/><path id="dark-light-fill" class="cls-1" d="M386.53,227.6H67.42c-8.96,0-16.24-7.29-16.24-16.24V62.73c0-8.96,7.29-16.24,16.24-16.24h319.11c8.95,0,16.24,7.29,16.24,16.24v148.62c0,8.95-7.29,16.24-16.24,16.24ZM67.42,51.73c-6.07,0-11.01,4.94-11.01,11.01v148.62c0,6.07,4.94,11.01,11.01,11.01h319.11c6.07,0,11.01-4.94,11.01-11.01V62.73c0-6.07-4.94-11.01-11.01-11.01H67.42Z"/><rect id="theme-fill-2" class="cls-1" x="70.81" y="67.44" width="346.36" height="175.87" rx="13.62" ry="13.62"/><path id="dark-light-fill-2" class="cls-1" d="M403.55,245.93H84.44c-8.95,0-16.24-7.29-16.24-16.24V81.06c0-8.95,7.29-16.24,16.24-16.24h319.11c8.95,0,16.24,7.29,16.24,16.24v148.62c0,8.95-7.29,16.24-16.24,16.24ZM84.44,70.06c-6.07,0-11.01,4.94-11.01,11.01v148.62c0,6.07,4.94,11.01,11.01,11.01h319.11c6.07,0,11.01-4.94,11.01-11.01V81.06c0-6.07-4.94-11.01-11.01-11.01H84.44Z"/><rect id="theme-fill-3" class="cls-1" x="89.14" y="87.08" width="346.36" height="175.87" rx="13.62" ry="13.62"/><path id="dark-light-fill-3" class="cls-1" d="M421.88,265.57H102.77c-8.95,0-16.24-7.29-16.24-16.24V100.7c0-8.95,7.29-16.24,16.24-16.24h319.11c8.95,0,16.24,7.29,16.24,16.24v148.63c0,8.95-7.29,16.24-16.24,16.24ZM102.77,89.69c-6.07,0-11.01,4.94-11.01,11.01v148.63c0,6.07,4.94,11.01,11.01,11.01h319.11c6.07,0,11.01-4.94,11.01-11.01V100.7c0-6.07-4.94-11.01-11.01-11.01H102.77Z"/><g id="dark-light-fill-4"><path class="cls-1" d="M201.9,190.66c-1.98,0-3.72-.4-5.22-1.19-1.5-.8-2.67-1.87-3.52-3.23-.84-1.36-1.26-2.88-1.26-4.59s.48-3.31,1.44-4.66c.96-1.35,2.39-2.4,4.3-3.16,1.9-.76,4.26-1.14,7.06-1.14h6.54v5h-6.48c-1.76,0-3.13.29-4.12.88-.99.59-1.48,1.5-1.48,2.75,0,.75.19,1.39.56,1.91.38.52.9.92,1.58,1.2.68.27,1.45.41,2.31.41.79,0,1.7-.17,2.75-.52,1.04-.35,1.96-.91,2.73-1.69.78-.78,1.17-1.8,1.17-3.06v-3.02l-.49-1.48v-3.79c0-.64-.09-1.24-.27-1.79-.18-.55-.48-1.03-.89-1.46-.41-.42-.95-.75-1.62-.97-.67-.23-1.48-.34-2.43-.34s-1.91.1-2.94.3c-1.03.2-2,.47-2.93.81-.93.34-1.72.72-2.38,1.14l-2.47-5.88c.75-.44,1.73-.87,2.94-1.28,1.21-.41,2.57-.75,4.08-1.02,1.51-.27,3.09-.4,4.74-.4,2.69,0,4.81.37,6.35,1.1,1.54.73,2.67,1.66,3.39,2.79.72,1.13,1.19,2.3,1.39,3.53.2,1.23.3,2.34.3,3.35v9.18c0,1.12.11,1.96.34,2.51.23.56.68.95,1.36,1.17l.66.22-2.75,6.43-.88-.33c-1.61-.6-2.78-1.31-3.52-2.13-.73-.82-1.15-1.63-1.26-2.43l1.43.93h-2.42l1.65-.77c-.62,1.25-1.83,2.35-3.61,3.3-1.79.95-3.82,1.43-6.11,1.43Z"/><path class="cls-1" d="M224.01,201.76v-40.96h7.28v3.16h.99l-1.4,3.05v16.76l1.95,3.35h-1.24v14.64h-7.58ZM240.19,190.66c-2.47,0-4.68-.68-6.63-2.05-1.95-1.36-3.5-3.21-4.64-5.55-1.14-2.33-1.73-4.92-1.74-7.76.02-2.82.58-5.37,1.68-7.64,1.1-2.27,2.61-4.07,4.53-5.38s4.13-1.98,6.62-1.98c2.27,0,4.41.58,6.43,1.74,2.01,1.16,3.64,2.88,4.89,5.15,1.24,2.27,1.85,5.05,1.81,8.35.04,2.47-.31,4.65-1.03,6.54-.72,1.89-1.7,3.47-2.94,4.74-1.24,1.27-2.63,2.23-4.19,2.87-1.56.64-3.15.96-4.78.96ZM238.49,184.23c1.43-.02,2.68-.4,3.76-1.14,1.08-.74,1.93-1.77,2.54-3.09.61-1.32.91-2.85.89-4.59.02-1.76-.28-3.29-.91-4.59-.62-1.3-1.49-2.31-2.6-3.02-1.11-.71-2.38-1.06-3.81-1.04-1.34-.02-2.55.32-3.63,1.02-1.08.7-1.94,1.69-2.57,2.98-.63,1.29-.96,2.84-.98,4.66.02,1.74.34,3.27.98,4.59.63,1.32,1.49,2.35,2.58,3.09,1.09.74,2.33,1.12,3.72,1.14Z"/><path class="cls-1" d="M257.83,201.76v-40.96h7.28v3.16h.99l-1.4,3.05v16.76l1.95,3.35h-1.24v14.64h-7.58ZM274.01,190.66c-2.47,0-4.68-.68-6.63-2.05-1.95-1.36-3.5-3.21-4.64-5.55-1.14-2.33-1.73-4.92-1.74-7.76.02-2.82.58-5.37,1.68-7.64,1.1-2.27,2.61-4.07,4.53-5.38s4.13-1.98,6.62-1.98c2.27,0,4.41.58,6.43,1.74,2.02,1.16,3.64,2.88,4.89,5.15,1.25,2.27,1.85,5.05,1.81,8.35.04,2.47-.31,4.65-1.03,6.54-.72,1.89-1.7,3.47-2.94,4.74-1.24,1.27-2.63,2.23-4.19,2.87-1.56.64-3.15.96-4.78.96ZM272.31,184.23c1.43-.02,2.68-.4,3.76-1.14,1.08-.74,1.93-1.77,2.54-3.09s.91-2.85.89-4.59c.02-1.76-.28-3.29-.91-4.59-.62-1.3-1.49-2.31-2.6-3.02-1.11-.71-2.38-1.06-3.81-1.04-1.34-.02-2.55.32-3.63,1.02-1.08.7-1.94,1.69-2.57,2.98-.63,1.29-.96,2.84-.98,4.66.02,1.74.34,3.27.98,4.59.63,1.32,1.49,2.35,2.58,3.09,1.09.74,2.33,1.12,3.72,1.14Z"/><path class="cls-1" d="M299.01,190.66c-1.65,0-3.01-.35-4.08-1.06-1.07-.71-1.88-1.66-2.42-2.87-.54-1.21-.81-2.58-.81-4.12v-34.7h7.58v33.79c0,.44.05.85.15,1.22.1.38.29.68.58.91.28.23.7.34,1.25.34.28,0,.51-.02.72-.07.2-.05.38-.1.55-.15v6.13c-.48.16-1.03.3-1.65.41-.62.11-1.25.16-1.87.16Z"/><path class="cls-1" d="M320.44,190.66c-3.09,0-5.79-.65-8.08-1.94-2.29-1.29-4.06-3.08-5.32-5.36-1.25-2.28-1.88-4.89-1.88-7.82,0-3.09.65-5.77,1.94-8.04,1.29-2.26,3.01-4.01,5.16-5.26,2.15-1.25,4.51-1.87,7.07-1.87s4.67.56,6.69,1.69c2.02,1.13,3.65,2.71,4.88,4.75,1.23,2.04,1.84,4.46,1.84,7.24,0,.64-.04,1.25-.11,1.84-.07.59-.18,1.27-.33,2.06h-21.48v-5.05h14.95c0-1.26-.27-2.37-.82-3.32-.55-.95-1.3-1.7-2.27-2.24-.96-.54-2.07-.81-3.34-.81-1.54,0-2.87.37-4,1.11-1.13.74-2,1.77-2.61,3.09s-.92,2.85-.92,4.59.34,3.41,1.02,4.78c.68,1.37,1.65,2.45,2.91,3.23,1.27.78,2.76,1.17,4.48,1.17.97,0,1.91-.11,2.83-.34.91-.23,1.77-.54,2.55-.92s1.47-.81,2.03-1.26l2.47,5.99c-1.17.81-2.6,1.46-4.27,1.95-1.68.49-3.48.74-5.4.74Z"/></g><path id="dark-light-fill-5" class="cls-1" d="M404.22,331.36h-74.51v-88.05h74.51c7.48,0,13.55,6.06,13.55,13.55v60.96c0,7.48-6.06,13.55-13.55,13.55Z"/><path id="theme-fill-4" class="cls-1" d="M404.22,333.98h-77.12v-93.29h77.12c8.91,0,16.16,7.25,16.16,16.16v60.96c0,8.91-7.25,16.16-16.16,16.16ZM332.33,328.75h71.89c6.03,0,10.93-4.9,10.93-10.93v-60.96c0-6.03-4.9-10.93-10.93-10.93h-71.89v82.82Z"/><path id="theme-fill-5" class="cls-1" d="M367.39,287.36l-18.46-18.43,6.4-6.29,18.38,18.49,18.46-18.49,6.35,6.29-18.46,18.43,18.46,18.49-6.35,6.29-18.46-18.38-18.38,18.38-6.4-6.29,18.46-18.49Z"/><path id="dark-light-fill-6" class="cls-1" d="M330.04,331.36h-74.51c-7.48,0-13.55-6.06-13.55-13.55v-60.96c0-7.48,6.06-13.55,13.55-13.55h74.51v88.05Z"/><path id="theme-fill-6" class="cls-1" d="M332.66,333.98h-77.12c-8.91,0-16.16-7.25-16.16-16.16v-60.96c0-8.91,7.25-16.16,16.16-16.16h77.12v93.29ZM255.54,245.93c-6.03,0-10.93,4.9-10.93,10.93v60.96c0,6.03,4.9,10.93,10.93,10.93h71.89v-82.82h-71.89Z"/><path id="theme-fill-7" class="cls-1" d="M275.97,309.86l-24.04-23.89,5.37-5.52,18.67,18.38,38.62-38.46,5.52,5.52-44.14,43.97Z"/></g></svg>