<?xml version="1.0" encoding="UTF-8"?><svg id="Layer_2" xmlns="http://www.w3.org/2000/svg" width="380.47" height="380.47" viewBox="0 0 380.47 380.47"><defs><style>.cls-1{fill:#231f20;}.cls-2{fill:#fff;}.cls-3{fill:#f5b819;}.cls-3,.cls-4,.cls-5{stroke:#fff;stroke-miterlimit:10;stroke-width:3px;}.cls-6{fill:#7174b7;}.cls-7{fill:#65b946;}.cls-4{fill:#f08721;}.cls-8{fill:#d82d2a;}.cls-5{fill:#f15d22;}</style></defs><g id="Layer_1-2"><rect class="cls-6" width="380.47" height="380.47"/><rect class="cls-5" x="43.9" y="101.65" width="264.71" height="134.41" rx="10.41" ry="10.41"/><rect class="cls-4" x="56.91" y="115.66" width="264.71" height="134.41" rx="10.41" ry="10.41"/><rect class="cls-3" x="70.91" y="130.67" width="264.71" height="134.41" rx="10.41" ry="10.41"/><path class="cls-1" d="M157.09,209.83c-1.51,0-2.84-.3-3.99-.91-1.15-.61-2.04-1.43-2.69-2.47-.64-1.04-.97-2.2-.97-3.51s.37-2.53,1.1-3.56c.73-1.03,1.83-1.83,3.29-2.42,1.46-.58,3.25-.87,5.4-.87h5v3.82h-4.96c-1.34,0-2.39.22-3.15.67-.76.45-1.13,1.15-1.13,2.1,0,.57.14,1.06.43,1.46.29.4.69.7,1.21.91.52.21,1.11.31,1.76.31.6,0,1.3-.13,2.1-.4.8-.27,1.49-.7,2.09-1.29.6-.59.89-1.38.89-2.34v-2.31l-.38-1.13v-2.9c0-.49-.07-.94-.21-1.36-.14-.42-.37-.79-.68-1.11-.31-.32-.73-.57-1.24-.75-.51-.18-1.13-.26-1.86-.26s-1.46.08-2.25.23c-.78.15-1.53.36-2.24.62-.71.26-1.31.55-1.82.87l-1.89-4.49c.57-.34,1.32-.66,2.25-.98.92-.31,1.96-.57,3.12-.78,1.16-.2,2.36-.3,3.62-.3,2.06,0,3.67.28,4.85.84,1.18.56,2.04,1.27,2.59,2.13.55.86.91,1.76,1.06,2.7.15.94.23,1.79.23,2.56v7.01c0,.85.09,1.49.26,1.92.17.43.52.72,1.04.89l.5.17-2.1,4.91-.67-.25c-1.23-.46-2.13-1-2.69-1.63-.56-.62-.88-1.24-.97-1.86l1.09.71h-1.85l1.26-.59c-.48.95-1.4,1.79-2.76,2.52-1.37.73-2.92,1.09-4.67,1.09Z"/><path class="cls-1" d="M173.99,218.32v-31.31h5.56v2.41h.76l-1.07,2.33v12.81l1.49,2.56h-.94v11.19h-5.79ZM186.36,209.83c-1.89,0-3.58-.52-5.07-1.56-1.49-1.04-2.67-2.46-3.55-4.24-.87-1.78-1.32-3.76-1.33-5.93.01-2.16.44-4.1,1.28-5.84.84-1.74,1.99-3.11,3.46-4.12s3.16-1.51,5.06-1.51c1.74,0,3.37.44,4.91,1.33,1.54.89,2.79,2.2,3.74,3.94.95,1.74,1.41,3.86,1.39,6.38.03,1.89-.23,3.56-.79,5-.55,1.44-1.3,2.65-2.25,3.62-.95.97-2.01,1.7-3.2,2.19-1.19.49-2.41.74-3.65.74ZM185.05,204.92c1.09-.01,2.05-.3,2.88-.87.83-.57,1.47-1.35,1.94-2.36.47-1.01.7-2.18.68-3.51.01-1.34-.22-2.51-.69-3.51-.48-.99-1.14-1.76-1.98-2.31-.85-.55-1.82-.81-2.91-.8-1.02-.01-1.95.25-2.77.78-.83.53-1.48,1.29-1.96,2.28-.48.99-.73,2.17-.75,3.56.01,1.33.26,2.5.75,3.51.48,1.01,1.14,1.79,1.97,2.36.83.57,1.78.86,2.84.87Z"/><path class="cls-1" d="M199.83,218.32v-31.31h5.56v2.41h.76l-1.07,2.33v12.81l1.49,2.56h-.94v11.19h-5.79ZM212.2,209.83c-1.89,0-3.58-.52-5.07-1.56-1.49-1.04-2.67-2.46-3.55-4.24-.87-1.78-1.32-3.76-1.33-5.93.01-2.16.44-4.1,1.28-5.84.84-1.74,1.99-3.11,3.46-4.12s3.16-1.51,5.06-1.51c1.74,0,3.37.44,4.91,1.33,1.54.89,2.79,2.2,3.74,3.94.95,1.74,1.41,3.86,1.39,6.38.03,1.89-.23,3.56-.79,5-.55,1.44-1.3,2.65-2.25,3.62-.95.97-2.01,1.7-3.2,2.19-1.19.49-2.41.74-3.65.74ZM210.9,204.92c1.09-.01,2.05-.3,2.88-.87.83-.57,1.47-1.35,1.94-2.36s.7-2.18.68-3.51c.01-1.34-.22-2.51-.69-3.51-.48-.99-1.14-1.76-1.98-2.31-.85-.55-1.82-.81-2.91-.8-1.02-.01-1.95.25-2.77.78-.83.53-1.48,1.29-1.96,2.28-.48.99-.73,2.17-.75,3.56.01,1.33.26,2.5.75,3.51.48,1.01,1.14,1.79,1.97,2.36.83.57,1.78.86,2.84.87Z"/><path class="cls-1" d="M231.31,209.83c-1.26,0-2.3-.27-3.12-.81-.82-.54-1.44-1.27-1.85-2.19-.41-.92-.62-1.97-.62-3.15v-26.52h5.79v25.83c0,.34.04.65.12.93.08.29.22.52.44.69.22.18.54.26.96.26.21,0,.39-.02.55-.05.15-.03.29-.07.42-.12v4.68c-.36.13-.78.23-1.26.32-.48.08-.95.13-1.43.13Z"/><path class="cls-1" d="M247.68,209.83c-2.37,0-4.42-.49-6.17-1.48-1.75-.99-3.1-2.35-4.06-4.09-.96-1.74-1.44-3.73-1.44-5.97,0-2.37.49-4.41,1.48-6.14.99-1.73,2.3-3.07,3.95-4.02,1.64-.95,3.45-1.43,5.41-1.43s3.57.43,5.11,1.29c1.55.86,2.79,2.07,3.73,3.63.94,1.56,1.41,3.4,1.41,5.53,0,.49-.03.96-.08,1.41-.06.45-.14.97-.25,1.57h-16.42v-3.86h11.42c0-.97-.21-1.81-.63-2.54-.42-.73-1-1.3-1.73-1.71-.73-.41-1.58-.62-2.55-.62-1.18,0-2.19.28-3.05.85-.86.57-1.53,1.35-2,2.36s-.7,2.18-.7,3.51.26,2.6.78,3.65c.52,1.05,1.26,1.87,2.22,2.47.97.6,2.11.89,3.42.89.74,0,1.46-.09,2.16-.26.7-.17,1.35-.41,1.95-.7s1.12-.62,1.55-.97l1.89,4.58c-.9.62-1.98,1.11-3.26,1.49-1.28.38-2.66.57-4.13.57Z"/><path class="cls-7" d="M198.08,250.07h56.94v67.29h-56.94c-5.71,0-10.35-4.64-10.35-10.35v-46.59c0-5.71,4.64-10.35,10.35-10.35Z"/><path class="cls-8" d="M254.77,250.07h56.94c5.71,0,10.35,4.64,10.35,10.35v46.59c0,5.71-4.64,10.35-10.35,10.35h-56.94v-67.29h0Z"/><path class="cls-2" d="M283.57,283.73l-14.11-14.09,4.89-4.81,14.05,14.13,14.11-14.13,4.85,4.81-14.11,14.09,14.11,14.13-4.85,4.81-14.11-14.05-14.05,14.05-4.89-4.81,14.11-14.13Z"/><path class="cls-2" d="M213.7,300.93l-18.37-18.26,4.11-4.22,14.27,14.04,29.52-29.39,4.22,4.22-33.73,33.61Z"/></g></svg>