<?xml version="1.0" encoding="UTF-8"?><svg id="Layer_2" xmlns="http://www.w3.org/2000/svg" width="489.29" height="380.47" viewBox="0 0 489.29 380.47"><defs><style>.cls-1{fill:none;}</style></defs><g id="Layer_1-2"><rect class="cls-1" width="489.29" height="380.47"/><g id="theme-fill"><rect class="cls-1" x="250.87" y="61.84" width="92.1" height="122.08" rx="10.35" ry="10.35"/><rect class="cls-1" x="146.33" y="61.84" width="92.1" height="122.08" rx="10.35" ry="10.35"/><rect class="cls-1" x="355.4" y="61.84" width="92.1" height="122.08" rx="10.35" ry="10.35"/><rect class="cls-1" x="250.87" y="196.55" width="92.1" height="122.08" rx="10.35" ry="10.35"/><rect class="cls-1" x="355.4" y="196.55" width="92.1" height="122.08" rx="10.35" ry="10.35"/><rect class="cls-1" x="41.79" y="196.55" width="92.1" height="122.08" rx="10.35" ry="10.35"/></g><g id="secondary-theme-fill"><rect class="cls-1" x="41.79" y="61.84" width="92.1" height="122.08" rx="10.35" ry="10.35"/><rect class="cls-1" x="146.33" y="196.55" width="92.1" height="122.08" rx="10.35" ry="10.35"/></g><g id="dark-light-fill"><path class="cls-1" d="M296.55,136.27c-2.04,0-3.88-.39-5.53-1.17-1.65-.78-2.96-1.88-3.93-3.28-.98-1.4-1.48-3.04-1.51-4.92l6.08-.02c0,.88.24,1.63.72,2.26s1.1,1.12,1.86,1.45c.76.34,1.57.5,2.44.48.93,0,1.76-.2,2.49-.59.73-.4,1.3-.93,1.71-1.62.42-.68.62-1.46.62-2.34s-.21-1.61-.65-2.3c-.43-.68-1.08-1.22-1.96-1.63-.88-.4-1.98-.6-3.32-.6h-1.7v-4.74h1.88c.99,0,1.84-.19,2.54-.58.7-.39,1.25-.91,1.63-1.57.38-.66.58-1.42.59-2.26,0-.8-.16-1.49-.48-2.06-.32-.57-.78-1.01-1.37-1.31-.59-.31-1.28-.46-2.07-.46s-1.53.15-2.14.45c-.61.3-1.09.73-1.43,1.27-.34.55-.52,1.18-.52,1.9h-5.82c-.01-1.68.4-3.19,1.24-4.52.84-1.33,2.01-2.38,3.51-3.15,1.5-.77,3.24-1.15,5.23-1.15s3.69.38,5.16,1.13,2.62,1.77,3.44,3.06c.82,1.29,1.23,2.73,1.23,4.32s-.41,3.02-1.23,4.25c-.82,1.22-1.93,2.17-3.34,2.85-1.41.68-2.99,1-4.74.97v-1.62c2.01-.06,3.79.26,5.34.94,1.55.68,2.77,1.66,3.66,2.92.89,1.26,1.34,2.74,1.34,4.44s-.48,3.3-1.43,4.69c-.96,1.39-2.26,2.49-3.91,3.3-1.65.81-3.53,1.22-5.62,1.22Z"/><path class="cls-1" d="M181.82,135.93v-1.4l8.75-11.03c.98-1.22,1.93-2.41,2.84-3.57.92-1.16,1.68-2.29,2.28-3.39.6-1.11.91-2.18.91-3.23,0-.79-.18-1.49-.54-2.1-.36-.61-.86-1.09-1.5-1.43-.64-.34-1.38-.52-2.21-.52-.92,0-1.73.2-2.42.6-.7.4-1.24.97-1.64,1.69-.4.73-.59,1.57-.59,2.53h-6.19c.01-2,.49-3.77,1.42-5.31s2.22-2.75,3.85-3.63c1.63-.88,3.49-1.31,5.59-1.31,1.98,0,3.75.39,5.3,1.16,1.55.78,2.77,1.86,3.65,3.24.88,1.39,1.33,2.98,1.33,4.8,0,1.55-.32,3-.95,4.33-.63,1.34-1.47,2.67-2.51,4-1.04,1.33-2.18,2.75-3.42,4.26l-3.9,4.81v.17l4.33-.09h6.75v5.43h-21.14Z"/><path class="cls-1" d="M289.03,270.64l11.14-26.14v-.19h-14.14v-5.43h22.07v1.1l-12.69,30.67h-6.38Z"/><path class="cls-1" d="M87.89,270.99c-1.64,0-3.17-.27-4.59-.81-1.42-.54-2.66-1.28-3.72-2.23-1.06-.95-1.84-2.04-2.36-3.28l5.62-2.41c.27.65.66,1.22,1.16,1.72.5.5,1.09.9,1.77,1.19.68.29,1.41.43,2.2.43.99,0,1.87-.22,2.63-.67.76-.45,1.36-1.06,1.8-1.84.44-.78.66-1.67.66-2.66s-.23-1.89-.68-2.65-1.07-1.36-1.85-1.79c-.78-.43-1.66-.65-2.64-.65s-1.85.19-2.67.57c-.82.38-1.39.82-1.7,1.3l-4.76-.71v-17.63h17.54v5.43h-11.81v9.94l-1.27-2c.49-.5,1.24-.93,2.26-1.29,1.02-.36,2.13-.54,3.32-.54,1.8,0,3.46.43,4.99,1.28,1.53.85,2.75,2.05,3.67,3.58s1.38,3.32,1.38,5.36-.48,3.9-1.45,5.45-2.28,2.76-3.94,3.62c-1.66.86-3.51,1.29-5.55,1.29Z"/><path class="cls-1" d="M403.37,92.01l7.05,21.71h22.83c1.95,0,2.76,2.49,1.18,3.64l-18.47,13.42,7.05,21.71c.6,1.85-1.52,3.4-3.1,2.25l-18.47-13.42-18.47,13.42c-1.58,1.15-3.7-.4-3.1-2.25l7.05-21.71-18.47-13.42c-1.58-1.15-.77-3.64,1.18-3.64h22.83s7.05-21.71,7.05-21.71c.6-1.85,3.23-1.85,3.83,0Z"/><path class="cls-1" d="M193.83,226.73l7.05,21.71h22.83c1.95,0,2.76,2.49,1.18,3.64l-18.47,13.42,7.05,21.71c.6,1.85-1.52,3.4-3.1,2.25l-18.47-13.42-18.47,13.42c-1.58,1.15-3.7-.4-3.1-2.25l7.05-21.71-18.47-13.42c-1.58-1.15-.77-3.64,1.18-3.64h22.83s7.05-21.71,7.05-21.71c.6-1.85,3.23-1.85,3.83,0Z"/><rect class="cls-1" x="63.91" y="102.14" width="47.86" height="47.86" rx="7.18" ry="7.18" transform="translate(114.87 -25.19) rotate(45)"/><rect class="cls-1" x="377.52" y="233.66" width="47.86" height="47.86" rx="7.18" ry="7.18" transform="translate(299.73 -208.42) rotate(45)"/></g></g></svg>