<?xml version="1.0" encoding="UTF-8"?><svg id="Layer_2" xmlns="http://www.w3.org/2000/svg" width="489.29" height="380.47" viewBox="0 0 489.29 380.47"><defs><style>.cls-1{fill:none;}</style></defs><g id="Layer_1-2"><rect class="cls-1" width="489.29" height="380.47"/><rect id="theme-fill" class="cls-1" x="79.58" y="147.47" width="154.31" height="94.48" rx="10.41" ry="10.41"/><rect id="secondary-theme-fill" class="cls-1" x="255.4" y="147.47" width="154.31" height="94.48" rx="10.41" ry="10.41"/><rect id="theme-fill-2" class="cls-1" x="79.58" y="259.46" width="154.31" height="94.48" rx="10.41" ry="10.41"/><rect id="theme-fill-3" class="cls-1" x="255.4" y="259.46" width="154.31" height="94.48" rx="10.41" ry="10.41"/><rect id="theme-fill-4" class="cls-1" x="79.58" y="26.53" width="330.13" height="94.48" rx="10.41" ry="10.41"/><g id="dark-light-fill"><path class="cls-1" d="M153.61,208.1c-1.69,0-3.18-.34-4.46-1.02-1.28-.68-2.29-1.6-3.01-2.76-.72-1.16-1.08-2.47-1.08-3.92s.41-2.83,1.23-3.98c.82-1.15,2.05-2.05,3.68-2.7,1.63-.65,3.64-.97,6.04-.97h5.59v4.28h-5.55c-1.5,0-2.68.25-3.52.75-.85.5-1.27,1.29-1.27,2.35,0,.64.16,1.19.48,1.63.32.45.77.79,1.35,1.02.58.23,1.24.35,1.97.35.67,0,1.46-.15,2.35-.45s1.67-.78,2.34-1.45c.67-.67,1-1.54,1-2.62v-2.58l-.42-1.27v-3.24c0-.55-.08-1.06-.23-1.53-.16-.47-.41-.88-.76-1.25-.35-.36-.81-.64-1.39-.83-.57-.2-1.27-.29-2.08-.29s-1.64.09-2.51.26c-.88.17-1.71.4-2.5.69-.79.29-1.47.61-2.03.97l-2.11-5.03c.64-.38,1.48-.74,2.51-1.09,1.03-.35,2.2-.64,3.49-.87,1.29-.23,2.64-.34,4.05-.34,2.3,0,4.11.31,5.43.94,1.32.63,2.28,1.42,2.9,2.38.62.96,1.01,1.97,1.19,3.02.17,1.05.26,2.01.26,2.87v7.85c0,.96.1,1.67.29,2.15.2.48.58.81,1.16,1l.56.19-2.35,5.5-.75-.28c-1.38-.52-2.38-1.12-3.01-1.82-.63-.7-.99-1.39-1.08-2.08l1.22.8h-2.07l1.41-.66c-.53,1.07-1.56,2.01-3.09,2.82-1.53.82-3.27,1.22-5.23,1.22Z"/><path class="cls-1" d="M320.7,207.72v-36.19h6.49v13.44h.52l-1.06,3.57v13.65l1.2,2.54h-.92v2.98h-6.23ZM334.59,208.1c-2.11,0-4.01-.58-5.67-1.75-1.67-1.17-2.99-2.75-3.97-4.75-.98-2-1.48-4.21-1.49-6.64.02-2.41.49-4.59,1.43-6.53.94-1.94,2.23-3.48,3.88-4.61s3.53-1.69,5.66-1.69c1.94,0,3.77.5,5.5,1.49,1.72.99,3.12,2.46,4.18,4.41,1.06,1.94,1.58,4.32,1.55,7.14.03,2.11-.26,3.98-.88,5.59-.62,1.61-1.46,2.97-2.51,4.05-1.06,1.09-2.25,1.91-3.58,2.46-1.33.55-2.69.82-4.09.82ZM333.13,202.6c1.22-.02,2.3-.34,3.22-.97.92-.63,1.65-1.52,2.17-2.64.53-1.13.78-2.44.76-3.92.02-1.5-.24-2.81-.77-3.92-.53-1.11-1.27-1.97-2.22-2.58s-2.03-.91-3.25-.89c-1.14-.02-2.18.27-3.1.87-.92.6-1.66,1.45-2.2,2.55-.54,1.1-.82,2.43-.83,3.98.02,1.49.29,2.8.83,3.92.54,1.13,1.28,2.01,2.21,2.64.93.63,1.99.96,3.18.97Z"/><path class="cls-1" d="M159.85,319.99c-1.85,0-3.58-.33-5.18-.99-1.61-.66-3.02-1.57-4.23-2.75-1.21-1.17-2.17-2.55-2.86-4.12-.69-1.57-1.03-3.29-1.03-5.13s.34-3.53,1.02-5.09c.68-1.56,1.62-2.92,2.83-4.09,1.21-1.17,2.6-2.07,4.17-2.71,1.57-.64,3.25-.96,5.04-.96,1.44,0,2.84.21,4.21.62s2.57.99,3.62,1.73l-2.4,5.26c-.44-.39-.94-.74-1.5-1.03-.56-.3-1.16-.52-1.8-.68-.63-.16-1.29-.23-1.96-.23-1.38,0-2.59.32-3.64.96-1.05.64-1.86,1.51-2.44,2.6-.58,1.09-.87,2.31-.87,3.65s.3,2.6.89,3.7c.6,1.1,1.42,1.98,2.47,2.63,1.05.65,2.25.98,3.6.98,1.1,0,2.14-.19,3.13-.58s1.73-.82,2.23-1.3l2.35,5.38c-.91.6-2.02,1.1-3.35,1.53-1.32.42-2.75.63-4.29.63Z"/><path class="cls-1" d="M330.14,320.08c-1.39,0-2.76-.27-4.09-.82-1.33-.55-2.53-1.37-3.58-2.46-1.06-1.09-1.9-2.44-2.51-4.05-.62-1.61-.92-3.48-.9-5.59-.03-2.82.49-5.2,1.56-7.14,1.07-1.94,2.47-3.41,4.19-4.41,1.72-.99,3.55-1.49,5.47-1.49,2.15,0,4.04.56,5.69,1.69s2.93,2.66,3.87,4.61,1.41,4.12,1.42,6.53c-.02,2.43-.51,4.64-1.48,6.64-.97,2-2.29,3.58-3.96,4.75-1.67,1.17-3.56,1.75-5.68,1.75ZM331.57,314.58c1.21-.02,2.28-.34,3.21-.97.93-.63,1.67-1.52,2.21-2.64.54-1.13.81-2.44.81-3.92s-.27-2.88-.82-3.98c-.55-1.1-1.28-1.95-2.2-2.55-.92-.6-1.95-.89-3.09-.87-1.24-.02-2.33.28-3.28.89s-1.69,1.47-2.22,2.58c-.53,1.11-.79,2.42-.77,3.92-.02,1.49.24,2.8.76,3.92.52,1.13,1.25,2.01,2.18,2.64.93.63,2,.96,3.21.97ZM343.65,320.08c-1.1-.38-2.02-.79-2.76-1.24-.74-.45-1.32-.95-1.74-1.48-.42-.53-.69-1.13-.81-1.79l.75.47h-2.19l1.1-2.94v-13.65l-1.17-2.58h.63v-13.35h6.49v27.94c0,.96.15,1.64.45,2.06.3.42.82.77,1.57,1.07l-2.33,5.5Z"/><path class="cls-1" d="M239.03,85.67v-4.28c0-2.64.46-4.88,1.39-6.7.93-1.82,2.08-3.38,3.46-4.67,1.38-1.29,2.76-2.49,4.14-3.59s2.53-2.25,3.46-3.44c.93-1.19,1.39-2.59,1.39-4.21,0-2.09-.77-3.77-2.31-5.05s-3.42-1.92-5.62-1.92c-1.59,0-3.02.33-4.3.99-1.28.66-2.3,1.57-3.06,2.73-.76,1.16-1.16,2.49-1.19,3.99h-10.8c.03-3.41.89-6.46,2.58-9.17,1.69-2.7,4-4.83,6.94-6.39,2.94-1.56,6.3-2.34,10.09-2.34,3.5,0,6.64.68,9.43,2.03,2.79,1.35,5,3.23,6.63,5.64s2.45,5.19,2.45,8.33c0,2.56-.48,4.71-1.45,6.46-.97,1.75-2.15,3.28-3.55,4.58-1.4,1.31-2.8,2.56-4.21,3.75-1.41,1.19-2.6,2.48-3.57,3.88-.97,1.4-1.45,3.08-1.45,5.05v4.32h-10.45ZM244.54,108.02c-2.12,0-3.91-.73-5.38-2.2-1.47-1.47-2.2-3.26-2.2-5.38s.73-3.91,2.2-5.38c1.47-1.47,3.26-2.2,5.38-2.2s3.9.73,5.35,2.2c1.45,1.47,2.18,3.26,2.18,5.38s-.73,3.91-2.18,5.38c-1.45,1.47-3.24,2.2-5.35,2.2Z"/></g></g></svg>