<?xml version="1.0" encoding="UTF-8"?><svg id="Layer_2" xmlns="http://www.w3.org/2000/svg" width="489.29" height="380.47" viewBox="0 0 489.29 380.47"><defs><style>.cls-1{fill:#1e1e1e;stroke:#fff;stroke-miterlimit:10;stroke-width:4px;}.cls-2{fill:none;}</style></defs><g id="Layer_1-2"><rect class="cls-2" width="489.29" height="380.47"/><rect id="theme-fill" class="cls-2" x="318.83" y="143.58" width="154.58" height="94.65" rx="10.41" ry="10.41"/><rect id="secondary-theme-fill" class="cls-2" x="22.66" y="98.7" width="154.58" height="94.65" rx="10.41" ry="10.41"/><rect id="theme-fill-2" class="cls-2" x="202.82" y="143.58" width="85.93" height="94.65" rx="10.41" ry="10.41"/><g id="dark-light-fill"><path class="cls-2" d="M361.39,183.97v-5.27h16.57v5.27h-16.57ZM374.19,204.31c-2.87,0-5.03-.8-6.48-2.39-1.45-1.59-2.18-3.64-2.18-6.13v-24.62h6.5v24.25c0,1.15.28,1.97.84,2.46.56.49,1.22.74,1.99.74.36,0,.71-.04,1.05-.13.34-.09.63-.2.88-.34l2.12,5.13c-.66.35-1.39.6-2.18.78s-1.64.26-2.53.26Z"/><path class="cls-2" d="M389.38,204.31c-1.69,0-3.19-.34-4.47-1.02-1.29-.68-2.29-1.6-3.01-2.77-.72-1.16-1.08-2.47-1.08-3.93s.41-2.84,1.24-3.99c.82-1.15,2.05-2.06,3.68-2.71,1.63-.65,3.65-.98,6.05-.98h5.6v4.28h-5.56c-1.51,0-2.68.25-3.53.75-.85.5-1.27,1.29-1.27,2.35,0,.64.16,1.19.48,1.64.32.45.77.79,1.35,1.02s1.24.35,1.98.35c.67,0,1.46-.15,2.35-.45.89-.3,1.68-.78,2.34-1.45.67-.67,1-1.54,1-2.62v-2.59l-.42-1.27v-3.25c0-.55-.08-1.06-.24-1.53s-.41-.89-.77-1.25c-.35-.36-.82-.64-1.39-.84-.57-.2-1.27-.29-2.08-.29s-1.64.09-2.52.26c-.88.17-1.71.4-2.51.69-.79.29-1.47.62-2.04.98l-2.12-5.04c.64-.38,1.48-.74,2.52-1.09,1.04-.35,2.2-.64,3.49-.87,1.3-.23,2.65-.34,4.06-.34,2.31,0,4.12.31,5.44.94,1.32.63,2.29,1.42,2.91,2.39.62.97,1.02,1.97,1.19,3.03.17,1.05.26,2.01.26,2.87v7.86c0,.96.1,1.68.29,2.15.2.48.58.81,1.16,1l.56.19-2.35,5.51-.75-.28c-1.38-.52-2.39-1.13-3.01-1.82-.63-.7-.99-1.39-1.08-2.08l1.22.8h-2.07l1.41-.66c-.53,1.07-1.57,2.01-3.1,2.82-1.53.82-3.28,1.22-5.24,1.22Z"/><path class="cls-2" d="M414.45,204.31c-1.41,0-2.58-.3-3.5-.91-.92-.6-1.61-1.42-2.07-2.46s-.69-2.21-.69-3.53v-29.73h6.5v28.95c0,.38.04.73.13,1.05.09.32.25.58.49.78.24.2.6.29,1.07.29.24,0,.44-.02.61-.06.17-.04.33-.08.47-.13v5.25c-.41.14-.88.26-1.41.35-.53.09-1.07.14-1.6.14Z"/><path class="cls-2" d="M427.51,204.31c-1.41,0-2.58-.3-3.5-.91-.92-.6-1.61-1.42-2.07-2.46-.46-1.04-.7-2.21-.7-3.53v-29.73h6.5v28.95c0,.38.04.73.13,1.05.09.32.25.58.49.78.24.2.6.29,1.07.29.24,0,.44-.02.61-.06.17-.04.33-.08.47-.13v5.25c-.41.14-.88.26-1.41.35-.53.09-1.07.14-1.6.14Z"/><path class="cls-2" d="M76.47,159.43c-1.69,0-3.19-.34-4.47-1.02-1.29-.68-2.29-1.6-3.01-2.77-.72-1.16-1.08-2.47-1.08-3.93s.41-2.84,1.24-3.99c.82-1.15,2.05-2.06,3.68-2.71,1.63-.65,3.65-.98,6.05-.98h5.6v4.28h-5.56c-1.51,0-2.68.25-3.53.75-.85.5-1.27,1.29-1.27,2.35,0,.64.16,1.19.48,1.64.32.45.77.79,1.35,1.02.58.24,1.24.35,1.98.35.67,0,1.46-.15,2.35-.45.89-.3,1.68-.78,2.34-1.45.67-.67,1-1.54,1-2.62v-2.59l-.42-1.27v-3.25c0-.55-.08-1.06-.24-1.53-.16-.47-.41-.89-.77-1.25-.35-.36-.82-.64-1.39-.84-.57-.2-1.27-.29-2.08-.29s-1.64.09-2.52.26c-.88.17-1.71.4-2.51.69-.79.29-1.47.62-2.04.98l-2.12-5.04c.64-.38,1.48-.74,2.52-1.09,1.04-.35,2.2-.64,3.5-.87,1.3-.23,2.65-.34,4.06-.34,2.31,0,4.12.31,5.44.94,1.32.63,2.29,1.42,2.91,2.39.62.97,1.02,1.97,1.19,3.03.17,1.05.26,2.01.26,2.87v7.86c0,.96.1,1.68.29,2.15.2.48.58.81,1.16,1l.56.19-2.35,5.51-.75-.28c-1.38-.52-2.39-1.13-3.01-1.82-.63-.7-.99-1.39-1.08-2.08l1.22.8h-2.07l1.41-.66c-.53,1.07-1.57,2.01-3.1,2.82-1.53.82-3.28,1.22-5.24,1.22Z"/><path class="cls-2" d="M95.26,159.06v-25.21h6.24v3.15h.92l-2.19,2.61c.77-1.99,1.86-3.52,3.26-4.57,1.4-1.05,3.06-1.58,4.95-1.58,1.69,0,3.12.41,4.28,1.24,1.16.82,2.02,1.97,2.57,3.45l-1.25-1.15h1.67l-1.58,1.15c.85-1.57,2.03-2.74,3.54-3.52,1.51-.78,3.16-1.17,4.93-1.17,1.58,0,2.92.27,4,.82,1.08.55,1.95,1.28,2.59,2.2.64.92,1.11,1.93,1.39,3.05.28,1.11.42,2.23.42,3.34v16.17h-6.52v-15.28c0-1.57-.34-2.77-1.02-3.59-.68-.82-1.64-1.24-2.86-1.24-.79,0-1.5.18-2.14.54-.64.36-1.15.9-1.53,1.61-.38.71-.56,1.61-.56,2.67v15.28h-6.5v-15.28c0-1.57-.35-2.77-1.04-3.59-.69-.82-1.65-1.24-2.87-1.24s-2.17.41-2.99,1.22-1.22,2.04-1.22,3.67v15.21h-6.5Z"/><path class="cls-2" d="M242.4,203.93v-34.7h6.76v34.7h-6.76Z"/></g><path class="cls-1" d="M138.36,254.84l12.41,20.96c1.71,2.89,4.43,4.81,7.45,5.59s6.33.39,9.21-1.32c5.78-3.42,7.69-10.88,4.27-16.66l-12.41-20.96,19.65-.16c7.62-.06,10.83-9.75,4.76-14.36l-69.91-52.97c-5.7-4.32-13.77.46-12.73,7.53l12.82,86.77c1.11,7.54,11.15,9.39,14.87,2.73l9.6-17.16Z"/></g></svg>