<?xml version="1.0" encoding="UTF-8"?><svg id="Layer_2" xmlns="http://www.w3.org/2000/svg" width="489.29" height="380.47" viewBox="0 0 489.29 380.47"><defs><style>.cls-1{fill:none;}</style></defs><g id="Layer_1-2"><rect class="cls-1" width="489.29" height="380.47"/><g id="theme-fill"><rect class="cls-1" x="250.07" y="21.49" width="76.87" height="76.87" rx="10.35" ry="10.35"/><rect class="cls-1" x="162.81" y="21.49" width="76.87" height="76.87" rx="10.35" ry="10.35"/><rect class="cls-1" x="337.32" y="21.49" width="76.87" height="76.87" rx="10.35" ry="10.35"/><rect class="cls-1" x="250.07" y="282.11" width="76.87" height="76.87" rx="10.35" ry="10.35"/><rect class="cls-1" x="162.81" y="282.11" width="76.87" height="76.87" rx="10.35" ry="10.35"/><rect class="cls-1" x="75.56" y="282.11" width="76.87" height="76.87" rx="10.35" ry="10.35"/><rect class="cls-1" x="250.07" y="108.36" width="76.87" height="76.87" rx="10.35" ry="10.35"/><rect class="cls-1" x="337.32" y="108.36" width="76.87" height="76.87" rx="10.35" ry="10.35"/><rect class="cls-1" x="75.56" y="108.36" width="76.87" height="76.87" rx="10.35" ry="10.35"/><rect class="cls-1" x="162.81" y="195.24" width="76.87" height="76.87" rx="10.35" ry="10.35"/><rect class="cls-1" x="337.32" y="195.24" width="76.87" height="76.87" rx="10.35" ry="10.35"/><rect class="cls-1" x="75.56" y="195.24" width="76.87" height="76.87" rx="10.35" ry="10.35"/></g><g id="secondary-theme-fill"><rect class="cls-1" x="75.56" y="21.49" width="76.87" height="76.87" rx="10.35" ry="10.35"/><rect class="cls-1" x="337.32" y="282.11" width="76.87" height="76.87" rx="10.35" ry="10.35"/><rect class="cls-1" x="162.81" y="108.36" width="76.87" height="76.87" rx="10.35" ry="10.35"/><rect class="cls-1" x="250.07" y="195.24" width="76.87" height="76.87" rx="10.35" ry="10.35"/></g><g id="dark-light-fill"><path class="cls-1" d="M289.75,76.25c-2.7,0-5.05-.56-7.05-1.69-2-1.13-3.55-2.69-4.64-4.68-1.1-1.99-1.64-4.27-1.64-6.82,0-2.7.56-5.04,1.69-7.02,1.13-1.97,2.63-3.51,4.51-4.59,1.88-1.09,3.94-1.63,6.18-1.63s4.07.49,5.84,1.47c1.77.98,3.19,2.37,4.26,4.15,1.07,1.78,1.61,3.89,1.61,6.32,0,.56-.03,1.1-.1,1.61-.06.51-.16,1.11-.29,1.8h-18.76v-4.41h13.05c0-1.1-.24-2.07-.72-2.9-.48-.83-1.14-1.48-1.98-1.95-.84-.47-1.81-.71-2.91-.71-1.34,0-2.51.32-3.49.97-.98.65-1.74,1.55-2.28,2.7s-.8,2.49-.8,4.01.3,2.97.89,4.17c.59,1.2,1.44,2.14,2.54,2.82,1.1.68,2.41,1.02,3.91,1.02.85,0,1.67-.1,2.47-.3.8-.2,1.54-.47,2.23-.8s1.28-.7,1.77-1.1l2.16,5.23c-1.02.7-2.27,1.27-3.73,1.7-1.46.43-3.03.65-4.71.65Z"/><path class="cls-1" d="M194.11,75.86v-25.69h6.45v3.69h.72l-1.63,1.75c.4-.88,1-1.77,1.79-2.66.79-.9,1.77-1.65,2.94-2.25,1.17-.61,2.53-.91,4.08-.91.65,0,1.24.05,1.75.14s.88.2,1.1.31l-2.66,6.36c-.15-.08-.41-.16-.8-.24-.39-.08-.83-.12-1.31-.12-.62,0-1.28.12-1.97.37-.69.25-1.32.62-1.89,1.12-.58.5-1.04,1.12-1.4,1.87-.36.75-.54,1.63-.54,2.64v13.62h-6.62Z"/><path class="cls-1" d="M387.84,69.54c-.3-.42-.46-1.12-.46-2.1v-28.52h-6.62v13.62h-.21c-.41-.39-.85-.76-1.32-1.08-1.68-1.15-3.61-1.73-5.81-1.73-1.97,0-3.83.51-5.59,1.52-1.76,1.02-3.19,2.51-4.28,4.5-1.1,1.98-1.63,4.41-1.59,7.29-.02,2.16.29,4.06.92,5.71.63,1.65,1.49,3.03,2.57,4.14,1.08,1.11,2.3,1.95,3.66,2.51,1.36.56,2.75.84,4.17.84,2.16,0,4.09-.6,5.79-1.79.93-.65,1.74-1.44,2.46-2.34h.27c.15.48.36.94.68,1.34.42.54,1.02,1.05,1.77,1.51.76.46,1.7.89,2.82,1.27l2.37-5.61c-.77-.3-1.3-.67-1.61-1.09ZM380.28,66.94c-.55,1.15-1.3,2.05-2.25,2.7-.95.65-2.04.98-3.27,1-1.23-.02-2.32-.35-3.27-1-.95-.65-1.69-1.55-2.23-2.7-.54-1.15-.8-2.49-.78-4.01-.02-1.53.25-2.87.79-4.01.54-1.14,1.3-2.01,2.27-2.64s2.08-.93,3.35-.91c1.17-.02,2.22.28,3.15.89.93.61,1.68,1.48,2.24,2.6.56,1.13.84,2.48.84,4.07s-.28,2.85-.83,4.01Z"/><path class="cls-1" d="M101.9,75.86v-36.94h6.62v13.72h.53l-1.08,3.65v13.93l1.22,2.59h-.93v3.05h-6.36ZM116.07,76.25c-2.16,0-4.09-.6-5.79-1.79-1.7-1.19-3.05-2.81-4.05-4.84-1-2.04-1.51-4.3-1.52-6.78.02-2.46.5-4.68,1.46-6.67.96-1.98,2.28-3.55,3.96-4.7s3.61-1.73,5.78-1.73c1.98,0,3.85.51,5.61,1.52,1.76,1.02,3.18,2.51,4.27,4.5,1.09,1.98,1.62,4.41,1.58,7.29.03,2.16-.27,4.06-.9,5.71-.63,1.65-1.49,3.03-2.57,4.14-1.08,1.11-2.3,1.95-3.66,2.51s-2.75.84-4.17.84ZM114.59,70.64c1.25-.02,2.34-.35,3.29-1,.94-.65,1.68-1.55,2.22-2.7s.8-2.49.78-4.01c.02-1.53-.25-2.87-.79-4.01-.54-1.14-1.3-2.01-2.27-2.64-.97-.62-2.07-.93-3.32-.91-1.17-.02-2.22.28-3.17.89-.94.61-1.69,1.48-2.24,2.6-.55,1.13-.84,2.48-.85,4.07.02,1.52.3,2.85.85,4.01.55,1.15,1.3,2.05,2.25,2.7.95.65,2.03.98,3.25,1Z"/><path class="cls-1" d="M270.37,336.48v-25.69h6.36v3.21h.93l-2.23,2.66c.78-2.03,1.89-3.58,3.32-4.65,1.43-1.07,3.11-1.61,5.05-1.61,1.73,0,3.18.42,4.37,1.26,1.18.84,2.05,2.01,2.61,3.51l-1.27-1.17h1.7l-1.61,1.17c.86-1.6,2.07-2.79,3.61-3.59,1.54-.79,3.22-1.19,5.03-1.19,1.61,0,2.97.28,4.08.84,1.1.56,1.98,1.31,2.64,2.24.65.94,1.13,1.97,1.41,3.11s.43,2.27.43,3.41v16.48h-6.64v-15.57c0-1.6-.35-2.82-1.04-3.66-.69-.84-1.67-1.26-2.91-1.26-.8,0-1.53.18-2.18.55-.66.37-1.18.91-1.56,1.64-.38.73-.58,1.64-.58,2.72v15.57h-6.62v-15.57c0-1.6-.35-2.82-1.06-3.66-.7-.84-1.68-1.26-2.93-1.26s-2.21.42-3.05,1.25c-.83.83-1.25,2.08-1.25,3.74v15.49h-6.62Z"/><path class="cls-1" d="M198.12,336.48l-9.98-25.69h7.12l4.01,12.16,1.89,6.4h.19l1.87-6.4,4.05-12.16h7.08l-9.98,25.69h-6.26Z"/><path class="cls-1" d="M377,336.86c-2.7,0-5.05-.56-7.05-1.69-2-1.13-3.55-2.69-4.64-4.68-1.1-1.99-1.64-4.26-1.64-6.82,0-2.7.56-5.04,1.69-7.02,1.13-1.97,2.63-3.51,4.51-4.59,1.88-1.09,3.94-1.63,6.18-1.63s4.07.49,5.84,1.47c1.77.98,3.19,2.37,4.26,4.15,1.07,1.78,1.61,3.89,1.61,6.32,0,.56-.03,1.1-.1,1.61s-.16,1.11-.29,1.8h-18.76v-4.41h13.05c0-1.1-.24-2.07-.72-2.9s-1.14-1.48-1.98-1.96c-.84-.47-1.81-.71-2.91-.71-1.34,0-2.51.32-3.49.97-.98.65-1.74,1.55-2.28,2.7s-.8,2.49-.8,4,.3,2.97.89,4.17c.59,1.2,1.44,2.14,2.54,2.82,1.1.68,2.41,1.02,3.91,1.02.85,0,1.67-.1,2.47-.3.8-.2,1.54-.47,2.23-.8s1.28-.7,1.77-1.1l2.16,5.23c-1.02.7-2.27,1.27-3.73,1.7-1.46.43-3.03.65-4.71.65Z"/><path class="cls-1" d="M101.95,346.55v-35.76h6.36v2.76h.86l-1.22,2.66v14.63l1.7,2.93h-1.08v12.78h-6.62ZM116.07,336.86c-2.16,0-4.09-.6-5.79-1.79-1.7-1.19-3.05-2.81-4.05-4.84-1-2.04-1.51-4.3-1.52-6.77.02-2.46.5-4.69,1.46-6.67s2.28-3.55,3.96-4.7,3.61-1.73,5.78-1.73c1.98,0,3.85.51,5.61,1.52,1.76,1.02,3.18,2.51,4.27,4.5,1.09,1.98,1.62,4.41,1.58,7.29.03,2.16-.27,4.06-.9,5.71-.63,1.65-1.49,3.03-2.57,4.14-1.08,1.11-2.3,1.95-3.66,2.51-1.36.56-2.75.84-4.17.84ZM114.59,331.25c1.25-.02,2.34-.35,3.29-1,.94-.65,1.68-1.55,2.22-2.7s.8-2.49.78-4c.02-1.53-.25-2.87-.79-4.01-.54-1.13-1.3-2.01-2.27-2.64-.97-.62-2.07-.93-3.32-.91-1.17-.02-2.22.28-3.17.89s-1.69,1.47-2.24,2.6c-.55,1.13-.84,2.48-.85,4.07.02,1.52.3,2.85.85,4,.55,1.15,1.3,2.05,2.25,2.7.95.65,2.03.98,3.25,1Z"/><path class="cls-1" d="M277.16,162.73v-25.71h6.43v3.31h1.1l-2.06,2.45c.35-1.34.97-2.47,1.85-3.38.88-.91,1.93-1.6,3.15-2.06,1.22-.46,2.53-.7,3.92-.7,1.84,0,3.39.42,4.67,1.26,1.27.84,2.23,1.96,2.89,3.37.66,1.41.98,2.98.98,4.72v16.74h-6.62v-15.3c0-1.71-.42-3-1.26-3.87-.84-.87-1.97-1.31-3.39-1.31-.94,0-1.8.2-2.57.6-.77.4-1.37.99-1.81,1.76-.44.78-.66,1.73-.66,2.87v15.25h-6.62Z"/><path class="cls-1" d="M203.73,163.12c-1.44,0-2.63-.31-3.56-.92-.94-.62-1.64-1.45-2.11-2.51-.47-1.06-.71-2.25-.71-3.6v-30.29h6.62v29.5c0,.38.04.74.13,1.07.09.33.26.59.5.79.25.2.61.3,1.09.3.24,0,.45-.02.62-.06.18-.04.33-.08.48-.13v5.35c-.42.14-.9.26-1.44.36-.54.1-1.09.14-1.63.14Z"/><path class="cls-1" d="M376.04,163.12c-1.57,0-3.03-.28-4.4-.84-1.37-.56-2.55-1.32-3.55-2.27-1-.95-1.72-2.01-2.17-3.18l5.42-2.4c.38.86,1,1.64,1.85,2.33.85.69,1.8,1.03,2.85,1.03.64,0,1.21-.12,1.71-.36.5-.24.9-.56,1.2-.95.3-.39.44-.8.44-1.23,0-.54-.2-1.01-.61-1.4-.41-.39-.92-.72-1.53-1-.62-.27-1.25-.5-1.9-.7-.65-.19-1.2-.36-1.67-.5-1.15-.35-2.26-.84-3.33-1.46-1.07-.62-1.95-1.43-2.64-2.42-.69-.99-1.03-2.21-1.03-3.65s.39-2.79,1.16-3.92c.78-1.13,1.83-2,3.15-2.63s2.81-.94,4.46-.94c2.19,0,4.12.52,5.78,1.55,1.66,1.03,2.84,2.31,3.53,3.83l-5.28,2.21c-.29-.48-.74-.99-1.36-1.53-.62-.54-1.43-.82-2.43-.82-.83,0-1.53.21-2.09.64-.56.42-.84,1-.84,1.71,0,.62.21,1.13.64,1.51.42.38,1.02.72,1.79,1.01s1.67.6,2.71.94c.69.21,1.46.48,2.31.83.85.34,1.68.8,2.47,1.35.79.56,1.45,1.27,1.97,2.12.52.86.78,1.9.78,3.13,0,1.57-.43,2.95-1.3,4.16-.86,1.21-2.01,2.15-3.43,2.83-1.42.68-2.98,1.02-4.68,1.02Z"/><path class="cls-1" d="M103.36,162.73v-1.37l11.49-18.4v-.19h-10.72v-5.73h20.43v1.42l-11.46,18.32v.19h11.51v5.76h-21.25Z"/><path class="cls-1" d="M286.36,249.99c-1.81,0-3.43-.38-4.88-1.15s-2.59-1.89-3.44-3.38-1.27-3.31-1.27-5.47v-16.07h6.62v15.28c0,1.68.45,2.95,1.34,3.8.89.86,1.98,1.28,3.26,1.28.96,0,1.8-.21,2.53-.64.73-.42,1.3-1.02,1.71-1.79s.62-1.66.62-2.66v-15.28h6.62v17.17c0,.97.14,1.69.41,2.15.27.46.82.84,1.65,1.14l-2.37,5.61c-1.69-.51-2.97-1.17-3.81-1.99s-1.28-1.8-1.3-2.95l1.7,1.49h-3.21l3.17-1.97c-.94,1.53-2.2,2.82-3.78,3.86s-3.43,1.56-5.58,1.56Z"/><path class="cls-1" d="M201.25,220.66c-1.17,0-2.16-.41-2.97-1.24-.82-.82-1.22-1.82-1.22-2.99s.41-2.18,1.22-2.99,1.81-1.21,2.97-1.21,2.18.4,2.99,1.21c.81.81,1.21,1.8,1.21,2.99s-.4,2.16-1.21,2.99c-.81.82-1.8,1.24-2.99,1.24ZM197.96,249.6v-25.69h6.62v25.69h-6.62Z"/><path class="cls-1" d="M366.9,229.27v-5.37h16.88v5.37h-16.88ZM379.95,249.99c-2.93,0-5.13-.81-6.61-2.43-1.48-1.62-2.22-3.71-2.22-6.25v-25.09h6.62v24.7c0,1.17.28,2,.85,2.51.57.5,1.24.76,2.03.76.37,0,.72-.04,1.07-.13.34-.09.64-.2.9-.35l2.16,5.23c-.67.35-1.41.62-2.22.79-.81.18-1.67.26-2.58.26Z"/><path class="cls-1" d="M102.63,249.6v-36.94h6.62v13.77h1.25l-2.35,2.42c.32-1.17.91-2.15,1.76-2.94.85-.79,1.88-1.39,3.07-1.79,1.19-.4,2.44-.6,3.75-.6,1.98,0,3.63.42,4.93,1.25,1.3.83,2.28,1.95,2.93,3.37.65,1.42.97,2.99.97,4.71v16.74h-6.62v-15.3c0-1.73-.43-3.02-1.28-3.89s-1.99-1.3-3.39-1.3c-.93,0-1.77.2-2.53.59-.76.39-1.36.97-1.81,1.75-.45.78-.67,1.74-.67,2.89v15.25h-6.62Z"/></g></g></svg>