<?xml version="1.0" encoding="UTF-8"?><svg id="Layer_2" xmlns="http://www.w3.org/2000/svg" width="380.47" height="380.47" viewBox="0 0 380.47 380.47"><defs><style>.cls-1{fill:#fff;}.cls-2{fill:#7174b7;}.cls-3{fill:#f08721;}.cls-4{fill:#f5b819;}</style></defs><g id="Layer_1-2"><rect class="cls-2" width="380.47" height="380.47"/><rect class="cls-3" x="194.78" y="42.52" width="67.29" height="67.29" rx="10.35" ry="10.35"/><path class="cls-1" d="M229.52,90.45c-2.37,0-4.42-.49-6.17-1.48-1.75-.99-3.1-2.35-4.06-4.09-.96-1.74-1.44-3.73-1.44-5.97,0-2.37.49-4.41,1.48-6.14.99-1.73,2.3-3.07,3.95-4.02,1.64-.95,3.45-1.43,5.41-1.43s3.57.43,5.11,1.29c1.55.86,2.79,2.07,3.73,3.63.94,1.56,1.41,3.4,1.41,5.53,0,.49-.03.96-.08,1.41-.06.45-.14.97-.25,1.57h-16.42v-3.86h11.42c0-.97-.21-1.81-.63-2.54-.42-.73-1-1.3-1.73-1.71-.73-.41-1.58-.62-2.55-.62-1.18,0-2.19.28-3.05.85-.86.57-1.53,1.35-2,2.36s-.7,2.18-.7,3.51.26,2.6.78,3.65c.52,1.05,1.26,1.87,2.22,2.47.97.6,2.11.89,3.42.89.74,0,1.46-.09,2.16-.26.7-.17,1.35-.41,1.95-.7s1.12-.62,1.55-.97l1.89,4.58c-.9.62-1.98,1.11-3.26,1.49-1.28.38-2.66.57-4.13.57Z"/><rect class="cls-3" x="118.4" y="42.52" width="67.29" height="67.29" rx="10.35" ry="10.35"/><path class="cls-1" d="M145.8,90.11v-22.49h5.65v3.23h.63l-1.43,1.53c.35-.77.87-1.55,1.56-2.33.69-.78,1.55-1.44,2.57-1.97,1.02-.53,2.21-.8,3.57-.8.57,0,1.08.04,1.53.13s.77.18.97.27l-2.33,5.56c-.13-.07-.36-.14-.7-.21-.34-.07-.72-.1-1.14-.1-.55,0-1.12.11-1.72.33-.6.22-1.15.54-1.66.98-.5.43-.91.98-1.23,1.64-.31.66-.47,1.43-.47,2.31v11.93h-5.79Z"/><rect class="cls-3" x="271.16" y="42.52" width="67.29" height="67.29" rx="10.35" ry="10.35"/><path class="cls-1" d="M302.65,90.45c-1.25,0-2.46-.25-3.65-.73-1.19-.49-2.26-1.22-3.2-2.19-.95-.97-1.69-2.18-2.25-3.62-.55-1.44-.82-3.11-.81-5-.03-2.52.44-4.65,1.4-6.38.96-1.74,2.21-3.05,3.75-3.94,1.54-.89,3.17-1.33,4.89-1.33,1.92,0,3.61.5,5.08,1.51,1.47,1.01,2.62,2.38,3.45,4.12.83,1.74,1.26,3.68,1.27,5.84-.01,2.17-.46,4.15-1.32,5.93-.87,1.79-2.05,3.2-3.54,4.24-1.49,1.04-3.18,1.56-5.07,1.56ZM303.93,85.54c1.08-.01,2.03-.3,2.87-.87.83-.57,1.49-1.35,1.97-2.36.48-1.01.72-2.18.72-3.51s-.24-2.57-.73-3.56c-.49-.99-1.14-1.75-1.96-2.28-.82-.53-1.74-.79-2.76-.78-1.11-.01-2.08.25-2.93.8s-1.51,1.32-1.98,2.31c-.48.99-.71,2.16-.69,3.51-.01,1.33.21,2.5.68,3.51.47,1.01,1.12,1.79,1.95,2.36.83.57,1.79.86,2.87.87ZM314.72,90.45c-.98-.34-1.8-.71-2.47-1.11-.67-.41-1.18-.85-1.55-1.32-.37-.48-.61-1.01-.72-1.6l.67.42h-1.95l.99-2.62v-12.2l-1.05-2.31h.57v-11.93h5.79v24.96c0,.85.13,1.47.4,1.84.27.37.73.69,1.41.96l-2.08,4.91Z"/><rect class="cls-4" x="42.02" y="42.52" width="67.29" height="67.29" rx="10.35" ry="10.35"/><path class="cls-1" d="M65.07,90.11v-32.33h5.79v12.01h.46l-.95,3.19v12.2l1.07,2.27h-.82v2.67h-5.56ZM77.48,90.45c-1.89,0-3.58-.52-5.07-1.56-1.49-1.04-2.67-2.46-3.55-4.24-.88-1.78-1.32-3.76-1.33-5.93.01-2.16.44-4.1,1.28-5.84.84-1.74,1.99-3.11,3.46-4.12s3.16-1.51,5.06-1.51c1.74,0,3.37.44,4.91,1.33,1.54.89,2.79,2.2,3.74,3.94.95,1.74,1.41,3.86,1.39,6.38.03,1.89-.24,3.56-.79,5-.55,1.44-1.3,2.65-2.25,3.62-.95.97-2.01,1.7-3.2,2.19s-2.41.73-3.65.73ZM76.18,85.54c1.09-.01,2.05-.3,2.88-.87.83-.57,1.47-1.35,1.94-2.36s.7-2.18.68-3.51c.01-1.34-.22-2.51-.69-3.51-.48-.99-1.14-1.76-1.98-2.31-.85-.55-1.82-.81-2.91-.8-1.02-.01-1.95.25-2.77.78-.83.53-1.48,1.29-1.96,2.28-.48.99-.73,2.17-.75,3.56.01,1.33.26,2.5.75,3.51.48,1.01,1.14,1.79,1.97,2.36.83.57,1.78.86,2.84.87Z"/><rect class="cls-1" x="194.78" y="270.66" width="67.29" height="67.29" rx="10.35" ry="10.35"/><path class="cls-2" d="M212.55,318.26v-22.49h5.56v2.81h.82l-1.95,2.33c.69-1.78,1.66-3.13,2.91-4.07,1.25-.94,2.73-1.41,4.42-1.41,1.51,0,2.79.37,3.82,1.1,1.04.74,1.8,1.76,2.29,3.08l-1.11-1.03h1.49l-1.41,1.03c.76-1.4,1.81-2.45,3.16-3.14,1.35-.69,2.82-1.04,4.4-1.04,1.41,0,2.6.25,3.57.73.97.49,1.74,1.14,2.31,1.96.57.82.99,1.73,1.24,2.72s.38,1.99.38,2.98v14.42h-5.82v-13.63c0-1.4-.3-2.47-.91-3.2-.61-.74-1.46-1.1-2.55-1.1-.7,0-1.34.16-1.91.48-.57.32-1.03.8-1.37,1.44-.34.64-.5,1.43-.5,2.38v13.63h-5.79v-13.63c0-1.4-.31-2.47-.92-3.2-.62-.74-1.47-1.1-2.56-1.1s-1.94.36-2.67,1.09c-.73.73-1.09,1.82-1.09,3.28v13.56h-5.79Z"/><rect class="cls-1" x="118.4" y="270.66" width="67.29" height="67.29" rx="10.35" ry="10.35"/><path class="cls-2" d="M149.31,318.26l-8.73-22.49h6.24l3.51,10.64,1.66,5.61h.17l1.64-5.61,3.55-10.64h6.19l-8.73,22.49h-5.48Z"/><rect class="cls-4" x="271.16" y="270.66" width="67.29" height="67.29" rx="10.35" ry="10.35"/><path class="cls-1" d="M305.9,318.59c-2.37,0-4.42-.49-6.17-1.48-1.75-.99-3.1-2.35-4.06-4.09-.96-1.74-1.44-3.73-1.44-5.97,0-2.37.49-4.41,1.48-6.14.99-1.73,2.3-3.07,3.95-4.02,1.64-.95,3.45-1.43,5.41-1.43s3.57.43,5.11,1.29c1.55.86,2.79,2.07,3.73,3.63.94,1.56,1.41,3.41,1.41,5.53,0,.49-.03.96-.08,1.41s-.14.97-.25,1.57h-16.42v-3.86h11.42c0-.97-.21-1.81-.63-2.54s-1-1.3-1.73-1.71c-.73-.41-1.58-.62-2.55-.62-1.18,0-2.19.28-3.05.85-.86.57-1.53,1.35-2,2.36s-.7,2.18-.7,3.51.26,2.6.78,3.65c.52,1.05,1.26,1.87,2.22,2.47.97.6,2.11.89,3.42.89.74,0,1.46-.09,2.16-.26.7-.17,1.35-.41,1.95-.7s1.12-.62,1.55-.97l1.89,4.58c-.9.62-1.98,1.11-3.26,1.49-1.28.38-2.66.57-4.13.57Z"/><rect class="cls-1" x="42.02" y="270.66" width="67.29" height="67.29" rx="10.35" ry="10.35"/><path class="cls-2" d="M65.11,327.07v-31.3h5.56v2.41h.76l-1.07,2.33v12.81l1.49,2.56h-.94v11.19h-5.79ZM77.48,318.59c-1.89,0-3.58-.52-5.07-1.56-1.49-1.04-2.67-2.46-3.55-4.24-.88-1.78-1.32-3.76-1.33-5.93.01-2.16.44-4.1,1.28-5.84s1.99-3.11,3.46-4.12,3.16-1.51,5.06-1.51c1.74,0,3.37.44,4.91,1.33,1.54.89,2.79,2.2,3.74,3.94.95,1.74,1.41,3.86,1.39,6.38.03,1.89-.24,3.56-.79,5-.55,1.44-1.3,2.65-2.25,3.62-.95.97-2.01,1.7-3.2,2.19-1.19.49-2.41.73-3.65.73ZM76.18,313.68c1.09-.01,2.05-.3,2.88-.87.83-.57,1.47-1.35,1.94-2.36s.7-2.18.68-3.51c.01-1.34-.22-2.51-.69-3.51-.48-.99-1.14-1.76-1.98-2.31-.85-.55-1.82-.81-2.91-.8-1.02-.01-1.95.25-2.77.78s-1.48,1.29-1.96,2.28c-.48.99-.73,2.17-.75,3.56.01,1.33.26,2.5.75,3.51.48,1.01,1.14,1.79,1.97,2.36.83.57,1.78.86,2.84.87Z"/><rect class="cls-1" x="194.78" y="118.56" width="67.29" height="67.29" rx="10.35" ry="10.35"/><path class="cls-2" d="M218.5,166.16v-22.51h5.63v2.9h.97l-1.81,2.14c.31-1.18.85-2.16,1.62-2.96.77-.8,1.69-1.4,2.76-1.81,1.07-.41,2.21-.61,3.43-.61,1.61,0,2.97.37,4.08,1.1,1.11.73,1.96,1.72,2.53,2.95.57,1.23.86,2.61.86,4.14v14.66h-5.79v-13.4c0-1.5-.37-2.63-1.1-3.39-.73-.76-1.72-1.14-2.97-1.14-.83,0-1.58.18-2.25.52-.67.35-1.2.86-1.58,1.54-.38.68-.58,1.52-.58,2.51v13.35h-5.79Z"/><rect class="cls-4" x="118.4" y="118.56" width="67.29" height="67.29" rx="10.35" ry="10.35"/><path class="cls-1" d="M154.22,166.5c-1.26,0-2.3-.27-3.12-.81-.82-.54-1.44-1.27-1.85-2.19-.41-.92-.62-1.97-.62-3.15v-26.52h5.79v25.83c0,.34.04.65.12.93.08.29.22.52.44.69.22.18.54.26.96.26.21,0,.39-.02.55-.05.15-.03.29-.07.42-.12v4.68c-.36.13-.78.23-1.26.31-.48.08-.95.13-1.43.13Z"/><rect class="cls-1" x="271.16" y="118.56" width="67.29" height="67.29" rx="10.35" ry="10.35"/><path class="cls-2" d="M305.06,166.5c-1.37,0-2.66-.25-3.85-.73-1.2-.49-2.23-1.15-3.11-1.98-.88-.83-1.51-1.76-1.9-2.78l4.75-2.1c.34.76.88,1.44,1.62,2.04.74.6,1.57.9,2.5.9.56,0,1.06-.1,1.5-.31.44-.21.79-.49,1.05-.83.26-.34.39-.7.39-1.08,0-.48-.18-.89-.54-1.23-.36-.34-.81-.63-1.34-.87-.54-.24-1.09-.44-1.66-.61-.57-.17-1.05-.31-1.46-.44-1.01-.31-1.98-.73-2.92-1.28-.94-.55-1.71-1.25-2.31-2.12-.6-.87-.9-1.93-.9-3.19s.34-2.45,1.02-3.43c.68-.99,1.6-1.75,2.76-2.3s2.46-.82,3.91-.82c1.92,0,3.6.45,5.06,1.35,1.46.9,2.48,2.02,3.09,3.35l-4.62,1.93c-.25-.42-.65-.87-1.19-1.34-.54-.48-1.25-.71-2.13-.71-.73,0-1.34.19-1.83.56-.49.37-.73.87-.73,1.5,0,.55.19.99.56,1.32.37.34.89.63,1.56.88s1.46.52,2.37.82c.6.18,1.28.42,2.03.72.75.3,1.47.7,2.16,1.19.69.49,1.27,1.11,1.72,1.86.46.75.68,1.66.68,2.74,0,1.37-.38,2.59-1.13,3.64-.76,1.06-1.76,1.88-3,2.48-1.25.6-2.61.89-4.09.89Z"/><rect class="cls-1" x="42.02" y="118.56" width="67.29" height="67.29" rx="10.35" ry="10.35"/><path class="cls-2" d="M66.35,166.16v-1.2l10.06-16.1v-.17h-9.38v-5.02h17.89v1.24l-10.04,16.04v.17h10.08v5.04h-18.6Z"/><rect class="cls-4" x="194.78" y="194.61" width="67.29" height="67.29" rx="10.35" ry="10.35"/><path class="cls-1" d="M226.55,242.54c-1.58,0-3.01-.34-4.27-1.01s-2.27-1.66-3.01-2.96-1.11-2.9-1.11-4.79v-14.07h5.79v13.37c0,1.47.39,2.58,1.18,3.33.78.75,1.74,1.12,2.86,1.12.84,0,1.58-.19,2.21-.56.64-.37,1.14-.89,1.5-1.56s.55-1.45.55-2.33v-13.37h5.79v15.03c0,.85.12,1.48.36,1.88.24.4.72.73,1.45,1l-2.08,4.91c-1.48-.45-2.6-1.03-3.34-1.74s-1.12-1.58-1.13-2.58l1.49,1.3h-2.81l2.77-1.72c-.83,1.34-1.93,2.47-3.31,3.38s-3.01,1.36-4.88,1.36Z"/><rect class="cls-1" x="118.4" y="194.61" width="67.29" height="67.29" rx="10.35" ry="10.35"/><path class="cls-2" d="M152.05,216.87c-1.02,0-1.89-.36-2.6-1.08-.71-.72-1.07-1.59-1.07-2.61s.36-1.91,1.07-2.61,1.58-1.06,2.6-1.06,1.91.35,2.61,1.06c.71.71,1.06,1.58,1.06,2.61s-.35,1.89-1.06,2.61c-.71.72-1.58,1.08-2.61,1.08ZM149.17,242.21v-22.49h5.79v22.49h-5.79Z"/><rect class="cls-1" x="271.16" y="194.61" width="67.29" height="67.29" rx="10.35" ry="10.35"/><path class="cls-2" d="M297.06,224.4v-4.7h14.78v4.7h-14.78ZM308.48,242.54c-2.56,0-4.49-.71-5.78-2.13-1.29-1.42-1.94-3.24-1.94-5.47v-21.96h5.79v21.63c0,1.02.25,1.75.75,2.19.5.44,1.09.66,1.77.66.32,0,.63-.04.93-.12.3-.08.56-.18.79-.3l1.89,4.58c-.59.31-1.24.54-1.94.69-.71.15-1.46.23-2.26.23Z"/><rect class="cls-1" x="42.02" y="194.61" width="67.29" height="67.29" rx="10.35" ry="10.35"/><path class="cls-2" d="M65.71,242.21v-32.33h5.79v12.05h1.09l-2.06,2.12c.28-1.02.79-1.88,1.54-2.57.75-.69,1.64-1.21,2.69-1.56,1.04-.35,2.14-.52,3.29-.52,1.74,0,3.17.36,4.32,1.09,1.14.73,1.99,1.71,2.56,2.95.57,1.24.85,2.61.85,4.13v14.66h-5.79v-13.4c0-1.51-.37-2.65-1.12-3.4s-1.74-1.13-2.97-1.13c-.81,0-1.55.17-2.21.51-.67.34-1.19.85-1.59,1.53-.39.68-.59,1.52-.59,2.53v13.35h-5.79Z"/></g></svg>